<svg id="visual" viewBox="0 0 900 600" width="900" height="600" xmlns="http://www.w3.org/2000/svg" xmlns:xlink="http://www.w3.org/1999/xlink" version="1.1"><rect x="0" y="0" width="900" height="600" fill="#ffffff"></rect><path d="M0 421L30 415.3C60 409.7 120 398.3 180 392.5C240 386.7 300 386.3 360 391.7C420 397 480 408 540 407C600 406 660 393 720 394.2C780 395.3 840 410.7 870 418.3L900 426L900 601L870 601C840 601 780 601 720 601C660 601 600 601 540 601C480 601 420 601 360 601C300 601 240 601 180 601C120 601 60 601 30 601L0 601Z" fill="#dae7f1"></path><path d="M0 458L30 453.8C60 449.7 120 441.3 180 433C240 424.7 300 416.3 360 418.3C420 420.3 480 432.7 540 433C600 433.3 660 421.7 720 416.7C780 411.7 840 413.3 870 414.2L900 415L900 601L870 601C840 601 780 601 720 601C660 601 600 601 540 601C480 601 420 601 360 601C300 601 240 601 180 601C120 601 60 601 30 601L0 601Z" fill="#c3d9eb"></path><path d="M0 468L30 470.8C60 473.7 120 479.3 180 475C240 470.7 300 456.3 360 455.5C420 454.7 480 467.3 540 470.7C600 474 660 468 720 468.8C780 469.7 840 477.3 870 481.2L900 485L900 601L870 601C840 601 780 601 720 601C660 601 600 601 540 601C480 601 420 601 360 601C300 601 240 601 180 601C120 601 60 601 30 601L0 601Z" fill="#accbe5"></path><path d="M0 493L30 496C60 499 120 505 180 505.8C240 506.7 300 502.3 360 496.3C420 490.3 480 482.7 540 482.2C600 481.7 660 488.3 720 488.8C780 489.3 840 483.7 870 480.8L900 478L900 601L870 601C840 601 780 601 720 601C660 601 600 601 540 601C480 601 420 601 360 601C300 601 240 601 180 601C120 601 60 601 30 601L0 601Z" fill="#96bddf"></path><path d="M0 541L30 536.5C60 532 120 523 180 520.5C240 518 300 522 360 520.8C420 519.7 480 513.3 540 512.2C600 511 660 515 720 517C780 519 840 519 870 519L900 519L900 601L870 601C840 601 780 601 720 601C660 601 600 601 540 601C480 601 420 601 360 601C300 601 240 601 180 601C120 601 60 601 30 601L0 601Z" fill="#7eb0d9"></path><path d="M0 558L30 562C60 566 120 574 180 577.2C240 580.3 300 578.7 360 579C420 579.3 480 581.7 540 576.5C600 571.3 660 558.7 720 553.5C780 548.3 840 550.7 870 551.8L900 553L900 601L870 601C840 601 780 601 720 601C660 601 600 601 540 601C480 601 420 601 360 601C300 601 240 601 180 601C120 601 60 601 30 601L0 601Z" fill="#65a2d3"></path></svg>