<svg xmlns="http://www.w3.org/2000/svg" id="canvas" viewBox="305.964 355.896 1124.700 168.939"><path d="M 347.86,385.63 C 346.73 386.00, 346.36 386.61, 345.33 388.15 C 344.30 389.69, 343.60 390.62, 342.71 393.33 C 341.81 396.04, 341.85 398.01, 340.85 401.71 C 339.85 405.40, 339.17 407.59, 337.70 411.80 C 336.23 416.00, 335.28 418.31, 333.51 422.74 C 331.74 427.16, 330.68 429.54, 328.85 433.93 C 327.02 438.31, 326.07 440.58, 324.37 444.66 C 322.67 448.75, 321.84 450.80, 320.36 454.36 C 318.88 457.92, 318.02 459.56, 316.96 462.47 C 315.90 465.37, 315.45 466.71, 315.07 468.90 C 314.69 471.10, 314.86 472.06, 315.06 473.45 C 315.26 474.84, 315.49 475.30, 316.08 475.84 C 316.68 476.39, 317.30 476.46, 318.04 476.19 C 318.78 475.91, 319.04 475.57, 319.79 474.47 C 320.53 473.38, 321.00 472.69, 321.76 470.72 C 322.51 468.74, 322.73 467.47, 323.55 464.60 C 324.36 461.73, 324.68 459.97, 325.82 456.37 C 326.96 452.77, 327.72 450.70, 329.26 446.60 C 330.80 442.50, 331.72 440.25, 333.54 435.88 C 335.35 431.51, 336.43 429.14, 338.35 424.76 C 340.27 420.38, 341.29 418.08, 343.13 413.96 C 344.97 409.83, 345.92 407.71, 347.56 404.15 C 349.19 400.59, 350.39 399.00, 351.32 396.17 C 352.25 393.35, 352.28 392.00, 352.21 390.02 C 352.14 388.05, 351.85 387.15, 350.98 386.28 C 350.11 385.40, 348.99 385.26, 347.86 385.63" style="stroke: black; fill: black;"/><path d="M 309.75,377.89 C 310.38 378.72, 310.78 378.87, 312.12 379.18 C 313.45 379.48, 314.24 379.76, 316.44 379.42 C 318.64 379.08, 319.89 378.33, 323.10 377.46 C 326.32 376.58, 328.35 375.94, 332.51 375.03 C 336.67 374.12, 339.15 373.64, 343.91 372.90 C 348.66 372.15, 351.30 371.80, 356.29 371.30 C 361.28 370.81, 364.04 370.58, 368.86 370.41 C 373.68 370.23, 376.15 370.21, 380.39 370.43 C 384.63 370.65, 386.83 371.07, 390.06 371.50 C 393.28 371.94, 394.56 372.38, 396.54 372.62 C 398.51 372.86, 399.01 372.79, 399.92 372.71 C 400.83 372.64, 400.80 372.37, 401.08 372.24 C 401.36 372.12, 401.00 372.07, 401.33 372.07 C 401.66 372.08, 402.36 372.54, 402.73 372.26 C 403.10 371.99, 403.38 371.50, 403.17 370.71 C 402.97 369.92, 402.78 369.19, 401.71 368.31 C 400.65 367.43, 400.05 366.95, 397.85 366.32 C 395.65 365.69, 394.17 365.41, 390.70 365.17 C 387.23 364.92, 384.89 365.03, 380.48 365.10 C 376.07 365.17, 373.57 365.25, 368.64 365.51 C 363.72 365.78, 360.93 365.99, 355.85 366.41 C 350.77 366.83, 348.09 367.14, 343.24 367.61 C 338.38 368.09, 335.90 368.44, 331.58 368.78 C 327.26 369.13, 325.09 369.02, 321.65 369.34 C 318.20 369.66, 316.59 369.69, 314.35 370.37 C 312.11 371.05, 311.52 371.80, 310.45 372.73 C 309.38 373.67, 309.14 373.99, 309.00 375.03 C 308.86 376.06, 309.13 377.06, 309.75 377.89" style="stroke: black; fill: black;"/><path d="M 400.51,428.19 C 399.25 428.30, 398.47 428.77, 396.98 430.27 C 395.50 431.77, 394.65 432.99, 393.10 435.70 C 391.54 438.41, 390.90 440.54, 389.18 443.82 C 387.47 447.11, 386.42 449.00, 384.53 452.12 C 382.63 455.25, 381.38 456.80, 379.70 459.46 C 378.02 462.13, 377.02 463.36, 376.11 465.45 C 375.20 467.55, 375.26 468.56, 375.16 469.92 C 375.05 471.29, 375.18 471.65, 375.58 472.27 C 375.98 472.89, 376.42 473.07, 377.14 473.03 C 377.85 473.00, 378.12 472.87, 379.17 472.10 C 380.22 471.32, 381.01 470.92, 382.38 469.18 C 383.75 467.43, 384.40 466.05, 386.02 463.37 C 387.64 460.69, 388.54 458.92, 390.49 455.78 C 392.44 452.64, 393.69 450.83, 395.76 447.68 C 397.82 444.54, 399.29 442.82, 400.82 440.05 C 402.35 437.28, 402.90 435.89, 403.40 433.82 C 403.89 431.76, 403.86 430.85, 403.28 429.72 C 402.70 428.60, 401.77 428.09, 400.51 428.19" style="stroke: black; fill: black;"/><path d="M 424.42,383.18 C 423.57 382.27, 422.93 381.99, 422.25 382.30 C 421.58 382.60, 421.37 383.59, 421.05 384.71 C 420.72 385.82, 420.25 387.11, 420.64 387.88 C 421.03 388.65, 421.78 388.94, 423.00 388.54 C 424.23 388.14, 425.73 386.52, 426.77 385.86 C 427.81 385.20, 428.00 384.98, 428.21 385.22 C 428.42 385.47, 427.96 386.43, 427.81 387.08 C 427.65 387.72, 427.68 388.50, 427.42 388.46 C 427.16 388.41, 427.11 387.91, 426.51 386.86 C 425.91 385.80, 425.27 384.10, 424.42 383.18" style="stroke: black; fill: black;"/><path d="M 469.92,379.06 C 468.75 379.16, 468.12 379.55, 466.79 380.97 C 465.46 382.38, 464.76 383.29, 463.27 386.13 C 461.78 388.96, 461.27 391.16, 459.35 395.15 C 457.43 399.14, 456.17 401.51, 453.67 406.06 C 451.17 410.62, 449.61 413.17, 446.83 417.93 C 444.05 422.68, 442.46 425.22, 439.76 429.84 C 437.07 434.45, 435.66 436.82, 433.35 441.00 C 431.03 445.18, 429.93 447.21, 428.18 450.75 C 426.44 454.30, 425.38 455.79, 424.62 458.72 C 423.87 461.64, 423.92 463.07, 424.39 465.39 C 424.86 467.70, 425.45 468.80, 426.96 470.31 C 428.47 471.82, 429.92 472.49, 431.96 472.93 C 433.99 473.36, 435.55 473.29, 437.14 472.49 C 438.73 471.69, 439.63 470.36, 439.91 468.93 C 440.18 467.50, 439.52 466.28, 438.51 465.35 C 437.50 464.43, 436.17 464.30, 434.87 464.30 C 433.57 464.30, 432.93 464.94, 432.00 465.36 C 431.07 465.78, 430.61 466.47, 430.22 466.40 C 429.84 466.32, 429.85 466.16, 430.06 464.98 C 430.28 463.80, 430.64 462.89, 431.30 460.49 C 431.95 458.08, 432.06 456.41, 433.32 452.97 C 434.59 449.52, 435.56 447.42, 437.63 443.25 C 439.70 439.08, 441.05 436.69, 443.68 432.10 C 446.31 427.51, 447.89 424.97, 450.77 420.29 C 453.65 415.60, 455.26 413.08, 458.08 408.68 C 460.89 404.28, 462.36 402.01, 464.84 398.29 C 467.33 394.57, 468.90 392.91, 470.51 390.09 C 472.11 387.27, 472.45 386.10, 472.88 384.18 C 473.31 382.26, 473.25 381.51, 472.66 380.49 C 472.07 379.46, 471.10 378.97, 469.92 379.06" style="stroke: black; fill: black;"/><path d="M 493.10,428.65 C 491.94 428.79, 491.54 429.32, 490.32 430.47 C 489.10 431.62, 488.30 432.31, 487.00 434.41 C 485.71 436.51, 485.23 438.24, 483.84 440.98 C 482.45 443.72, 481.69 445.43, 480.04 448.12 C 478.39 450.82, 477.07 452.10, 475.58 454.44 C 474.10 456.78, 473.23 457.97, 472.60 459.83 C 471.98 461.69, 471.94 462.60, 472.46 463.74 C 472.99 464.88, 473.87 465.46, 475.23 465.52 C 476.60 465.57, 477.74 465.38, 479.28 464.02 C 480.81 462.66, 481.32 461.30, 482.90 458.70 C 484.49 456.11, 485.05 454.11, 487.21 451.05 C 489.38 447.99, 490.89 446.30, 493.71 443.41 C 496.52 440.51, 498.26 438.96, 501.29 436.56 C 504.31 434.15, 506.05 433.02, 508.83 431.38 C 511.61 429.75, 513.12 429.33, 515.20 428.39 C 517.27 427.46, 518.08 427.03, 519.21 426.72 C 520.34 426.40, 520.56 426.41, 520.85 426.81 C 521.14 427.21, 520.94 427.55, 520.65 428.72 C 520.37 429.88, 520.06 430.70, 519.44 432.63 C 518.82 434.55, 518.47 435.92, 517.56 438.34 C 516.65 440.76, 515.98 442.25, 514.90 444.73 C 513.82 447.20, 512.92 448.54, 512.15 450.71 C 511.38 452.89, 510.92 453.96, 511.06 455.62 C 511.21 457.27, 511.70 458.17, 512.88 459.00 C 514.07 459.82, 515.14 460.16, 516.97 459.74 C 518.80 459.32, 520.00 458.82, 522.01 456.90 C 524.02 454.99, 524.60 452.92, 527.02 450.16 C 529.43 447.40, 531.03 445.72, 534.10 443.09 C 537.17 440.46, 539.08 439.06, 542.37 437.00 C 545.66 434.93, 547.59 434.01, 550.55 432.75 C 553.51 431.49, 555.04 431.29, 557.18 430.70 C 559.32 430.10, 560.14 429.84, 561.26 429.78 C 562.37 429.72, 562.58 429.79, 562.77 430.38 C 562.96 430.97, 562.68 431.37, 562.21 432.73 C 561.73 434.10, 561.23 435.04, 560.39 437.20 C 559.55 439.37, 559.18 440.93, 558.01 443.56 C 556.85 446.19, 555.80 447.65, 554.56 450.36 C 553.33 453.07, 552.34 454.67, 551.84 457.09 C 551.34 459.52, 551.48 461.20, 552.07 462.47 C 552.67 463.75, 553.58 463.96, 554.82 463.49 C 556.06 463.01, 556.78 461.93, 558.27 460.12 C 559.76 458.31, 560.72 457.01, 562.28 454.45 C 563.84 451.88, 564.65 450.19, 566.06 447.30 C 567.46 444.41, 568.55 442.87, 569.30 439.99 C 570.04 437.10, 570.17 435.44, 569.77 432.88 C 569.37 430.31, 568.78 428.95, 567.29 427.17 C 565.79 425.39, 564.64 424.68, 562.30 423.99 C 559.97 423.30, 558.49 423.17, 555.59 423.72 C 552.69 424.28, 551.10 425.15, 547.80 426.77 C 544.50 428.38, 542.62 429.55, 539.08 431.80 C 535.54 434.05, 533.58 435.50, 530.11 438.03 C 526.64 440.56, 524.80 442.10, 521.72 444.44 C 518.63 446.79, 516.58 447.65, 514.67 449.75 C 512.76 451.86, 512.45 453.28, 512.18 454.96 C 511.91 456.65, 512.48 457.52, 513.32 458.16 C 514.17 458.81, 515.11 458.89, 516.40 458.20 C 517.68 457.51, 518.37 456.59, 519.75 454.70 C 521.12 452.81, 521.89 451.35, 523.25 448.74 C 524.61 446.13, 525.51 444.53, 526.55 441.64 C 527.59 438.74, 528.21 437.08, 528.45 434.28 C 528.70 431.47, 528.60 429.93, 527.78 427.62 C 526.97 425.32, 526.13 424.14, 524.38 422.76 C 522.63 421.38, 521.42 420.94, 519.04 420.73 C 516.66 420.51, 515.23 420.66, 512.48 421.67 C 509.74 422.69, 508.31 423.77, 505.30 425.80 C 502.29 427.83, 500.64 429.19, 497.45 431.82 C 494.26 434.45, 492.49 436.04, 489.36 438.96 C 486.23 441.89, 484.64 443.59, 481.78 446.42 C 478.92 449.26, 477.14 450.58, 475.07 453.14 C 473.00 455.71, 472.02 457.08, 471.41 459.24 C 470.81 461.40, 471.28 462.64, 472.03 463.95 C 472.78 465.26, 473.78 465.76, 475.15 465.79 C 476.52 465.82, 477.36 465.40, 478.89 464.09 C 480.41 462.78, 481.17 461.56, 482.78 459.24 C 484.40 456.92, 485.19 455.25, 486.97 452.50 C 488.76 449.74, 489.96 448.19, 491.69 445.47 C 493.43 442.75, 494.60 441.30, 495.64 438.89 C 496.69 436.47, 496.81 435.21, 496.91 433.39 C 497.01 431.56, 496.89 430.71, 496.13 429.76 C 495.37 428.81, 494.26 428.51, 493.10 428.65" style="stroke: black; fill: black;"/><path d="M 629.15,431.46 C 629.36 430.30, 629.09 429.51, 628.16 428.43 C 627.22 427.35, 626.38 426.68, 624.46 426.06 C 622.55 425.45, 621.13 425.21, 618.57 425.35 C 616.00 425.50, 614.51 425.74, 611.63 426.79 C 608.76 427.84, 607.27 428.81, 604.21 430.59 C 601.15 432.37, 599.41 433.48, 596.34 435.70 C 593.27 437.93, 591.61 439.29, 588.85 441.73 C 586.10 444.18, 584.53 445.38, 582.59 447.93 C 580.65 450.49, 579.90 451.94, 579.16 454.51 C 578.42 457.08, 578.35 458.50, 578.88 460.80 C 579.42 463.09, 580.12 464.32, 581.83 465.97 C 583.55 467.62, 584.87 468.34, 587.46 469.03 C 590.05 469.72, 591.72 469.88, 594.80 469.41 C 597.88 468.95, 599.55 468.09, 602.85 466.72 C 606.14 465.34, 607.92 464.46, 611.29 462.55 C 614.66 460.63, 616.45 459.45, 619.69 457.15 C 622.92 454.86, 624.57 453.48, 627.46 451.05 C 630.36 448.62, 631.89 447.36, 634.17 445.01 C 636.45 442.65, 637.76 441.49, 638.85 439.30 C 639.94 437.11, 640.14 435.63, 639.61 434.06 C 639.08 432.48, 637.95 431.64, 636.22 431.42 C 634.48 431.21, 632.93 431.58, 630.93 432.99 C 628.93 434.41, 627.91 435.89, 626.22 438.52 C 624.53 441.14, 623.88 443.15, 622.49 446.10 C 621.09 449.05, 620.15 450.56, 619.24 453.28 C 618.33 456.00, 618.11 457.38, 617.94 459.69 C 617.78 462.00, 617.88 463.13, 618.41 464.82 C 618.94 466.52, 619.64 467.37, 620.60 468.15 C 621.56 468.94, 622.37 469.02, 623.22 468.74 C 624.06 468.46, 624.51 467.47, 624.81 466.76 C 625.11 466.05, 624.79 465.80, 624.73 465.17 C 624.67 464.54, 624.48 464.45, 624.50 463.60 C 624.52 462.74, 624.33 462.32, 624.82 460.90 C 625.31 459.48, 625.85 458.59, 626.95 456.50 C 628.05 454.42, 628.69 452.92, 630.31 450.49 C 631.94 448.06, 633.50 446.70, 635.08 444.35 C 636.67 441.99, 637.57 440.70, 638.24 438.70 C 638.91 436.71, 638.85 435.55, 638.42 434.36 C 637.99 433.17, 637.24 432.63, 636.08 432.74 C 634.93 432.86, 634.11 433.48, 632.63 434.94 C 631.16 436.40, 630.62 437.80, 628.72 440.03 C 626.81 442.26, 625.65 443.74, 623.10 446.10 C 620.56 448.46, 618.97 449.77, 615.97 451.84 C 612.97 453.91, 611.23 454.95, 608.09 456.45 C 604.95 457.95, 603.20 458.54, 600.27 459.35 C 597.34 460.15, 595.79 460.12, 593.47 460.46 C 591.14 460.81, 590.18 460.97, 588.63 461.06 C 587.07 461.14, 586.51 461.14, 585.70 460.87 C 584.90 460.61, 584.65 460.50, 584.61 459.73 C 584.58 458.95, 584.72 458.40, 585.53 457.00 C 586.34 455.59, 587.05 454.70, 588.68 452.70 C 590.30 450.70, 591.31 449.22, 593.67 447.00 C 596.02 444.79, 597.62 443.49, 600.45 441.62 C 603.29 439.75, 605.01 438.86, 607.82 437.64 C 610.63 436.42, 612.21 436.14, 614.50 435.50 C 616.78 434.85, 617.64 434.57, 619.23 434.41 C 620.83 434.25, 621.36 434.62, 622.47 434.70 C 623.58 434.79, 623.85 434.91, 624.78 434.82 C 625.71 434.73, 626.24 434.91, 627.12 434.24 C 627.99 433.56, 628.95 432.62, 629.15 431.46" style="stroke: black; fill: black;"/><path d="M 666.90,431.34 C 665.77 431.27, 665.31 431.57, 664.00 432.45 C 662.70 433.33, 661.84 433.94, 660.35 435.74 C 658.87 437.55, 658.12 439.04, 656.59 441.46 C 655.06 443.89, 654.17 445.44, 652.70 447.87 C 651.23 450.31, 650.24 451.55, 649.22 453.65 C 648.21 455.75, 647.64 456.78, 647.61 458.37 C 647.57 459.96, 648.01 460.82, 649.03 461.61 C 650.06 462.40, 651.14 462.71, 652.75 462.32 C 654.37 461.92, 655.44 461.42, 657.13 459.63 C 658.81 457.84, 659.20 456.06, 661.17 453.38 C 663.13 450.71, 664.31 448.97, 666.96 446.26 C 669.60 443.55, 671.34 442.10, 674.39 439.83 C 677.43 437.55, 679.24 436.42, 682.19 434.90 C 685.14 433.37, 686.80 433.05, 689.13 432.19 C 691.46 431.34, 692.43 430.93, 693.83 430.64 C 695.24 430.35, 695.64 430.37, 696.16 430.74 C 696.68 431.11, 696.58 431.39, 696.44 432.48 C 696.29 433.56, 695.99 434.31, 695.42 436.17 C 694.85 438.03, 694.45 439.30, 693.60 441.77 C 692.76 444.25, 692.23 445.87, 691.21 448.55 C 690.18 451.22, 689.39 452.69, 688.48 455.14 C 687.57 457.59, 687.01 458.79, 686.67 460.78 C 686.33 462.78, 686.50 463.79, 686.77 465.10 C 687.03 466.41, 687.35 466.85, 688.00 467.33 C 688.64 467.82, 689.29 467.75, 690.00 467.51 C 690.71 467.26, 690.82 466.94, 691.54 466.11 C 692.25 465.28, 692.62 464.86, 693.58 463.36 C 694.54 461.86, 695.17 460.87, 696.34 458.60 C 697.51 456.32, 698.17 454.74, 699.42 451.98 C 700.67 449.21, 701.64 447.67, 702.59 444.76 C 703.53 441.84, 704.06 440.19, 704.15 437.41 C 704.25 434.63, 704.02 433.10, 703.06 430.86 C 702.10 428.63, 701.23 427.55, 699.37 426.22 C 697.50 424.90, 696.28 424.46, 693.74 424.23 C 691.20 424.00, 689.62 424.09, 686.66 425.07 C 683.70 426.05, 682.16 427.20, 678.95 429.13 C 675.74 431.05, 673.94 432.28, 670.61 434.70 C 667.29 437.11, 665.48 438.60, 662.33 441.20 C 659.17 443.80, 657.47 445.27, 654.85 447.70 C 652.22 450.13, 650.62 451.22, 649.20 453.37 C 647.77 455.52, 647.67 456.81, 647.72 458.44 C 647.78 460.06, 648.48 460.89, 649.48 461.52 C 650.47 462.14, 651.35 462.17, 652.70 461.54 C 654.04 460.91, 654.66 460.05, 656.20 458.37 C 657.74 456.69, 658.64 455.41, 660.39 453.14 C 662.15 450.87, 663.30 449.42, 664.97 447.00 C 666.64 444.59, 667.70 443.25, 668.74 441.06 C 669.78 438.88, 670.01 437.74, 670.19 436.09 C 670.37 434.44, 670.30 433.76, 669.64 432.81 C 668.98 431.86, 668.02 431.41, 666.90 431.34" style="stroke: black; fill: black;"/><path d="M 755.30,379.36 C 754.09 379.36, 753.50 379.75, 752.18 380.80 C 750.85 381.85, 750.01 382.71, 748.66 384.61 C 747.32 386.51, 746.62 387.89, 745.44 390.29 C 744.25 392.70, 743.61 394.24, 742.72 396.63 C 741.83 399.02, 741.35 400.28, 740.98 402.25 C 740.62 404.22, 740.69 405.13, 740.89 406.47 C 741.08 407.81, 741.33 408.39, 741.97 408.96 C 742.62 409.52, 743.35 409.52, 744.12 409.31 C 744.89 409.09, 745.03 408.70, 745.84 407.87 C 746.65 407.05, 747.15 406.63, 748.18 405.18 C 749.20 403.73, 749.73 402.64, 750.97 400.61 C 752.21 398.58, 753.11 397.27, 754.38 395.03 C 755.65 392.79, 756.44 391.55, 757.33 389.42 C 758.22 387.29, 758.64 386.11, 758.81 384.38 C 758.99 382.66, 758.89 381.80, 758.18 380.80 C 757.48 379.79, 756.50 379.36, 755.30 379.36" style="stroke: black; fill: black;"/><path d="M 807.03,417.52 C 806.64 416.44, 806.15 415.89, 804.67 415.22 C 803.20 414.55, 802.04 414.16, 799.66 414.19 C 797.28 414.21, 795.62 414.46, 792.77 415.33 C 789.93 416.20, 788.38 417.22, 785.43 418.53 C 782.49 419.85, 780.74 420.38, 778.06 421.90 C 775.37 423.43, 773.94 424.29, 772.02 426.16 C 770.10 428.03, 769.29 429.12, 768.45 431.25 C 767.62 433.37, 767.49 434.63, 767.85 436.80 C 768.22 438.96, 768.80 440.17, 770.28 442.08 C 771.76 443.99, 772.94 444.87, 775.25 446.33 C 777.55 447.80, 779.13 448.30, 781.80 449.39 C 784.47 450.48, 786.07 450.90, 788.60 451.79 C 791.12 452.69, 792.47 453.18, 794.44 453.86 C 796.40 454.55, 797.32 454.89, 798.43 455.21 C 799.55 455.53, 799.87 455.46, 800.00 455.45 C 800.14 455.43, 799.95 455.13, 799.11 455.13 C 798.27 455.13, 797.56 455.10, 795.81 455.46 C 794.06 455.83, 792.83 456.18, 790.36 456.96 C 787.90 457.75, 786.39 458.57, 783.48 459.39 C 780.57 460.21, 778.80 460.54, 775.81 461.05 C 772.82 461.57, 771.15 461.60, 768.52 461.97 C 765.89 462.34, 764.62 462.56, 762.65 462.91 C 760.67 463.25, 759.83 463.34, 758.64 463.70 C 757.45 464.06, 757.21 464.19, 756.69 464.71 C 756.18 465.22, 756.20 465.42, 756.08 466.26 C 755.96 467.11, 756.11 467.88, 756.10 468.94 C 756.09 470.01, 755.87 471.51, 756.03 471.60 C 756.19 471.70, 756.46 470.83, 756.90 469.41 C 757.35 467.99, 758.07 465.99, 758.25 464.49 C 758.43 463.00, 758.19 461.95, 757.82 461.94 C 757.45 461.94, 756.79 463.43, 756.40 464.47 C 756.01 465.51, 755.85 466.27, 755.87 467.15 C 755.89 468.03, 755.92 468.30, 756.49 468.87 C 757.07 469.44, 757.40 469.67, 758.74 469.99 C 760.08 470.30, 761.03 470.41, 763.18 470.46 C 765.34 470.51, 766.74 470.54, 769.53 470.25 C 772.32 469.95, 773.98 469.51, 777.13 469.01 C 780.28 468.50, 782.08 468.22, 785.29 467.71 C 788.50 467.19, 790.34 467.23, 793.18 466.44 C 796.03 465.64, 797.46 465.08, 799.54 463.72 C 801.61 462.37, 802.53 461.47, 803.54 459.66 C 804.56 457.84, 804.80 456.57, 804.61 454.65 C 804.42 452.73, 803.88 451.69, 802.57 450.06 C 801.27 448.43, 800.17 447.83, 798.07 446.51 C 795.96 445.18, 794.57 444.62, 792.07 443.43 C 789.56 442.24, 788.02 441.62, 785.54 440.54 C 783.06 439.46, 781.70 438.88, 779.68 438.03 C 777.66 437.18, 776.71 436.84, 775.44 436.29 C 774.17 435.75, 773.67 435.73, 773.33 435.32 C 773.00 434.90, 773.08 434.81, 773.77 434.21 C 774.46 433.60, 775.12 433.20, 776.78 432.29 C 778.44 431.38, 779.69 430.75, 782.08 429.65 C 784.46 428.54, 786.03 427.69, 788.71 426.76 C 791.39 425.83, 793.03 425.62, 795.47 425.01 C 797.92 424.41, 799.12 424.27, 800.93 423.73 C 802.75 423.19, 803.42 422.94, 804.55 422.32 C 805.69 421.70, 806.12 421.57, 806.61 420.61 C 807.11 419.65, 807.41 418.60, 807.03 417.52" style="stroke: black; fill: black;"/><path d="M 965.86,385.00 C 964.70 385.44, 964.25 386.17, 963.24 387.86 C 962.23 389.56, 961.70 390.62, 960.83 393.46 C 959.95 396.30, 959.95 398.36, 958.88 402.07 C 957.81 405.78, 957.10 407.91, 955.48 412.00 C 953.87 416.09, 952.81 418.29, 950.81 422.54 C 948.81 426.78, 947.65 429.05, 945.49 433.21 C 943.33 437.38, 942.15 439.53, 940.02 443.36 C 937.89 447.19, 936.80 449.13, 934.83 452.37 C 932.86 455.61, 931.66 457.02, 930.16 459.56 C 928.67 462.10, 928.05 463.24, 927.36 465.06 C 926.67 466.89, 926.77 467.59, 926.71 468.68 C 926.65 469.78, 926.72 470.01, 927.07 470.54 C 927.41 471.08, 927.79 471.31, 928.43 471.35 C 929.07 471.39, 929.31 471.35, 930.25 470.75 C 931.18 470.14, 931.86 469.87, 933.09 468.33 C 934.32 466.79, 935.01 465.66, 936.39 463.03 C 937.77 460.40, 938.34 458.61, 940.00 455.18 C 941.66 451.74, 942.69 449.78, 944.69 445.85 C 946.69 441.93, 947.86 439.76, 950.02 435.55 C 952.19 431.35, 953.36 429.08, 955.51 424.84 C 957.66 420.59, 958.80 418.41, 960.79 414.34 C 962.77 410.27, 963.76 408.16, 965.44 404.51 C 967.11 400.86, 968.19 399.04, 969.15 396.07 C 970.10 393.11, 970.21 391.76, 970.19 389.68 C 970.17 387.60, 969.91 386.62, 969.04 385.69 C 968.18 384.75, 967.02 384.57, 965.86 385.00" style="stroke: black; fill: black;"/><path d="M 955.78,377.95 C 956.94 378.01, 957.33 377.37, 958.70 376.60 C 960.07 375.84, 960.73 375.48, 962.63 374.14 C 964.54 372.79, 965.41 371.39, 968.21 369.87 C 971.02 368.34, 972.93 367.53, 976.66 366.51 C 980.38 365.50, 982.72 365.11, 986.85 364.79 C 990.99 364.47, 993.37 364.47, 997.34 364.92 C 1001.31 365.37, 1003.45 365.88, 1006.71 367.05 C 1009.98 368.22, 1011.49 369.16, 1013.67 370.77 C 1015.84 372.38, 1016.59 373.30, 1017.59 375.09 C 1018.58 376.88, 1018.74 377.64, 1018.65 379.73 C 1018.56 381.82, 1018.38 382.94, 1017.13 385.55 C 1015.88 388.17, 1014.92 389.81, 1012.40 392.80 C 1009.87 395.80, 1008.13 397.52, 1004.52 400.53 C 1000.91 403.54, 998.61 405.14, 994.33 407.87 C 990.05 410.59, 987.53 411.95, 983.13 414.16 C 978.72 416.37, 976.32 417.40, 972.29 418.93 C 968.27 420.46, 966.13 420.80, 962.99 421.83 C 959.86 422.86, 958.51 423.17, 956.61 424.08 C 954.71 424.98, 954.02 425.47, 953.48 426.35 C 952.95 427.23, 953.04 427.90, 953.93 428.48 C 954.82 429.06, 955.71 429.38, 957.92 429.25 C 960.13 429.11, 961.69 428.89, 964.97 427.80 C 968.25 426.70, 970.25 425.62, 974.32 423.75 C 978.39 421.89, 980.81 420.81, 985.33 418.46 C 989.84 416.11, 992.42 414.76, 996.91 412.00 C 1001.41 409.24, 1003.82 407.69, 1007.80 404.66 C 1011.79 401.62, 1013.77 400.02, 1016.84 396.81 C 1019.91 393.60, 1021.39 391.97, 1023.16 388.60 C 1024.94 385.23, 1025.62 383.32, 1025.70 379.94 C 1025.77 376.57, 1025.17 374.64, 1023.53 371.74 C 1021.88 368.85, 1020.44 367.52, 1017.46 365.45 C 1014.48 363.38, 1012.51 362.63, 1008.61 361.40 C 1004.71 360.16, 1002.38 359.76, 997.96 359.28 C 993.54 358.81, 991.04 358.83, 986.51 359.03 C 981.97 359.23, 979.55 359.53, 975.28 360.29 C 971.00 361.04, 968.76 361.52, 965.13 362.81 C 961.50 364.10, 959.50 364.88, 957.11 366.73 C 954.73 368.57, 954.03 370.14, 953.19 372.05 C 952.35 373.97, 952.39 375.12, 952.91 376.30 C 953.43 377.48, 954.62 377.89, 955.78 377.95" style="stroke: black; fill: black;"/><path d="M 1024.35,439.65 C 1023.24 439.82, 1022.94 440.26, 1021.89 441.26 C 1020.85 442.26, 1020.28 442.90, 1019.10 444.65 C 1017.93 446.40, 1017.32 447.71, 1016.03 450.01 C 1014.73 452.31, 1014.04 453.77, 1012.65 456.14 C 1011.26 458.51, 1010.30 459.80, 1009.07 461.86 C 1007.84 463.93, 1006.96 464.87, 1006.50 466.49 C 1006.03 468.10, 1006.13 468.99, 1006.76 469.95 C 1007.40 470.92, 1008.34 471.40, 1009.67 471.32 C 1011.01 471.23, 1012.00 470.91, 1013.44 469.51 C 1014.89 468.12, 1015.40 466.83, 1016.90 464.36 C 1018.39 461.89, 1018.89 459.99, 1020.93 457.17 C 1022.97 454.34, 1024.38 452.80, 1027.08 450.22 C 1029.77 447.65, 1031.44 446.34, 1034.39 444.29 C 1037.35 442.23, 1039.00 441.30, 1041.85 439.95 C 1044.71 438.59, 1046.23 438.26, 1048.67 437.52 C 1051.11 436.78, 1052.11 436.52, 1054.05 436.24 C 1055.99 435.97, 1056.97 436.16, 1058.38 436.15 C 1059.79 436.13, 1060.25 436.20, 1061.11 436.18 C 1061.97 436.15, 1062.09 436.14, 1062.68 436.04 C 1063.27 435.94, 1063.51 436.16, 1064.06 435.69 C 1064.60 435.23, 1065.28 434.47, 1065.41 433.72 C 1065.54 432.97, 1065.26 432.62, 1064.71 431.95 C 1064.15 431.28, 1063.77 430.93, 1062.62 430.39 C 1061.47 429.84, 1060.83 429.51, 1058.95 429.23 C 1057.08 428.94, 1055.77 428.74, 1053.24 428.96 C 1050.71 429.19, 1049.22 429.34, 1046.32 430.34 C 1043.43 431.35, 1041.88 432.23, 1038.76 433.98 C 1035.64 435.72, 1033.94 436.79, 1030.73 439.06 C 1027.51 441.34, 1025.77 442.72, 1022.68 445.36 C 1019.60 447.99, 1018.08 449.59, 1015.31 452.25 C 1012.55 454.91, 1010.87 456.17, 1008.85 458.66 C 1006.84 461.14, 1005.89 462.50, 1005.24 464.67 C 1004.58 466.85, 1004.90 468.08, 1005.57 469.52 C 1006.23 470.95, 1007.22 471.58, 1008.58 471.86 C 1009.93 472.14, 1010.83 471.91, 1012.34 470.92 C 1013.86 469.93, 1014.54 468.85, 1016.16 466.92 C 1017.78 464.99, 1018.72 463.62, 1020.44 461.27 C 1022.16 458.91, 1023.28 457.59, 1024.77 455.12 C 1026.27 452.65, 1027.12 451.21, 1027.91 448.92 C 1028.70 446.63, 1028.80 445.37, 1028.71 443.67 C 1028.62 441.96, 1028.31 441.20, 1027.44 440.39 C 1026.57 439.59, 1025.45 439.47, 1024.35 439.65" style="stroke: black; fill: black;"/><path d="M 1106.17,441.58 C 1106.10 440.41, 1105.71 439.78, 1104.43 438.85 C 1103.16 437.91, 1102.14 437.16, 1099.80 436.89 C 1097.46 436.62, 1095.62 436.61, 1092.73 437.51 C 1089.84 438.40, 1088.36 439.54, 1085.37 441.35 C 1082.38 443.16, 1080.71 444.34, 1077.78 446.55 C 1074.84 448.76, 1073.12 449.95, 1070.71 452.42 C 1068.29 454.88, 1066.99 456.24, 1065.71 458.89 C 1064.44 461.54, 1064.15 463.12, 1064.34 465.65 C 1064.53 468.19, 1065.07 469.59, 1066.68 471.57 C 1068.29 473.54, 1069.64 474.59, 1072.40 475.52 C 1075.16 476.46, 1077.03 476.50, 1080.48 476.25 C 1083.93 476.00, 1085.91 475.32, 1089.65 474.27 C 1093.39 473.21, 1095.48 472.51, 1099.17 470.97 C 1102.87 469.43, 1104.83 468.49, 1108.12 466.57 C 1111.42 464.64, 1113.14 463.62, 1115.65 461.33 C 1118.17 459.04, 1119.30 457.69, 1120.68 455.10 C 1122.07 452.51, 1122.40 450.96, 1122.57 448.38 C 1122.74 445.81, 1122.41 444.42, 1121.53 442.21 C 1120.65 440.01, 1119.74 438.83, 1118.16 437.36 C 1116.58 435.89, 1115.29 435.32, 1113.62 434.86 C 1111.96 434.40, 1111.02 434.68, 1109.82 435.05 C 1108.63 435.41, 1108.09 435.87, 1107.66 436.70 C 1107.24 437.52, 1107.43 438.36, 1107.70 439.18 C 1107.96 440.00, 1108.39 440.16, 1108.99 440.79 C 1109.58 441.41, 1109.82 441.79, 1110.67 442.32 C 1111.52 442.86, 1112.32 442.90, 1113.23 443.45 C 1114.15 444.00, 1114.74 444.21, 1115.27 445.08 C 1115.79 445.95, 1116.03 446.51, 1115.86 447.80 C 1115.70 449.10, 1115.47 449.91, 1114.44 451.56 C 1113.42 453.21, 1112.70 454.20, 1110.75 456.06 C 1108.80 457.92, 1107.50 459.11, 1104.68 460.85 C 1101.87 462.60, 1100.04 463.51, 1096.70 464.79 C 1093.36 466.06, 1091.32 466.60, 1087.99 467.22 C 1084.65 467.84, 1082.78 467.78, 1080.02 467.87 C 1077.27 467.96, 1076.05 467.79, 1074.23 467.66 C 1072.41 467.53, 1071.74 467.60, 1070.94 467.21 C 1070.14 466.83, 1069.99 466.64, 1070.23 465.73 C 1070.47 464.82, 1070.94 464.22, 1072.14 462.65 C 1073.33 461.08, 1074.17 459.87, 1076.19 457.89 C 1078.22 455.91, 1079.64 454.57, 1082.27 452.74 C 1084.90 450.92, 1086.72 449.99, 1089.36 448.77 C 1092.01 447.55, 1093.42 447.24, 1095.49 446.64 C 1097.55 446.03, 1098.30 445.98, 1099.67 445.76 C 1101.04 445.55, 1101.30 445.78, 1102.33 445.57 C 1103.35 445.35, 1104.04 445.48, 1104.81 444.68 C 1105.58 443.89, 1106.25 442.75, 1106.17 441.58" style="stroke: black; fill: black;"/><path d="M 1164.21,440.13 C 1163.15 440.16, 1162.76 440.35, 1161.58 441.41 C 1160.41 442.46, 1159.41 443.09, 1158.34 445.41 C 1157.26 447.74, 1157.22 449.65, 1156.20 453.04 C 1155.18 456.43, 1154.61 458.48, 1153.24 462.37 C 1151.86 466.26, 1150.98 468.46, 1149.31 472.50 C 1147.63 476.53, 1146.68 478.66, 1144.87 482.57 C 1143.07 486.47, 1142.12 488.47, 1140.27 492.00 C 1138.42 495.54, 1137.48 497.30, 1135.64 500.24 C 1133.80 503.19, 1132.71 504.46, 1131.07 506.73 C 1129.43 509.00, 1128.73 510.04, 1127.46 511.61 C 1126.19 513.18, 1125.64 513.76, 1124.72 514.57 C 1123.79 515.38, 1123.43 515.49, 1122.85 515.66 C 1122.26 515.83, 1122.14 515.49, 1121.79 515.43 C 1121.43 515.37, 1121.49 515.31, 1121.05 515.35 C 1120.61 515.40, 1120.33 515.22, 1119.60 515.66 C 1118.87 516.11, 1117.79 516.75, 1117.42 517.60 C 1117.05 518.45, 1117.18 519.13, 1117.75 519.91 C 1118.32 520.68, 1118.99 521.14, 1120.27 521.49 C 1121.55 521.84, 1122.51 521.97, 1124.15 521.66 C 1125.80 521.34, 1126.77 520.98, 1128.50 519.91 C 1130.23 518.84, 1131.09 518.13, 1132.80 516.31 C 1134.51 514.48, 1135.40 513.37, 1137.06 510.77 C 1138.71 508.18, 1139.41 506.56, 1141.08 503.31 C 1142.74 500.07, 1143.61 498.24, 1145.37 494.55 C 1147.13 490.87, 1148.05 488.84, 1149.88 484.89 C 1151.72 480.94, 1152.68 478.80, 1154.54 474.79 C 1156.40 470.79, 1157.35 468.61, 1159.18 464.86 C 1161.00 461.12, 1162.03 459.22, 1163.66 456.06 C 1165.29 452.89, 1166.50 451.46, 1167.34 449.05 C 1168.18 446.64, 1167.93 445.56, 1167.84 444.00 C 1167.75 442.44, 1167.62 442.02, 1166.89 441.24 C 1166.16 440.47, 1165.27 440.10, 1164.21 440.13" style="stroke: black; fill: black;"/><path d="M 1169.84,405.98 C 1170.48 407.03, 1170.95 407.56, 1171.14 407.42 C 1171.34 407.28, 1171.14 406.43, 1170.83 405.29 C 1170.52 404.15, 1170.16 402.78, 1169.59 401.73 C 1169.03 400.68, 1168.32 399.96, 1167.99 400.05 C 1167.65 400.14, 1167.54 400.99, 1167.91 402.18 C 1168.29 403.37, 1169.19 404.94, 1169.84 405.98" style="stroke: black; fill: black;"/><path d="M 1195.55,449.71 C 1196.34 450.62, 1197.08 450.90, 1198.82 451.12 C 1200.56 451.35, 1201.79 451.38, 1204.24 450.86 C 1206.70 450.33, 1208.26 449.61, 1211.10 448.49 C 1213.95 447.36, 1215.55 446.46, 1218.47 445.22 C 1221.39 443.99, 1223.07 443.56, 1225.71 442.32 C 1228.34 441.07, 1229.68 440.41, 1231.64 438.98 C 1233.59 437.55, 1234.53 436.85, 1235.46 435.15 C 1236.40 433.46, 1236.68 432.31, 1236.31 430.50 C 1235.95 428.70, 1235.38 427.43, 1233.64 426.13 C 1231.90 424.82, 1230.47 424.07, 1227.61 423.97 C 1224.75 423.88, 1222.90 424.56, 1219.34 425.66 C 1215.79 426.75, 1213.75 427.69, 1209.83 429.46 C 1205.91 431.22, 1203.63 432.33, 1199.74 434.48 C 1195.85 436.63, 1193.74 437.87, 1190.38 440.22 C 1187.02 442.56, 1185.23 443.67, 1182.93 446.21 C 1180.62 448.74, 1179.70 450.20, 1178.86 452.89 C 1178.02 455.58, 1178.03 457.13, 1178.72 459.67 C 1179.41 462.21, 1180.21 463.65, 1182.31 465.61 C 1184.41 467.57, 1185.94 468.46, 1189.21 469.47 C 1192.49 470.47, 1194.56 470.39, 1198.67 470.65 C 1202.78 470.90, 1205.12 470.87, 1209.78 470.73 C 1214.43 470.59, 1217.39 470.33, 1221.93 469.94 C 1226.47 469.55, 1229.00 469.50, 1232.48 468.78 C 1235.96 468.05, 1238.04 467.38, 1239.32 466.31 C 1240.59 465.24, 1240.37 464.05, 1238.86 463.41 C 1237.36 462.77, 1235.26 462.98, 1231.78 463.12 C 1228.29 463.26, 1225.87 463.77, 1221.45 464.11 C 1217.04 464.45, 1214.11 464.84, 1209.70 464.82 C 1205.29 464.80, 1203.01 464.61, 1199.40 464.01 C 1195.79 463.41, 1194.16 462.66, 1191.63 461.83 C 1189.10 460.99, 1188.20 460.64, 1186.74 459.86 C 1185.28 459.07, 1184.74 458.85, 1184.34 457.91 C 1183.93 456.97, 1184.00 456.55, 1184.73 455.14 C 1185.46 453.73, 1186.13 452.85, 1187.99 450.86 C 1189.84 448.87, 1191.07 447.41, 1193.99 445.20 C 1196.92 442.98, 1198.95 441.71, 1202.60 439.79 C 1206.25 437.87, 1208.54 436.83, 1212.25 435.58 C 1215.96 434.34, 1218.05 433.99, 1221.17 433.55 C 1224.29 433.10, 1225.78 433.57, 1227.85 433.34 C 1229.92 433.12, 1230.59 432.84, 1231.53 432.44 C 1232.46 432.03, 1232.55 431.58, 1232.51 431.31 C 1232.47 431.03, 1232.25 430.87, 1231.32 431.06 C 1230.39 431.24, 1229.69 431.57, 1227.87 432.25 C 1226.05 432.94, 1224.72 433.44, 1222.22 434.46 C 1219.73 435.49, 1218.24 436.36, 1215.40 437.38 C 1212.56 438.40, 1210.83 438.74, 1208.03 439.56 C 1205.22 440.38, 1203.58 440.58, 1201.37 441.49 C 1199.16 442.39, 1198.27 443.07, 1196.98 444.09 C 1195.68 445.12, 1195.19 445.48, 1194.91 446.61 C 1194.63 447.73, 1194.77 448.81, 1195.55 449.71" style="stroke: black; fill: black;"/><path d="M 1302.37,432.41 C 1302.32 431.23, 1301.91 430.47, 1300.65 429.51 C 1299.39 428.56, 1298.34 427.96, 1296.06 427.64 C 1293.79 427.31, 1292.16 427.21, 1289.29 427.88 C 1286.42 428.55, 1284.88 429.47, 1281.72 431.00 C 1278.56 432.52, 1276.80 433.52, 1273.49 435.48 C 1270.17 437.45, 1268.29 438.58, 1265.14 440.84 C 1261.99 443.09, 1260.22 444.28, 1257.74 446.75 C 1255.27 449.22, 1254.01 450.55, 1252.76 453.20 C 1251.51 455.85, 1251.21 457.42, 1251.49 460.02 C 1251.77 462.62, 1252.35 464.11, 1254.16 466.20 C 1255.97 468.28, 1257.42 469.48, 1260.55 470.44 C 1263.67 471.40, 1265.74 471.09, 1269.78 471.01 C 1273.82 470.92, 1276.20 470.63, 1280.76 470.00 C 1285.32 469.36, 1287.91 468.85, 1292.59 467.81 C 1297.26 466.77, 1299.75 466.10, 1304.15 464.78 C 1308.55 463.46, 1310.78 462.70, 1314.58 461.23 C 1318.39 459.76, 1320.41 459.05, 1323.16 457.42 C 1325.92 455.80, 1326.95 454.70, 1328.37 453.10 C 1329.78 451.50, 1330.17 450.51, 1330.24 449.42 C 1330.31 448.33, 1329.75 447.79, 1328.72 447.64 C 1327.70 447.49, 1326.92 447.90, 1325.11 448.66 C 1323.31 449.41, 1322.26 449.97, 1319.70 451.43 C 1317.13 452.88, 1315.71 454.26, 1312.29 455.91 C 1308.86 457.56, 1306.74 458.36, 1302.58 459.68 C 1298.42 461.00, 1295.96 461.63, 1291.47 462.52 C 1286.98 463.40, 1284.43 463.79, 1280.13 464.08 C 1275.84 464.38, 1273.49 464.34, 1270.01 464.00 C 1266.54 463.66, 1265.06 462.91, 1262.75 462.38 C 1260.45 461.86, 1259.59 461.91, 1258.49 461.38 C 1257.39 460.84, 1257.15 460.65, 1257.24 459.71 C 1257.33 458.77, 1257.80 458.23, 1258.93 456.67 C 1260.05 455.10, 1260.82 453.92, 1262.86 451.87 C 1264.91 449.81, 1266.33 448.43, 1269.14 446.40 C 1271.95 444.38, 1273.79 443.30, 1276.91 441.72 C 1280.04 440.15, 1281.92 439.46, 1284.78 438.55 C 1287.64 437.63, 1289.04 437.52, 1291.22 437.13 C 1293.41 436.75, 1294.23 436.81, 1295.70 436.63 C 1297.17 436.46, 1297.54 436.51, 1298.58 436.27 C 1299.61 436.02, 1300.12 436.16, 1300.88 435.39 C 1301.64 434.61, 1302.42 433.58, 1302.37 432.41" style="stroke: black; fill: black;"/><path d="M 1365.56,388.61 C 1364.48 388.57, 1364.06 388.75, 1362.76 389.76 C 1361.45 390.76, 1360.38 391.33, 1359.03 393.65 C 1357.68 395.96, 1357.46 397.90, 1356.00 401.34 C 1354.55 404.77, 1353.64 406.91, 1351.76 410.83 C 1349.87 414.75, 1348.67 416.92, 1346.58 420.93 C 1344.50 424.94, 1343.34 427.06, 1341.34 430.89 C 1339.34 434.71, 1338.35 436.64, 1336.60 440.06 C 1334.85 443.48, 1333.91 445.06, 1332.59 447.98 C 1331.26 450.90, 1330.56 452.26, 1329.95 454.65 C 1329.35 457.04, 1329.43 458.24, 1329.55 459.92 C 1329.68 461.60, 1329.91 462.33, 1330.58 463.03 C 1331.24 463.74, 1332.02 463.82, 1332.88 463.43 C 1333.73 463.04, 1334.05 462.42, 1334.84 461.09 C 1335.63 459.77, 1336.01 458.93, 1336.83 456.83 C 1337.64 454.72, 1337.89 453.42, 1338.92 450.57 C 1339.95 447.72, 1340.50 446.02, 1341.97 442.59 C 1343.44 439.15, 1344.36 437.21, 1346.26 433.41 C 1348.17 429.61, 1349.32 427.51, 1351.51 423.58 C 1353.70 419.66, 1354.96 417.50, 1357.21 413.78 C 1359.46 410.05, 1360.69 408.06, 1362.75 404.96 C 1364.80 401.85, 1366.28 400.64, 1367.49 398.25 C 1368.70 395.86, 1368.65 394.67, 1368.79 393.01 C 1368.92 391.36, 1368.81 390.84, 1368.16 389.96 C 1367.52 389.08, 1366.64 388.65, 1365.56 388.61" style="stroke: black; fill: black;"/><path d="M 1329.66,434.76 C 1330.47 435.63, 1331.16 435.74, 1332.96 436.05 C 1334.75 436.35, 1335.95 436.58, 1338.63 436.28 C 1341.30 435.98, 1343.00 435.11, 1346.34 434.55 C 1349.67 433.99, 1351.64 433.78, 1355.29 433.48 C 1358.94 433.18, 1361.20 433.26, 1364.58 433.04 C 1367.95 432.81, 1369.69 432.89, 1372.16 432.35 C 1374.64 431.82, 1376.00 431.31, 1376.95 430.36 C 1377.91 429.41, 1377.93 428.55, 1376.93 427.62 C 1375.93 426.69, 1374.50 426.10, 1371.96 425.72 C 1369.41 425.33, 1367.62 425.59, 1364.20 425.71 C 1360.78 425.83, 1358.56 426.17, 1354.85 426.33 C 1351.13 426.48, 1349.14 426.42, 1345.62 426.48 C 1342.09 426.53, 1340.06 426.10, 1337.23 426.59 C 1334.40 427.08, 1333.15 427.92, 1331.48 428.94 C 1329.81 429.97, 1329.25 430.55, 1328.89 431.72 C 1328.53 432.88, 1328.85 433.90, 1329.66 434.76" style="stroke: black; fill: black;"/><path d="M 1427.58,426.13 C 1427.29 424.97, 1426.76 424.28, 1425.23 423.43 C 1423.70 422.58, 1422.48 422.04, 1419.93 421.87 C 1417.38 421.69, 1415.61 421.86, 1412.47 422.56 C 1409.33 423.25, 1407.50 424.17, 1404.22 425.34 C 1400.94 426.52, 1399.08 427.05, 1396.09 428.42 C 1393.10 429.80, 1391.42 430.45, 1389.26 432.22 C 1387.10 434.00, 1386.21 435.14, 1385.29 437.29 C 1384.36 439.44, 1384.22 440.75, 1384.65 442.97 C 1385.08 445.19, 1385.76 446.45, 1387.44 448.37 C 1389.12 450.28, 1390.48 451.17, 1393.03 452.53 C 1395.59 453.90, 1397.37 454.17, 1400.24 455.21 C 1403.11 456.25, 1404.74 456.82, 1407.38 457.74 C 1410.02 458.66, 1411.42 459.14, 1413.43 459.82 C 1415.44 460.50, 1416.31 460.84, 1417.42 461.13 C 1418.53 461.42, 1418.84 461.35, 1418.97 461.27 C 1419.10 461.20, 1418.92 460.83, 1418.07 460.75 C 1417.21 460.66, 1416.51 460.56, 1414.71 460.84 C 1412.91 461.13, 1411.66 461.45, 1409.08 462.18 C 1406.49 462.91, 1404.92 463.70, 1401.79 464.49 C 1398.66 465.28, 1396.78 465.61, 1393.42 466.11 C 1390.06 466.62, 1388.16 466.78, 1384.98 467.01 C 1381.79 467.25, 1380.12 467.06, 1377.48 467.28 C 1374.83 467.50, 1373.54 467.64, 1371.73 468.10 C 1369.92 468.55, 1369.38 468.99, 1368.44 469.54 C 1367.50 470.10, 1367.31 470.28, 1367.02 470.88 C 1366.74 471.48, 1366.72 471.95, 1367.02 472.55 C 1367.32 473.15, 1367.52 473.37, 1368.52 473.89 C 1369.53 474.41, 1370.14 474.85, 1372.04 475.14 C 1373.94 475.43, 1375.29 475.49, 1378.02 475.34 C 1380.75 475.20, 1382.42 474.79, 1385.69 474.40 C 1388.97 474.01, 1390.89 473.78, 1394.38 473.37 C 1397.88 472.97, 1399.78 472.73, 1403.17 472.38 C 1406.56 472.02, 1408.39 472.19, 1411.34 471.59 C 1414.30 470.99, 1415.78 470.59, 1417.95 469.37 C 1420.12 468.14, 1421.10 467.24, 1422.17 465.48 C 1423.24 463.73, 1423.47 462.46, 1423.31 460.59 C 1423.16 458.71, 1422.68 457.73, 1421.40 456.13 C 1420.12 454.52, 1419.08 453.87, 1416.92 452.54 C 1414.75 451.22, 1413.26 450.68, 1410.59 449.52 C 1407.91 448.37, 1406.23 447.93, 1403.55 446.79 C 1400.88 445.64, 1399.47 444.76, 1397.21 443.82 C 1394.95 442.88, 1393.73 442.58, 1392.24 442.08 C 1390.76 441.57, 1390.17 441.64, 1389.76 441.30 C 1389.36 440.96, 1389.47 440.93, 1390.23 440.39 C 1390.99 439.86, 1391.74 439.54, 1393.57 438.64 C 1395.40 437.74, 1396.74 436.97, 1399.36 435.88 C 1401.99 434.78, 1403.74 433.98, 1406.70 433.18 C 1409.66 432.38, 1411.47 432.23, 1414.16 431.87 C 1416.85 431.50, 1418.14 431.63, 1420.14 431.35 C 1422.15 431.08, 1422.87 430.92, 1424.18 430.49 C 1425.49 430.05, 1426.01 430.07, 1426.69 429.19 C 1427.37 428.32, 1427.87 427.28, 1427.58 426.13" style="stroke: black; fill: black;"/></svg>