<svg xmlns="http://www.w3.org/2000/svg" id="canvas" viewBox="304.653 361.597 1126.927 160.820"><path d="M 344.29,380.52 C 343.17 380.92, 342.79 381.58, 341.83 383.14 C 340.86 384.70, 340.31 385.58, 339.47 388.32 C 338.63 391.05, 338.61 393.03, 337.62 396.80 C 336.64 400.56, 335.99 402.85, 334.56 407.16 C 333.12 411.47, 332.15 413.81, 330.46 418.35 C 328.78 422.90, 327.84 425.33, 326.14 429.88 C 324.44 434.42, 323.58 436.78, 321.97 441.08 C 320.37 445.37, 319.57 447.57, 318.13 451.36 C 316.68 455.14, 315.90 456.89, 314.73 460.01 C 313.57 463.13, 312.83 464.56, 312.30 466.96 C 311.78 469.36, 311.95 470.45, 312.10 472.01 C 312.25 473.57, 312.46 474.12, 313.05 474.75 C 313.64 475.39, 314.28 475.48, 315.07 475.16 C 315.85 474.84, 316.15 474.42, 316.97 473.17 C 317.78 471.92, 318.37 471.14, 319.16 468.91 C 319.95 466.67, 320.08 465.15, 320.92 462.00 C 321.77 458.85, 322.22 457.00, 323.39 453.16 C 324.55 449.32, 325.29 447.11, 326.77 442.80 C 328.25 438.49, 329.08 436.13, 330.78 431.62 C 332.48 427.10, 333.42 424.70, 335.26 420.22 C 337.09 415.74, 338.14 413.42, 339.95 409.20 C 341.75 404.99, 342.66 402.79, 344.28 399.14 C 345.90 395.49, 347.18 393.83, 348.07 390.96 C 348.95 388.08, 348.82 386.73, 348.69 384.76 C 348.57 382.79, 348.31 381.97, 347.43 381.12 C 346.55 380.27, 345.41 380.11, 344.29 380.52" style="stroke: black; fill: black;"/><path d="M 308.05,376.56 C 308.53 377.46, 308.89 377.75, 310.24 378.22 C 311.60 378.69, 312.47 379.18, 314.82 378.93 C 317.17 378.69, 318.61 377.87, 322.01 376.99 C 325.42 376.10, 327.52 375.45, 331.83 374.51 C 336.14 373.57, 338.65 373.01, 343.55 372.28 C 348.45 371.56, 351.21 371.34, 356.32 370.90 C 361.44 370.46, 364.30 370.21, 369.12 370.07 C 373.93 369.93, 376.37 369.92, 380.41 370.19 C 384.44 370.47, 386.43 371.00, 389.31 371.43 C 392.19 371.85, 393.17 372.11, 394.80 372.33 C 396.44 372.56, 396.79 372.59, 397.49 372.57 C 398.19 372.55, 398.09 372.32, 398.30 372.23 C 398.52 372.14, 398.19 372.06, 398.57 372.14 C 398.94 372.21, 399.71 372.81, 400.16 372.61 C 400.62 372.40, 400.93 371.91, 400.83 371.12 C 400.74 370.33, 400.58 369.57, 399.70 368.66 C 398.82 367.75, 398.34 367.33, 396.44 366.56 C 394.53 365.79, 393.36 365.16, 390.18 364.79 C 387.00 364.43, 384.78 364.67, 380.53 364.75 C 376.28 364.82, 373.83 364.91, 368.91 365.18 C 363.99 365.45, 361.13 365.70, 355.93 366.09 C 350.74 366.48, 347.94 366.67, 342.93 367.15 C 337.93 367.62, 335.35 368.07, 330.91 368.45 C 326.47 368.83, 324.26 368.81, 320.72 369.06 C 317.19 369.30, 315.51 369.13, 313.24 369.67 C 310.97 370.21, 310.44 370.96, 309.36 371.76 C 308.28 372.57, 308.09 372.75, 307.83 373.70 C 307.57 374.66, 307.56 375.66, 308.05 376.56" style="stroke: black; fill: black;"/><path d="M 398.52,424.27 C 397.00 424.12, 395.32 424.46, 393.06 426.10 C 390.79 427.75, 389.63 429.48, 387.21 432.48 C 384.79 435.49, 383.32 437.66, 380.97 441.12 C 378.61 444.57, 377.49 446.48, 375.43 449.74 C 373.37 453.00, 372.31 454.69, 370.67 457.42 C 369.04 460.16, 368.16 461.32, 367.27 463.43 C 366.38 465.54, 366.36 466.54, 366.24 467.97 C 366.12 469.39, 366.23 469.88, 366.67 470.55 C 367.11 471.22, 367.67 471.40, 368.44 471.31 C 369.21 471.21, 369.50 470.96, 370.51 470.06 C 371.53 469.17, 372.26 468.68, 373.53 466.85 C 374.79 465.02, 375.35 463.66, 376.83 460.92 C 378.31 458.18, 379.00 456.32, 380.93 453.14 C 382.85 449.96, 384.05 448.21, 386.44 445.03 C 388.82 441.85, 390.48 439.94, 392.86 437.24 C 395.24 434.55, 396.77 433.62, 398.34 431.55 C 399.91 429.48, 400.65 428.34, 400.69 426.88 C 400.73 425.43, 400.05 424.43, 398.52 424.27" style="stroke: black; fill: black;"/><path d="M 420.91,380.66 C 420.06 380.54, 419.75 381.21, 420.39 381.78 C 421.03 382.35, 423.27 383.37, 424.12 383.49 C 424.97 383.61, 425.27 382.94, 424.63 382.37 C 423.99 381.80, 421.76 380.78, 420.91 380.66" style="stroke: black; fill: black;"/><path d="M 454.50,383.61 C 453.28 383.84, 452.57 384.33, 451.25 386.07 C 449.93 387.81, 449.50 389.06, 447.88 392.30 C 446.26 395.55, 445.40 397.93, 443.13 402.27 C 440.86 406.62, 439.40 409.20, 436.52 414.04 C 433.63 418.89, 431.75 421.62, 428.71 426.51 C 425.67 431.39, 424.03 434.02, 421.32 438.45 C 418.61 442.88, 417.26 444.98, 415.15 448.66 C 413.05 452.35, 411.74 453.86, 410.79 456.86 C 409.84 459.85, 409.87 461.39, 410.41 463.64 C 410.95 465.89, 411.72 466.87, 413.49 468.12 C 415.26 469.37, 416.63 469.93, 419.26 469.89 C 421.89 469.85, 423.51 469.36, 426.65 467.93 C 429.79 466.51, 431.76 464.83, 434.95 462.79 C 438.14 460.74, 440.19 459.78, 442.62 457.70 C 445.05 455.63, 446.55 454.03, 447.09 452.43 C 447.64 450.83, 447.01 449.90, 445.35 449.73 C 443.70 449.55, 441.70 450.33, 438.81 451.55 C 435.92 452.77, 434.11 454.17, 430.91 455.84 C 427.71 457.51, 425.44 458.55, 422.79 459.91 C 420.15 461.26, 419.16 461.78, 417.70 462.61 C 416.25 463.45, 415.97 463.95, 415.53 464.09 C 415.08 464.22, 415.15 464.31, 415.46 463.28 C 415.77 462.26, 416.21 461.40, 417.08 458.96 C 417.95 456.51, 418.17 454.68, 419.80 451.04 C 421.44 447.41, 422.72 445.21, 425.25 440.77 C 427.78 436.33, 429.39 433.69, 432.44 428.84 C 435.50 424.00, 437.41 421.29, 440.53 416.55 C 443.65 411.82, 445.28 409.33, 448.04 405.18 C 450.79 401.03, 452.40 399.01, 454.29 395.80 C 456.18 392.59, 456.89 391.32, 457.49 389.14 C 458.09 386.96, 457.91 386.01, 457.31 384.90 C 456.71 383.80, 455.71 383.38, 454.50 383.61" style="stroke: black; fill: black;"/><path d="M 486.03,426.40 C 484.82 426.58, 484.33 427.24, 483.04 428.53 C 481.75 429.81, 480.93 430.61, 479.57 432.80 C 478.20 435.00, 477.72 436.78, 476.23 439.50 C 474.74 442.22, 473.75 443.80, 472.11 446.40 C 470.48 449.00, 469.29 450.30, 468.05 452.50 C 466.80 454.71, 466.13 455.75, 465.87 457.42 C 465.61 459.09, 465.86 460.03, 466.74 460.86 C 467.61 461.70, 468.72 462.04, 470.25 461.59 C 471.78 461.14, 472.82 460.52, 474.37 458.63 C 475.93 456.73, 476.14 454.98, 478.02 452.11 C 479.89 449.24, 481.08 447.41, 483.74 444.27 C 486.40 441.14, 488.16 439.34, 491.32 436.43 C 494.48 433.52, 496.33 432.00, 499.54 429.73 C 502.76 427.46, 504.69 426.55, 507.39 425.10 C 510.09 423.64, 511.38 423.14, 513.05 422.44 C 514.73 421.73, 515.12 421.50, 515.75 421.57 C 516.39 421.63, 516.36 421.89, 516.22 422.75 C 516.08 423.61, 515.70 424.18, 515.07 425.86 C 514.44 427.55, 513.97 428.78, 513.06 431.16 C 512.15 433.54, 511.74 435.17, 510.53 437.76 C 509.33 440.36, 508.16 441.77, 507.05 444.13 C 505.95 446.49, 505.20 447.67, 505.02 449.57 C 504.83 451.47, 505.14 452.56, 506.14 453.63 C 507.14 454.70, 508.22 455.20, 510.03 454.93 C 511.83 454.66, 513.12 454.18, 515.17 452.28 C 517.23 450.37, 517.82 448.27, 520.32 445.41 C 522.82 442.54, 524.48 440.73, 527.69 437.95 C 530.90 435.17, 532.90 433.68, 536.38 431.51 C 539.86 429.33, 541.87 428.32, 545.09 427.07 C 548.32 425.83, 550.08 425.79, 552.51 425.28 C 554.94 424.76, 555.90 424.52, 557.23 424.48 C 558.57 424.44, 558.90 424.51, 559.19 425.09 C 559.48 425.66, 559.26 426.02, 558.70 427.35 C 558.14 428.69, 557.40 429.55, 556.41 431.76 C 555.41 433.97, 554.97 435.69, 553.73 438.40 C 552.50 441.11, 551.55 442.65, 550.23 445.30 C 548.90 447.95, 548.00 449.30, 547.10 451.65 C 546.21 454.01, 545.93 455.22, 545.75 457.06 C 545.56 458.90, 545.81 459.73, 546.19 460.83 C 546.56 461.94, 546.95 462.27, 547.61 462.60 C 548.28 462.92, 548.89 462.70, 549.50 462.44 C 550.12 462.17, 550.14 461.97, 550.69 461.27 C 551.24 460.58, 551.53 460.21, 552.25 458.96 C 552.97 457.71, 553.17 456.95, 554.29 455.03 C 555.40 453.11, 556.33 451.92, 557.80 449.37 C 559.27 446.81, 560.17 445.12, 561.65 442.23 C 563.12 439.35, 564.30 437.84, 565.16 434.95 C 566.03 432.06, 566.30 430.40, 565.98 427.78 C 565.65 425.15, 565.07 423.66, 563.53 421.81 C 562.00 419.96, 560.79 419.25, 558.30 418.52 C 555.82 417.80, 554.25 417.62, 551.12 418.20 C 547.99 418.77, 546.22 419.72, 542.65 421.40 C 539.09 423.07, 537.06 424.22, 533.29 426.56 C 529.53 428.90, 527.49 430.45, 523.84 433.10 C 520.20 435.75, 518.24 437.34, 515.06 439.81 C 511.88 442.29, 509.77 443.24, 507.94 445.46 C 506.12 447.69, 505.98 449.28, 505.92 450.92 C 505.86 452.57, 506.61 453.28, 507.64 453.69 C 508.67 454.10, 509.60 453.99, 511.06 452.96 C 512.52 451.93, 513.43 450.83, 514.93 448.56 C 516.43 446.30, 517.14 444.49, 518.56 441.66 C 519.99 438.82, 521.09 437.32, 522.08 434.39 C 523.07 431.46, 523.57 429.75, 523.53 427.00 C 523.49 424.25, 523.11 422.69, 521.89 420.64 C 520.67 418.59, 519.55 417.64, 517.43 416.74 C 515.32 415.85, 513.96 415.65, 511.30 416.16 C 508.64 416.66, 507.18 417.51, 504.13 419.27 C 501.08 421.03, 499.37 422.41, 496.03 424.97 C 492.69 427.54, 490.82 429.13, 487.43 432.10 C 484.04 435.08, 482.25 436.88, 479.10 439.86 C 475.94 442.83, 474.24 444.34, 471.66 446.99 C 469.08 449.64, 467.48 450.77, 466.18 453.11 C 464.88 455.44, 464.89 456.95, 465.18 458.66 C 465.46 460.37, 466.37 461.19, 467.58 461.67 C 468.79 462.15, 469.74 461.96, 471.23 461.06 C 472.71 460.16, 473.43 459.19, 475.01 457.17 C 476.59 455.16, 477.36 453.59, 479.13 450.98 C 480.90 448.37, 482.04 446.83, 483.84 444.12 C 485.65 441.41, 486.97 439.94, 488.14 437.43 C 489.32 434.92, 489.53 433.55, 489.72 431.58 C 489.91 429.61, 489.85 428.63, 489.11 427.59 C 488.37 426.56, 487.24 426.21, 486.03 426.40" style="stroke: black; fill: black;"/><path d="M 621.97,427.49 C 622.27 426.35, 622.08 425.59, 621.32 424.53 C 620.56 423.48, 619.82 422.86, 618.18 422.22 C 616.54 421.58, 615.34 421.37, 613.11 421.35 C 610.89 421.32, 609.66 421.41, 607.06 422.10 C 604.47 422.79, 602.96 423.31, 600.13 424.80 C 597.30 426.29, 595.80 427.44, 592.91 429.55 C 590.02 431.65, 588.41 432.93, 585.66 435.34 C 582.91 437.76, 581.34 439.06, 579.15 441.64 C 576.97 444.21, 575.87 445.61, 574.73 448.22 C 573.59 450.84, 573.35 452.27, 573.46 454.70 C 573.57 457.14, 573.96 458.46, 575.29 460.39 C 576.62 462.32, 577.78 463.32, 580.13 464.38 C 582.48 465.43, 584.10 465.72, 587.05 465.67 C 589.99 465.62, 591.65 465.14, 594.84 464.11 C 598.03 463.08, 599.74 462.21, 603.02 460.52 C 606.29 458.84, 608.03 457.80, 611.23 455.67 C 614.43 453.54, 616.05 452.27, 619.00 449.89 C 621.94 447.51, 623.50 446.17, 625.94 443.77 C 628.38 441.38, 629.86 440.22, 631.18 437.92 C 632.49 435.62, 632.84 434.02, 632.49 432.28 C 632.15 430.54, 631.12 429.58, 629.45 429.21 C 627.78 428.84, 626.18 429.11, 624.13 430.44 C 622.08 431.76, 620.90 433.23, 619.21 435.85 C 617.51 438.47, 616.89 440.58, 615.67 443.56 C 614.45 446.54, 613.77 448.08, 613.11 450.77 C 612.45 453.45, 612.27 454.69, 612.37 456.99 C 612.47 459.29, 612.73 460.54, 613.60 462.27 C 614.47 464.00, 615.48 464.76, 616.73 465.64 C 617.99 466.52, 618.77 466.72, 619.89 466.66 C 621.00 466.61, 621.80 466.26, 622.31 465.38 C 622.83 464.51, 622.66 463.20, 622.47 462.29 C 622.28 461.38, 621.78 461.26, 621.37 460.82 C 620.96 460.39, 620.89 460.37, 620.43 460.10 C 619.96 459.83, 619.31 459.99, 619.02 459.47 C 618.74 458.95, 618.62 458.67, 618.98 457.48 C 619.34 456.29, 619.81 455.46, 620.81 453.52 C 621.80 451.58, 622.44 450.17, 623.96 447.78 C 625.47 445.38, 626.97 443.94, 628.39 441.55 C 629.81 439.16, 630.55 437.80, 631.07 435.83 C 631.59 433.85, 631.50 432.75, 630.97 431.68 C 630.44 430.61, 629.67 430.16, 628.42 430.47 C 627.16 430.78, 626.25 431.57, 624.69 433.23 C 623.14 434.89, 622.64 436.47, 620.65 438.77 C 618.65 441.07, 617.32 442.49, 614.71 444.73 C 612.09 446.97, 610.52 448.16, 607.57 449.99 C 604.62 451.82, 602.94 452.68, 599.95 453.88 C 596.96 455.09, 595.29 455.42, 592.61 456.01 C 589.94 456.59, 588.64 456.59, 586.57 456.81 C 584.50 457.02, 583.59 457.11, 582.27 457.09 C 580.94 457.07, 580.48 457.11, 579.95 456.69 C 579.41 456.27, 579.32 456.01, 579.60 454.99 C 579.87 453.98, 580.25 453.31, 581.33 451.63 C 582.40 449.94, 583.14 448.73, 584.97 446.59 C 586.80 444.44, 588.04 442.99, 590.49 440.88 C 592.93 438.77, 594.51 437.64, 597.22 436.03 C 599.92 434.42, 601.55 433.89, 604.01 432.83 C 606.46 431.77, 607.66 431.26, 609.48 430.71 C 611.30 430.16, 611.89 430.10, 613.09 430.08 C 614.30 430.07, 614.62 430.48, 615.50 430.64 C 616.38 430.80, 616.62 430.98, 617.49 430.90 C 618.35 430.82, 618.94 430.94, 619.83 430.26 C 620.73 429.58, 621.67 428.64, 621.97 427.49" style="stroke: black; fill: black;"/><path d="M 658.71,426.25 C 657.64 426.15, 657.25 426.37, 656.06 427.12 C 654.87 427.87, 654.14 428.35, 652.77 429.98 C 651.41 431.62, 650.63 432.91, 649.22 435.29 C 647.82 437.67, 647.22 439.31, 645.75 441.87 C 644.27 444.44, 643.14 445.82, 641.84 448.12 C 640.54 450.43, 639.74 451.54, 639.24 453.40 C 638.75 455.26, 638.72 456.20, 639.38 457.43 C 640.04 458.66, 641.01 459.41, 642.55 459.56 C 644.08 459.71, 645.32 459.50, 647.08 458.18 C 648.83 456.85, 649.39 455.41, 651.32 452.94 C 653.26 450.47, 654.14 448.61, 656.74 445.82 C 659.34 443.02, 661.12 441.46, 664.31 438.96 C 667.50 436.47, 669.45 435.18, 672.71 433.34 C 675.96 431.50, 677.79 430.82, 680.59 429.77 C 683.40 428.72, 684.82 428.50, 686.75 428.09 C 688.68 427.68, 689.34 427.51, 690.24 427.71 C 691.13 427.92, 691.17 428.17, 691.22 429.12 C 691.27 430.07, 691.00 430.74, 690.49 432.47 C 689.97 434.19, 689.54 435.36, 688.64 437.76 C 687.75 440.17, 687.27 441.78, 686.00 444.50 C 684.72 447.23, 683.58 448.77, 682.27 451.40 C 680.95 454.03, 680.25 455.44, 679.44 457.66 C 678.63 459.89, 678.35 460.90, 678.21 462.54 C 678.08 464.17, 678.36 464.90, 678.75 465.83 C 679.14 466.75, 679.59 466.98, 680.16 467.17 C 680.73 467.35, 681.13 466.96, 681.60 466.77 C 682.06 466.58, 681.95 466.63, 682.48 466.21 C 683.01 465.80, 683.42 465.72, 684.24 464.68 C 685.05 463.64, 685.43 462.87, 686.55 461.01 C 687.66 459.14, 688.41 457.91, 689.82 455.35 C 691.22 452.80, 692.08 451.13, 693.57 448.23 C 695.06 445.33, 696.26 443.84, 697.29 440.85 C 698.32 437.86, 698.78 436.10, 698.72 433.27 C 698.65 430.45, 698.20 428.89, 696.95 426.72 C 695.69 424.56, 694.66 423.56, 692.44 422.46 C 690.23 421.36, 688.74 421.02, 685.87 421.23 C 683.00 421.43, 681.35 422.12, 678.09 423.48 C 674.84 424.84, 673.10 425.92, 669.60 428.02 C 666.10 430.13, 664.12 431.48, 660.60 434.01 C 657.09 436.54, 655.25 438.13, 652.02 440.66 C 648.80 443.19, 646.93 444.35, 644.48 446.66 C 642.02 448.97, 640.74 450.18, 639.76 452.22 C 638.77 454.26, 639.07 455.54, 639.55 456.87 C 640.03 458.20, 640.92 458.73, 642.15 458.85 C 643.38 458.98, 644.27 458.68, 645.71 457.49 C 647.15 456.30, 647.79 455.06, 649.34 452.93 C 650.88 450.79, 651.70 449.24, 653.43 446.81 C 655.16 444.38, 656.44 443.14, 657.99 440.78 C 659.55 438.42, 660.38 437.07, 661.22 435.02 C 662.05 432.96, 662.12 431.97, 662.16 430.49 C 662.20 429.02, 662.11 428.49, 661.42 427.65 C 660.73 426.80, 659.78 426.36, 658.71 426.25" style="stroke: black; fill: black;"/><path d="M 751.96,380.09 C 750.69 380.17, 749.94 380.72, 748.62 381.94 C 747.30 383.15, 746.61 384.21, 745.38 386.17 C 744.14 388.13, 743.60 389.41, 742.46 391.73 C 741.31 394.06, 740.65 395.39, 739.65 397.80 C 738.65 400.22, 737.89 401.52, 737.44 403.81 C 737.00 406.09, 736.82 407.87, 737.44 409.21 C 738.06 410.55, 739.17 410.97, 740.54 410.52 C 741.92 410.08, 742.88 408.72, 744.30 406.99 C 745.72 405.26, 746.32 404.03, 747.64 401.87 C 748.97 399.72, 749.67 398.44, 750.93 396.20 C 752.20 393.96, 753.04 392.83, 753.96 390.66 C 754.89 388.50, 755.35 387.23, 755.56 385.40 C 755.76 383.58, 755.69 382.61, 754.97 381.54 C 754.25 380.48, 753.23 380.01, 751.96 380.09" style="stroke: black; fill: black;"/><path d="M 798.04,420.73 C 797.99 419.60, 797.66 418.84, 796.44 417.91 C 795.22 416.98, 794.15 416.40, 791.94 416.08 C 789.73 415.77, 788.17 415.78, 785.39 416.32 C 782.61 416.86, 780.96 417.59, 778.04 418.78 C 775.12 419.97, 773.52 420.72, 770.80 422.26 C 768.07 423.81, 766.52 424.62, 764.41 426.51 C 762.29 428.40, 761.29 429.51, 760.21 431.72 C 759.12 433.92, 758.84 435.23, 758.98 437.53 C 759.12 439.83, 759.59 441.15, 760.92 443.24 C 762.24 445.33, 763.39 446.34, 765.62 447.98 C 767.85 449.62, 769.44 450.24, 772.08 451.43 C 774.72 452.62, 776.33 453.04, 778.82 453.95 C 781.31 454.85, 782.64 455.27, 784.55 455.96 C 786.45 456.65, 787.29 457.01, 788.36 457.40 C 789.43 457.79, 789.72 457.84, 789.89 457.91 C 790.05 457.98, 789.91 457.72, 789.18 457.77 C 788.45 457.82, 787.80 457.79, 786.22 458.14 C 784.64 458.50, 783.55 458.84, 781.27 459.55 C 778.98 460.25, 777.56 460.91, 774.79 461.68 C 772.02 462.45, 770.34 462.88, 767.40 463.39 C 764.46 463.90, 762.80 463.89, 760.09 464.24 C 757.38 464.58, 755.97 464.70, 753.85 465.09 C 751.72 465.48, 750.86 465.66, 749.45 466.18 C 748.05 466.71, 747.35 466.95, 746.81 467.72 C 746.27 468.50, 746.24 469.26, 746.75 470.06 C 747.26 470.87, 747.88 471.17, 749.37 471.74 C 750.86 472.31, 751.86 472.74, 754.20 472.92 C 756.53 473.11, 758.14 472.97, 761.04 472.68 C 763.94 472.39, 765.58 471.96, 768.71 471.48 C 771.85 471.01, 773.62 470.85, 776.71 470.31 C 779.80 469.78, 781.49 469.65, 784.17 468.80 C 786.85 467.95, 788.15 467.43, 790.09 466.06 C 792.03 464.69, 792.92 463.79, 793.87 461.97 C 794.81 460.15, 795.04 458.88, 794.81 456.95 C 794.58 455.01, 794.04 453.93, 792.72 452.29 C 791.39 450.64, 790.27 450.04, 788.20 448.72 C 786.13 447.40, 784.78 446.90, 782.36 445.69 C 779.94 444.49, 778.50 443.83, 776.10 442.70 C 773.71 441.58, 772.34 440.96, 770.39 440.07 C 768.44 439.19, 767.49 438.90, 766.36 438.28 C 765.22 437.67, 764.84 437.57, 764.72 437.00 C 764.59 436.43, 764.82 436.22, 765.74 435.44 C 766.66 434.66, 767.51 434.16, 769.34 433.10 C 771.17 432.03, 772.49 431.24, 774.88 430.13 C 777.27 429.02, 778.80 428.36, 781.28 427.55 C 783.77 426.73, 785.20 426.49, 787.31 426.06 C 789.42 425.64, 790.34 425.71, 791.82 425.44 C 793.30 425.17, 793.74 425.08, 794.71 424.71 C 795.69 424.34, 796.02 424.38, 796.69 423.58 C 797.35 422.79, 798.09 421.86, 798.04 420.73" style="stroke: black; fill: black;"/><path d="M 956.69,390.34 C 955.56 390.94, 955.15 391.89, 954.32 393.75 C 953.49 395.60, 953.25 396.74, 952.53 399.63 C 951.81 402.52, 951.78 404.52, 950.74 408.19 C 949.70 411.86, 948.99 413.93, 947.34 417.97 C 945.69 422.02, 944.56 424.23, 942.50 428.41 C 940.43 432.59, 939.21 434.83, 937.00 438.89 C 934.78 442.95, 933.55 445.05, 931.41 448.72 C 929.26 452.39, 928.06 454.18, 926.27 457.24 C 924.49 460.31, 923.46 461.63, 922.48 464.06 C 921.50 466.50, 921.12 468.08, 921.38 469.43 C 921.65 470.78, 922.50 471.28, 923.81 470.82 C 925.11 470.36, 926.33 469.23, 927.91 467.12 C 929.49 465.00, 930.05 463.40, 931.70 460.25 C 933.36 457.09, 934.21 455.13, 936.18 451.35 C 938.15 447.57, 939.35 445.46, 941.55 441.35 C 943.75 437.24, 944.97 435.00, 947.18 430.80 C 949.39 426.60, 950.60 424.41, 952.61 420.35 C 954.61 416.30, 955.60 414.24, 957.23 410.53 C 958.85 406.81, 959.88 404.89, 960.74 401.78 C 961.59 398.67, 961.65 397.17, 961.50 394.96 C 961.36 392.75, 960.97 391.65, 960.01 390.72 C 959.05 389.80, 957.83 389.73, 956.69 390.34" style="stroke: black; fill: black;"/><path d="M 945.25,387.10 C 946.43 387.09, 946.83 386.43, 948.25 385.52 C 949.67 384.61, 950.40 384.13, 952.36 382.56 C 954.32 380.99, 955.24 379.40, 958.05 377.68 C 960.85 375.96, 962.71 375.15, 966.40 373.98 C 970.08 372.82, 972.39 372.30, 976.47 371.86 C 980.55 371.42, 982.92 371.39, 986.79 371.77 C 990.66 372.15, 992.70 372.63, 995.83 373.75 C 998.95 374.87, 1000.36 375.80, 1002.42 377.37 C 1004.48 378.94, 1005.22 379.80, 1006.13 381.60 C 1007.04 383.41, 1007.11 384.22, 1006.97 386.41 C 1006.84 388.61, 1006.67 389.88, 1005.44 392.59 C 1004.22 395.29, 1003.31 396.96, 1000.86 399.93 C 998.41 402.91, 996.72 404.57, 993.20 407.45 C 989.69 410.34, 987.39 411.81, 983.27 414.36 C 979.14 416.90, 976.76 418.20, 972.58 420.19 C 968.41 422.17, 966.10 423.07, 962.40 424.29 C 958.71 425.50, 956.81 425.57, 954.10 426.28 C 951.39 427.00, 950.37 427.23, 948.87 427.86 C 947.37 428.49, 947.17 428.94, 946.61 429.43 C 946.06 429.92, 946.28 429.95, 946.10 430.29 C 945.93 430.63, 945.67 430.68, 945.75 431.13 C 945.83 431.57, 945.70 431.99, 946.51 432.52 C 947.32 433.05, 947.91 433.68, 949.80 433.78 C 951.69 433.88, 953.04 433.86, 955.96 433.02 C 958.89 432.18, 960.66 431.22, 964.43 429.57 C 968.21 427.92, 970.55 426.96, 974.84 424.78 C 979.14 422.60, 981.56 421.29, 985.90 418.67 C 990.24 416.05, 992.64 414.63, 996.53 411.68 C 1000.43 408.73, 1002.38 407.13, 1005.38 403.91 C 1008.38 400.68, 1009.76 398.98, 1011.53 395.55 C 1013.29 392.12, 1014.06 390.18, 1014.20 386.76 C 1014.33 383.34, 1013.77 381.39, 1012.21 378.44 C 1010.64 375.49, 1009.26 374.12, 1006.37 372.03 C 1003.48 369.94, 1001.56 369.18, 997.75 367.99 C 993.94 366.79, 991.68 366.42, 987.31 366.05 C 982.94 365.67, 980.43 365.74, 975.92 366.12 C 971.41 366.49, 969.01 366.96, 964.77 367.93 C 960.53 368.90, 958.38 369.48, 954.72 370.97 C 951.06 372.46, 948.91 373.34, 946.47 375.38 C 944.03 377.41, 943.35 379.12, 942.53 381.16 C 941.70 383.19, 941.81 384.38, 942.35 385.57 C 942.90 386.76, 944.07 387.11, 945.25 387.10" style="stroke: black; fill: black;"/><path d="M 1015.61,443.00 C 1014.62 443.14, 1014.47 443.29, 1013.54 444.05 C 1012.61 444.80, 1012.06 445.24, 1010.98 446.78 C 1009.91 448.33, 1009.38 449.50, 1008.17 451.79 C 1006.97 454.07, 1006.40 455.71, 1004.96 458.22 C 1003.53 460.72, 1002.21 462.01, 1000.99 464.31 C 999.78 466.61, 999.06 467.96, 998.87 469.70 C 998.68 471.44, 999.12 472.39, 1000.04 473.01 C 1000.95 473.64, 1001.97 473.63, 1003.44 472.82 C 1004.92 472.02, 1005.96 471.18, 1007.41 468.99 C 1008.86 466.80, 1009.01 464.77, 1010.71 461.86 C 1012.41 458.95, 1013.57 457.17, 1015.90 454.43 C 1018.22 451.69, 1019.69 450.34, 1022.33 448.14 C 1024.97 445.95, 1026.44 444.98, 1029.09 443.47 C 1031.75 441.97, 1033.18 441.50, 1035.59 440.60 C 1038.00 439.71, 1039.06 439.35, 1041.14 438.99 C 1043.23 438.63, 1044.14 438.65, 1046.00 438.80 C 1047.86 438.94, 1048.75 439.43, 1050.44 439.73 C 1052.13 440.02, 1052.98 440.30, 1054.44 440.27 C 1055.90 440.24, 1056.85 440.26, 1057.72 439.58 C 1058.60 438.90, 1059.03 438.00, 1058.80 436.88 C 1058.57 435.77, 1057.90 434.98, 1056.58 434.00 C 1055.25 433.03, 1054.21 432.53, 1052.17 432.00 C 1050.12 431.46, 1048.79 431.36, 1046.34 431.31 C 1043.89 431.26, 1042.61 431.29, 1039.91 431.75 C 1037.21 432.20, 1035.71 432.41, 1032.84 433.58 C 1029.96 434.76, 1028.47 435.72, 1025.53 437.62 C 1022.59 439.52, 1021.07 440.65, 1018.13 443.08 C 1015.20 445.50, 1013.66 446.95, 1010.84 449.74 C 1008.03 452.53, 1006.53 454.20, 1004.06 457.03 C 1001.59 459.86, 999.82 461.24, 998.50 463.89 C 997.18 466.55, 997.18 468.29, 997.47 470.31 C 997.75 472.33, 998.56 473.32, 999.92 474.00 C 1001.29 474.67, 1002.52 474.59, 1004.28 473.68 C 1006.04 472.77, 1007.00 471.56, 1008.72 469.45 C 1010.43 467.35, 1011.15 465.67, 1012.86 463.14 C 1014.57 460.60, 1015.84 459.24, 1017.25 456.77 C 1018.66 454.29, 1019.31 452.93, 1019.90 450.77 C 1020.48 448.61, 1020.44 447.46, 1020.16 445.98 C 1019.89 444.50, 1019.45 443.95, 1018.54 443.36 C 1017.63 442.76, 1016.61 442.86, 1015.61 443.00" style="stroke: black; fill: black;"/><path d="M 1098.06,443.02 C 1097.97 441.89, 1097.65 441.27, 1096.38 440.37 C 1095.11 439.46, 1094.05 438.73, 1091.71 438.50 C 1089.37 438.28, 1087.55 438.33, 1084.67 439.26 C 1081.80 440.18, 1080.31 441.36, 1077.33 443.11 C 1074.35 444.86, 1072.64 445.92, 1069.78 448.02 C 1066.92 450.12, 1065.20 451.20, 1063.02 453.63 C 1060.85 456.06, 1059.84 457.56, 1058.90 460.18 C 1057.96 462.81, 1057.82 464.33, 1058.32 466.75 C 1058.83 469.17, 1059.54 470.50, 1061.41 472.28 C 1063.28 474.07, 1064.78 475.00, 1067.66 475.69 C 1070.53 476.38, 1072.39 476.21, 1075.78 475.73 C 1079.17 475.26, 1081.03 474.54, 1084.59 473.32 C 1088.15 472.10, 1090.12 471.32, 1093.58 469.63 C 1097.04 467.94, 1098.86 466.91, 1101.89 464.88 C 1104.91 462.85, 1106.54 461.87, 1108.68 459.48 C 1110.82 457.09, 1111.59 455.56, 1112.57 452.94 C 1113.55 450.32, 1113.72 448.83, 1113.60 446.39 C 1113.48 443.94, 1112.96 442.67, 1111.97 440.72 C 1110.97 438.77, 1110.10 437.77, 1108.63 436.63 C 1107.16 435.49, 1106.05 435.14, 1104.63 435.02 C 1103.21 434.91, 1102.30 435.31, 1101.53 436.07 C 1100.76 436.83, 1100.69 437.84, 1100.77 438.84 C 1100.85 439.84, 1101.35 440.28, 1101.95 441.06 C 1102.54 441.85, 1102.98 442.12, 1103.76 442.76 C 1104.55 443.41, 1105.25 443.53, 1105.87 444.31 C 1106.49 445.09, 1106.82 445.50, 1106.85 446.67 C 1106.88 447.85, 1106.80 448.64, 1106.03 450.18 C 1105.26 451.71, 1104.63 452.56, 1103.00 454.35 C 1101.37 456.13, 1100.34 457.30, 1097.86 459.11 C 1095.38 460.91, 1093.67 461.94, 1090.59 463.37 C 1087.51 464.80, 1085.62 465.46, 1082.47 466.25 C 1079.32 467.03, 1077.51 467.09, 1074.82 467.31 C 1072.12 467.53, 1070.90 467.42, 1068.99 467.35 C 1067.09 467.27, 1066.31 467.24, 1065.30 466.94 C 1064.30 466.63, 1063.97 466.56, 1063.97 465.84 C 1063.96 465.11, 1064.28 464.63, 1065.27 463.31 C 1066.27 462.00, 1067.12 461.03, 1068.94 459.26 C 1070.76 457.49, 1071.91 456.18, 1074.39 454.47 C 1076.86 452.76, 1078.68 451.91, 1081.32 450.73 C 1083.95 449.54, 1085.47 449.18, 1087.58 448.54 C 1089.69 447.90, 1090.45 447.82, 1091.85 447.54 C 1093.25 447.25, 1093.57 447.43, 1094.57 447.13 C 1095.56 446.84, 1096.15 446.88, 1096.85 446.06 C 1097.55 445.24, 1098.16 444.16, 1098.06 443.02" style="stroke: black; fill: black;"/><path d="M 1155.70,441.32 C 1154.65 441.45, 1154.36 441.73, 1153.27 442.84 C 1152.17 443.95, 1151.24 444.50, 1150.22 446.89 C 1149.21 449.27, 1149.23 451.28, 1148.21 454.79 C 1147.18 458.29, 1146.54 460.42, 1145.10 464.41 C 1143.66 468.41, 1142.72 470.67, 1141.01 474.75 C 1139.30 478.84, 1138.36 480.99, 1136.55 484.84 C 1134.75 488.70, 1133.82 490.66, 1131.97 494.04 C 1130.12 497.41, 1129.07 499.00, 1127.30 501.70 C 1125.53 504.40, 1124.57 505.55, 1123.12 507.54 C 1121.67 509.54, 1121.06 510.37, 1120.06 511.67 C 1119.07 512.96, 1118.52 513.38, 1118.16 514.01 C 1117.79 514.63, 1117.96 515.04, 1118.23 514.80 C 1118.51 514.55, 1119.33 513.85, 1119.54 512.78 C 1119.76 511.71, 1119.96 510.68, 1119.30 509.44 C 1118.64 508.20, 1117.66 507.04, 1116.23 506.57 C 1114.81 506.10, 1113.43 506.16, 1112.18 507.07 C 1110.93 507.99, 1110.11 509.44, 1109.99 511.15 C 1109.87 512.87, 1110.43 514.08, 1111.59 515.64 C 1112.75 517.20, 1113.95 518.28, 1115.77 518.95 C 1117.60 519.62, 1118.88 519.51, 1120.72 519.00 C 1122.55 518.50, 1123.27 517.88, 1124.94 516.44 C 1126.62 515.00, 1127.50 514.09, 1129.10 511.81 C 1130.70 509.52, 1131.33 508.05, 1132.94 505.03 C 1134.55 502.01, 1135.43 500.28, 1137.15 496.70 C 1138.88 493.13, 1139.76 491.10, 1141.57 487.16 C 1143.37 483.23, 1144.29 481.08, 1146.16 477.02 C 1148.03 472.96, 1149.05 470.72, 1150.91 466.85 C 1152.77 462.98, 1153.80 460.98, 1155.47 457.66 C 1157.15 454.34, 1158.45 452.79, 1159.27 450.26 C 1160.09 447.73, 1159.73 446.64, 1159.58 445.03 C 1159.43 443.42, 1159.29 442.95, 1158.52 442.21 C 1157.74 441.47, 1156.75 441.20, 1155.70 441.32" style="stroke: black; fill: black;"/><path d="M 1162.75,397.20 C 1163.22 397.88, 1163.50 397.74, 1163.22 396.96 C 1162.94 396.18, 1161.82 393.99, 1161.35 393.31 C 1160.88 392.63, 1160.60 392.77, 1160.88 393.55 C 1161.16 394.33, 1162.28 396.52, 1162.75 397.20" style="stroke: black; fill: black;"/><path d="M 1184.15,454.52 C 1185.03 455.35, 1185.79 455.47, 1187.57 455.59 C 1189.35 455.70, 1190.57 455.72, 1193.05 455.09 C 1195.54 454.46, 1197.10 453.65, 1199.99 452.42 C 1202.87 451.18, 1204.52 450.27, 1207.48 448.91 C 1210.43 447.56, 1212.08 446.97, 1214.77 445.66 C 1217.47 444.35, 1218.81 443.73, 1220.95 442.38 C 1223.10 441.02, 1224.18 440.43, 1225.52 438.86 C 1226.87 437.30, 1227.47 436.38, 1227.68 434.57 C 1227.88 432.76, 1227.68 431.42, 1226.56 429.83 C 1225.43 428.24, 1224.37 427.33, 1222.06 426.60 C 1219.74 425.88, 1218.15 425.65, 1214.98 426.21 C 1211.80 426.76, 1209.96 427.83, 1206.20 429.38 C 1202.44 430.93, 1200.19 431.92, 1196.17 433.96 C 1192.15 436.00, 1189.84 437.24, 1186.10 439.58 C 1182.37 441.92, 1180.33 443.14, 1177.49 445.67 C 1174.65 448.21, 1173.25 449.56, 1171.90 452.25 C 1170.55 454.94, 1170.44 456.53, 1170.75 459.12 C 1171.05 461.72, 1171.65 463.11, 1173.42 465.22 C 1175.20 467.34, 1176.61 468.55, 1179.62 469.72 C 1182.64 470.89, 1184.61 470.81, 1188.52 471.06 C 1192.43 471.31, 1194.67 471.17, 1199.16 470.97 C 1203.64 470.78, 1206.14 470.58, 1210.95 470.08 C 1215.76 469.58, 1218.77 469.13, 1223.19 468.46 C 1227.61 467.79, 1229.90 467.63, 1233.07 466.71 C 1236.25 465.79, 1238.00 464.96, 1239.08 463.85 C 1240.16 462.74, 1239.90 461.71, 1238.48 461.16 C 1237.06 460.61, 1235.21 460.76, 1231.97 461.09 C 1228.74 461.42, 1226.62 462.12, 1222.30 462.82 C 1217.99 463.52, 1215.04 464.15, 1210.40 464.59 C 1205.76 465.03, 1203.30 465.13, 1199.10 465.02 C 1194.90 464.91, 1192.71 464.67, 1189.39 464.03 C 1186.07 463.38, 1184.77 462.54, 1182.48 461.79 C 1180.19 461.05, 1179.18 460.93, 1177.92 460.29 C 1176.66 459.64, 1176.24 459.52, 1176.19 458.58 C 1176.13 457.63, 1176.53 457.18, 1177.66 455.55 C 1178.79 453.93, 1179.51 452.62, 1181.83 450.44 C 1184.16 448.25, 1185.90 446.81, 1189.30 444.64 C 1192.70 442.46, 1195.00 441.25, 1198.83 439.57 C 1202.65 437.89, 1204.93 437.05, 1208.44 436.23 C 1211.94 435.41, 1213.80 435.75, 1216.34 435.46 C 1218.89 435.17, 1219.78 435.10, 1221.17 434.77 C 1222.57 434.45, 1222.90 434.19, 1223.33 433.84 C 1223.76 433.50, 1223.74 433.11, 1223.33 433.06 C 1222.93 433.00, 1222.55 433.08, 1221.31 433.56 C 1220.08 434.05, 1219.16 434.55, 1217.15 435.49 C 1215.14 436.43, 1213.84 437.08, 1211.27 438.26 C 1208.70 439.44, 1207.20 440.29, 1204.31 441.41 C 1201.42 442.52, 1199.69 442.96, 1196.82 443.84 C 1193.96 444.73, 1192.29 444.90, 1189.99 445.85 C 1187.69 446.80, 1186.69 447.48, 1185.33 448.60 C 1183.97 449.72, 1183.40 450.27, 1183.17 451.46 C 1182.93 452.64, 1183.27 453.70, 1184.15 454.52" style="stroke: black; fill: black;"/><path d="M 1295.46,434.39 C 1295.49 433.20, 1295.09 432.33, 1293.86 431.34 C 1292.63 430.34, 1291.56 429.76, 1289.30 429.39 C 1287.04 429.02, 1285.44 428.85, 1282.57 429.50 C 1279.70 430.16, 1278.05 431.10, 1274.96 432.68 C 1271.86 434.27, 1270.22 435.37, 1267.07 437.43 C 1263.91 439.49, 1262.12 440.64, 1259.18 442.98 C 1256.24 445.31, 1254.60 446.53, 1252.38 449.10 C 1250.17 451.66, 1249.10 453.07, 1248.09 455.80 C 1247.09 458.52, 1246.93 460.09, 1247.37 462.71 C 1247.81 465.34, 1248.38 466.81, 1250.28 468.93 C 1252.17 471.05, 1253.63 472.29, 1256.84 473.33 C 1260.05 474.36, 1262.21 474.17, 1266.33 474.12 C 1270.46 474.07, 1272.80 473.73, 1277.46 473.08 C 1282.12 472.43, 1284.68 471.98, 1289.64 470.87 C 1294.60 469.76, 1297.32 469.01, 1302.26 467.53 C 1307.20 466.06, 1310.11 465.04, 1314.32 463.49 C 1318.53 461.93, 1320.56 461.32, 1323.31 459.76 C 1326.06 458.20, 1327.36 456.97, 1328.08 455.68 C 1328.80 454.40, 1328.32 453.55, 1326.90 453.34 C 1325.48 453.14, 1323.89 453.63, 1320.98 454.65 C 1318.08 455.67, 1316.41 456.81, 1312.38 458.44 C 1308.34 460.06, 1305.56 461.29, 1300.80 462.78 C 1296.05 464.28, 1293.39 464.99, 1288.61 465.92 C 1283.82 466.84, 1281.27 467.13, 1276.87 467.41 C 1272.48 467.70, 1270.14 467.71, 1266.62 467.34 C 1263.10 466.97, 1261.59 466.24, 1259.25 465.56 C 1256.91 464.88, 1256.12 464.67, 1254.94 463.93 C 1253.76 463.19, 1253.45 462.90, 1253.36 461.85 C 1253.27 460.80, 1253.55 460.24, 1254.48 458.67 C 1255.40 457.11, 1256.18 456.06, 1258.00 454.03 C 1259.82 452.00, 1261.02 450.57, 1263.59 448.50 C 1266.16 446.43, 1267.92 445.33, 1270.86 443.70 C 1273.81 442.06, 1275.57 441.30, 1278.32 440.32 C 1281.06 439.34, 1282.47 439.19, 1284.57 438.78 C 1286.67 438.37, 1287.43 438.43, 1288.81 438.26 C 1290.19 438.09, 1290.49 438.15, 1291.47 437.95 C 1292.44 437.75, 1292.89 437.97, 1293.69 437.26 C 1294.49 436.54, 1295.43 435.57, 1295.46 434.39" style="stroke: black; fill: black;"/><path d="M 1361.26,395.34 C 1360.20 395.36, 1359.90 395.55, 1358.62 396.58 C 1357.34 397.61, 1356.19 398.14, 1354.86 400.51 C 1353.54 402.87, 1353.40 404.93, 1351.99 408.41 C 1350.59 411.89, 1349.69 413.99, 1347.84 417.90 C 1345.99 421.81, 1344.81 423.98, 1342.73 427.95 C 1340.64 431.93, 1339.44 434.03, 1337.41 437.77 C 1335.38 441.51, 1334.33 443.38, 1332.57 446.64 C 1330.81 449.90, 1329.79 451.36, 1328.62 454.09 C 1327.45 456.82, 1327.17 458.15, 1326.74 460.27 C 1326.31 462.39, 1326.28 463.34, 1326.47 464.70 C 1326.67 466.05, 1327.24 466.46, 1327.73 467.04 C 1328.23 467.61, 1328.51 467.50, 1328.95 467.57 C 1329.40 467.65, 1329.55 467.55, 1329.96 467.42 C 1330.37 467.28, 1330.56 467.33, 1331.02 466.90 C 1331.47 466.48, 1331.79 466.27, 1332.23 465.30 C 1332.67 464.34, 1332.60 463.77, 1333.23 462.08 C 1333.86 460.39, 1334.42 459.39, 1335.39 456.84 C 1336.37 454.28, 1336.71 452.60, 1338.11 449.31 C 1339.51 446.02, 1340.47 444.13, 1342.38 440.39 C 1344.29 436.66, 1345.48 434.54, 1347.66 430.63 C 1349.85 426.71, 1351.08 424.55, 1353.30 420.80 C 1355.52 417.06, 1356.73 415.07, 1358.76 411.91 C 1360.79 408.75, 1362.25 407.44, 1363.44 404.99 C 1364.63 402.54, 1364.61 401.37, 1364.72 399.67 C 1364.82 397.96, 1364.65 397.35, 1363.96 396.49 C 1363.27 395.62, 1362.33 395.32, 1361.26 395.34" style="stroke: black; fill: black;"/><path d="M 1321.48,437.21 C 1322.16 438.13, 1322.72 438.41, 1324.50 438.84 C 1326.28 439.26, 1327.45 439.58, 1330.37 439.35 C 1333.28 439.12, 1335.27 438.25, 1339.08 437.68 C 1342.88 437.10, 1345.18 436.85, 1349.40 436.48 C 1353.61 436.11, 1355.98 435.97, 1360.15 435.84 C 1364.32 435.71, 1366.75 435.95, 1370.25 435.83 C 1373.76 435.72, 1375.35 435.74, 1377.69 435.28 C 1380.03 434.82, 1381.11 434.37, 1381.96 433.53 C 1382.81 432.70, 1382.83 431.94, 1381.96 431.11 C 1381.08 430.28, 1379.97 429.76, 1377.59 429.37 C 1375.21 428.99, 1373.60 429.10, 1370.06 429.19 C 1366.52 429.28, 1364.10 429.62, 1359.90 429.84 C 1355.70 430.06, 1353.33 430.18, 1349.06 430.27 C 1344.79 430.37, 1342.48 430.35, 1338.57 430.31 C 1334.65 430.27, 1332.47 429.77, 1329.50 430.09 C 1326.53 430.41, 1325.38 431.08, 1323.70 431.91 C 1322.03 432.73, 1321.56 433.16, 1321.12 434.22 C 1320.67 435.28, 1320.80 436.29, 1321.48 437.21" style="stroke: black; fill: black;"/><path d="M 1428.53,430.10 C 1428.30 428.91, 1427.73 428.19, 1426.25 427.24 C 1424.78 426.29, 1423.66 425.72, 1421.16 425.34 C 1418.66 424.96, 1416.87 424.90, 1413.76 425.35 C 1410.66 425.81, 1408.88 426.65, 1405.63 427.63 C 1402.38 428.61, 1400.54 429.06, 1397.51 430.25 C 1394.48 431.45, 1392.76 431.97, 1390.47 433.60 C 1388.19 435.24, 1387.18 436.36, 1386.09 438.43 C 1385.00 440.50, 1384.81 441.74, 1385.01 443.94 C 1385.21 446.13, 1385.71 447.39, 1387.09 449.39 C 1388.47 451.39, 1389.67 452.36, 1391.92 453.92 C 1394.18 455.47, 1395.75 455.98, 1398.36 457.14 C 1400.98 458.31, 1402.53 458.77, 1405.01 459.73 C 1407.49 460.69, 1408.83 461.21, 1410.76 461.94 C 1412.70 462.67, 1413.54 463.05, 1414.67 463.36 C 1415.79 463.68, 1416.20 463.62, 1416.39 463.50 C 1416.57 463.38, 1416.48 462.94, 1415.59 462.78 C 1414.70 462.61, 1413.88 462.40, 1411.93 462.68 C 1409.99 462.97, 1408.63 463.46, 1405.86 464.19 C 1403.09 464.92, 1401.33 465.62, 1398.08 466.34 C 1394.83 467.06, 1392.91 467.36, 1389.60 467.80 C 1386.29 468.24, 1384.48 468.19, 1381.55 468.53 C 1378.62 468.88, 1377.23 468.92, 1374.95 469.52 C 1372.67 470.11, 1371.08 470.50, 1370.14 471.51 C 1369.20 472.52, 1369.21 473.61, 1370.24 474.55 C 1371.28 475.50, 1372.91 475.87, 1375.31 476.22 C 1377.72 476.56, 1379.22 476.48, 1382.27 476.27 C 1385.32 476.05, 1387.14 475.57, 1390.55 475.14 C 1393.96 474.71, 1395.87 474.47, 1399.33 474.12 C 1402.79 473.76, 1404.73 473.90, 1407.83 473.37 C 1410.94 472.83, 1412.54 472.58, 1414.84 471.45 C 1417.14 470.33, 1418.15 469.46, 1419.33 467.74 C 1420.51 466.02, 1420.82 464.74, 1420.74 462.84 C 1420.65 460.94, 1420.13 459.88, 1418.89 458.24 C 1417.66 456.61, 1416.60 456.01, 1414.56 454.66 C 1412.52 453.32, 1411.12 452.74, 1408.68 451.51 C 1406.24 450.27, 1404.77 449.65, 1402.38 448.49 C 1399.99 447.33, 1398.72 446.65, 1396.73 445.71 C 1394.74 444.77, 1393.73 444.37, 1392.43 443.80 C 1391.13 443.23, 1390.55 443.23, 1390.24 442.87 C 1389.92 442.52, 1390.00 442.53, 1390.85 442.04 C 1391.69 441.56, 1392.55 441.26, 1394.46 440.45 C 1396.37 439.64, 1397.76 438.93, 1400.42 437.99 C 1403.07 437.05, 1404.84 436.36, 1407.73 435.75 C 1410.62 435.14, 1412.30 435.14, 1414.88 434.93 C 1417.47 434.73, 1418.71 434.85, 1420.66 434.71 C 1422.61 434.57, 1423.29 434.54, 1424.64 434.23 C 1425.99 433.93, 1426.62 434.03, 1427.40 433.21 C 1428.17 432.38, 1428.76 431.29, 1428.53 430.10" style="stroke: black; fill: black;"/></svg>