<svg xmlns="http://www.w3.org/2000/svg" id="canvas" viewBox="305.068 360.040 1129.765 167.112"><path d="M 347.02,381.40 C 345.82 381.84, 345.22 382.57, 344.16 384.42 C 343.10 386.27, 342.73 387.53, 341.73 390.66 C 340.73 393.78, 340.41 395.95, 339.16 400.05 C 337.90 404.15, 337.12 406.56, 335.45 411.17 C 333.78 415.78, 332.73 418.33, 330.79 423.12 C 328.86 427.90, 327.71 430.45, 325.78 435.10 C 323.84 439.75, 322.88 442.15, 321.13 446.38 C 319.39 450.60, 318.55 452.66, 317.06 456.22 C 315.56 459.79, 314.64 461.36, 313.66 464.21 C 312.68 467.05, 312.51 468.38, 312.17 470.44 C 311.83 472.51, 311.85 473.26, 311.96 474.53 C 312.07 475.81, 312.18 476.18, 312.72 476.82 C 313.25 477.46, 314.00 477.61, 314.63 477.72 C 315.25 477.83, 315.93 477.64, 315.83 477.37 C 315.73 477.11, 314.32 476.50, 314.12 476.40 C 313.93 476.29, 314.40 476.77, 314.87 476.84 C 315.35 476.90, 316.01 477.06, 316.52 476.75 C 317.04 476.43, 317.04 476.23, 317.45 475.28 C 317.86 474.32, 318.01 473.76, 318.58 471.96 C 319.15 470.16, 319.55 469.04, 320.31 466.28 C 321.08 463.52, 321.31 461.77, 322.41 458.16 C 323.51 454.54, 324.26 452.45, 325.82 448.20 C 327.37 443.95, 328.29 441.55, 330.18 436.91 C 332.06 432.26, 333.20 429.72, 335.24 424.97 C 337.28 420.21, 338.39 417.66, 340.37 413.13 C 342.34 408.59, 343.34 406.26, 345.12 402.29 C 346.90 398.32, 348.08 396.44, 349.27 393.28 C 350.45 390.12, 350.87 388.72, 351.04 386.51 C 351.22 384.30, 350.94 383.26, 350.14 382.23 C 349.33 381.21, 348.22 380.96, 347.02 381.40" style="stroke: black; fill: black;"/><path d="M 308.86,377.69 C 309.49 378.51, 309.89 378.69, 311.24 378.97 C 312.58 379.25, 313.38 379.50, 315.57 379.09 C 317.76 378.68, 319.00 377.90, 322.20 376.94 C 325.40 375.97, 327.46 375.29, 331.59 374.28 C 335.72 373.26, 338.08 372.74, 342.86 371.88 C 347.63 371.02, 350.41 370.61, 355.46 369.99 C 360.52 369.37, 363.24 369.11, 368.12 368.78 C 373.00 368.45, 375.51 368.29, 379.87 368.34 C 384.23 368.39, 386.41 368.60, 389.91 369.05 C 393.40 369.49, 394.95 370.10, 397.34 370.56 C 399.72 371.03, 400.47 371.19, 401.81 371.35 C 403.15 371.50, 403.38 371.35, 404.05 371.35 C 404.71 371.35, 404.66 371.54, 405.14 371.35 C 405.62 371.16, 406.26 370.97, 406.47 370.40 C 406.68 369.82, 406.70 369.37, 406.19 368.49 C 405.69 367.61, 405.42 366.96, 403.93 365.99 C 402.44 365.03, 401.46 364.24, 398.74 363.66 C 396.03 363.08, 394.13 363.19, 390.34 363.09 C 386.56 363.00, 384.32 363.03, 379.80 363.20 C 375.29 363.38, 372.75 363.57, 367.77 363.96 C 362.79 364.35, 360.05 364.62, 354.91 365.16 C 349.77 365.69, 346.95 366.06, 342.08 366.65 C 337.20 367.23, 334.83 367.65, 330.52 368.09 C 326.22 368.53, 324.02 368.45, 320.55 368.84 C 317.09 369.24, 315.43 369.29, 313.20 370.05 C 310.97 370.80, 310.40 371.64, 309.38 372.61 C 308.36 373.58, 308.20 373.88, 308.09 374.89 C 307.99 375.91, 308.23 376.88, 308.86 377.69" style="stroke: black; fill: black;"/><path d="M 399.87,426.66 C 398.34 426.58, 396.67 426.98, 394.48 428.73 C 392.29 430.49, 391.25 432.35, 388.91 435.45 C 386.58 438.55, 385.11 440.76, 382.79 444.23 C 380.46 447.69, 379.37 449.61, 377.30 452.76 C 375.23 455.91, 374.02 457.38, 372.44 459.99 C 370.86 462.60, 370.24 463.85, 369.39 465.82 C 368.55 467.78, 368.30 468.53, 368.24 469.80 C 368.17 471.07, 368.69 471.58, 369.08 472.15 C 369.46 472.72, 369.89 472.59, 370.16 472.65 C 370.43 472.72, 370.18 472.45, 370.41 472.46 C 370.64 472.48, 370.76 472.83, 371.32 472.74 C 371.87 472.65, 372.36 472.76, 373.20 472.03 C 374.03 471.30, 374.39 470.75, 375.49 469.08 C 376.60 467.41, 377.25 466.25, 378.72 463.68 C 380.18 461.12, 380.89 459.38, 382.81 456.26 C 384.73 453.15, 385.94 451.34, 388.31 448.09 C 390.68 444.84, 392.34 442.83, 394.68 440.00 C 397.02 437.16, 398.52 436.10, 400.01 433.93 C 401.50 431.76, 402.16 430.61, 402.14 429.15 C 402.11 427.70, 401.40 426.75, 399.87 426.66" style="stroke: black; fill: black;"/><path d="M 419.63,382.12 C 418.56 381.40, 417.81 381.25, 417.12 381.57 C 416.43 381.90, 416.38 382.76, 416.17 383.75 C 415.97 384.75, 415.90 385.61, 416.09 386.54 C 416.27 387.46, 416.51 388.06, 417.11 388.37 C 417.70 388.67, 418.16 388.55, 419.08 388.06 C 420.00 387.58, 420.93 386.60, 421.71 385.93 C 422.48 385.26, 422.63 384.86, 422.96 384.74 C 423.29 384.61, 423.27 384.95, 423.36 385.30 C 423.45 385.65, 423.37 386.13, 423.40 386.50 C 423.44 386.86, 423.70 387.38, 423.52 387.11 C 423.34 386.85, 423.26 386.19, 422.49 385.19 C 421.71 384.19, 420.71 382.85, 419.63 382.12" style="stroke: black; fill: black;"/><path d="M 463.08,381.01 C 461.91 381.01, 461.21 381.28, 459.80 382.62 C 458.38 383.95, 457.55 384.87, 456.00 387.68 C 454.44 390.49, 453.93 392.68, 452.02 396.66 C 450.10 400.64, 448.87 403.03, 446.43 407.56 C 443.98 412.10, 442.50 414.63, 439.81 419.33 C 437.12 424.03, 435.57 426.50, 432.97 431.05 C 430.37 435.61, 429.04 437.95, 426.82 442.10 C 424.59 446.26, 423.59 448.30, 421.85 451.83 C 420.11 455.36, 418.97 456.85, 418.12 459.76 C 417.26 462.67, 417.25 464.10, 417.58 466.39 C 417.90 468.68, 418.51 470.03, 419.72 471.21 C 420.92 472.39, 422.58 472.61, 423.60 472.29 C 424.62 471.97, 424.86 470.40, 424.81 469.60 C 424.77 468.79, 423.64 468.92, 423.38 468.27 C 423.11 467.62, 423.18 467.66, 423.48 466.35 C 423.77 465.04, 424.14 464.18, 424.85 461.72 C 425.56 459.26, 425.77 457.53, 427.03 454.05 C 428.30 450.57, 429.19 448.46, 431.18 444.31 C 433.16 440.17, 434.43 437.83, 436.96 433.31 C 439.49 428.78, 441.04 426.32, 443.83 421.69 C 446.62 417.07, 448.16 414.55, 450.91 410.18 C 453.66 405.81, 455.11 403.51, 457.57 399.85 C 460.04 396.18, 461.63 394.58, 463.25 391.84 C 464.88 389.10, 465.22 387.98, 465.70 386.14 C 466.18 384.30, 466.17 383.65, 465.65 382.62 C 465.12 381.60, 464.25 381.01, 463.08 381.01" style="stroke: black; fill: black;"/><path d="M 485.54,431.44 C 484.35 431.57, 483.89 432.13, 482.62 433.28 C 481.35 434.44, 480.56 435.18, 479.18 437.22 C 477.80 439.27, 477.19 440.92, 475.72 443.52 C 474.25 446.13, 473.42 447.72, 471.82 450.23 C 470.22 452.74, 469.06 453.95, 467.72 456.09 C 466.37 458.23, 465.56 459.24, 465.09 460.93 C 464.63 462.62, 464.73 463.53, 465.41 464.53 C 466.08 465.53, 467.05 466.02, 468.48 465.94 C 469.90 465.86, 470.97 465.58, 472.53 464.12 C 474.09 462.66, 474.60 461.22, 476.26 458.64 C 477.91 456.06, 478.58 454.15, 480.79 451.20 C 483.00 448.26, 484.52 446.66, 487.32 443.92 C 490.11 441.18, 491.85 439.69, 494.79 437.50 C 497.72 435.31, 499.39 434.41, 501.98 432.96 C 504.57 431.50, 505.88 431.05, 507.73 430.23 C 509.58 429.40, 510.30 429.07, 511.23 428.84 C 512.15 428.61, 512.24 428.63, 512.36 429.06 C 512.47 429.49, 512.19 429.83, 511.81 430.99 C 511.42 432.15, 511.09 433.01, 510.45 434.87 C 509.81 436.73, 509.43 438.03, 508.61 440.29 C 507.79 442.55, 507.25 443.94, 506.34 446.17 C 505.43 448.41, 504.61 449.51, 504.05 451.46 C 503.48 453.42, 503.14 454.44, 503.52 455.96 C 503.90 457.47, 504.61 458.39, 505.94 459.04 C 507.27 459.69, 508.38 459.82, 510.18 459.21 C 511.97 458.60, 512.99 457.98, 514.93 455.99 C 516.87 454.01, 517.47 451.99, 519.87 449.27 C 522.26 446.55, 523.85 444.91, 526.89 442.39 C 529.92 439.87, 531.83 438.56, 535.05 436.68 C 538.26 434.80, 540.11 434.04, 542.98 432.98 C 545.85 431.93, 547.31 431.83, 549.40 431.42 C 551.49 431.01, 552.32 430.86, 553.42 430.95 C 554.52 431.04, 554.69 431.19, 554.89 431.89 C 555.10 432.58, 554.89 433.03, 554.45 434.44 C 554.01 435.85, 553.52 436.79, 552.69 438.92 C 551.86 441.05, 551.37 442.55, 550.30 445.10 C 549.24 447.65, 548.41 449.11, 547.35 451.66 C 546.30 454.21, 545.66 455.62, 545.01 457.86 C 544.36 460.09, 544.16 461.18, 544.10 462.82 C 544.04 464.46, 544.32 465.11, 544.71 466.05 C 545.10 467.00, 545.44 467.31, 546.06 467.56 C 546.68 467.82, 547.24 467.55, 547.80 467.33 C 548.36 467.11, 548.30 467.01, 548.84 466.47 C 549.38 465.92, 549.78 465.75, 550.50 464.63 C 551.22 463.51, 551.43 462.69, 552.43 460.86 C 553.43 459.03, 554.21 457.89, 555.48 455.48 C 556.75 453.06, 557.57 451.54, 558.80 448.77 C 560.02 445.99, 560.95 444.44, 561.62 441.61 C 562.29 438.78, 562.48 437.16, 562.13 434.60 C 561.77 432.04, 561.24 430.68, 559.83 428.80 C 558.42 426.92, 557.38 426.09, 555.09 425.20 C 552.80 424.31, 551.31 424.04, 548.40 424.34 C 545.48 424.65, 543.82 425.32, 540.51 426.71 C 537.20 428.09, 535.37 429.17, 531.85 431.27 C 528.33 433.37, 526.36 434.75, 522.91 437.21 C 519.46 439.67, 517.68 441.23, 514.60 443.57 C 511.52 445.91, 509.49 446.79, 507.51 448.90 C 505.53 451.01, 505.09 452.38, 504.71 454.11 C 504.33 455.83, 504.86 456.74, 505.62 457.51 C 506.37 458.28, 507.33 458.43, 508.50 457.97 C 509.68 457.51, 510.27 456.80, 511.49 455.23 C 512.71 453.65, 513.38 452.39, 514.61 450.08 C 515.85 447.76, 516.66 446.30, 517.66 443.65 C 518.66 441.00, 519.27 439.49, 519.60 436.84 C 519.94 434.20, 519.95 432.70, 519.31 430.43 C 518.68 428.16, 517.97 426.97, 516.41 425.49 C 514.85 424.02, 513.72 423.44, 511.51 423.06 C 509.30 422.67, 507.96 422.78, 505.34 423.56 C 502.73 424.34, 501.32 425.17, 498.43 426.95 C 495.54 428.73, 494.00 430.00, 490.90 432.47 C 487.80 434.93, 486.04 436.48, 482.95 439.27 C 479.86 442.06, 478.28 443.70, 475.44 446.43 C 472.59 449.17, 470.90 450.47, 468.73 452.95 C 466.56 455.42, 465.43 456.67, 464.58 458.80 C 463.73 460.93, 463.95 462.15, 464.48 463.61 C 465.01 465.06, 465.95 465.77, 467.23 466.06 C 468.50 466.35, 469.37 466.07, 470.84 465.06 C 472.32 464.05, 472.98 463.02, 474.60 461.01 C 476.21 459.01, 477.14 457.56, 478.94 455.03 C 480.74 452.51, 481.84 451.00, 483.59 448.40 C 485.34 445.80, 486.57 444.42, 487.70 442.03 C 488.82 439.63, 489.05 438.30, 489.23 436.43 C 489.40 434.55, 489.30 433.65, 488.56 432.65 C 487.82 431.65, 486.73 431.31, 485.54 431.44" style="stroke: black; fill: black;"/><path d="M 624.34,432.89 C 624.68 431.74, 624.49 430.90, 623.72 429.78 C 622.95 428.66, 622.20 428.03, 620.48 427.29 C 618.76 426.55, 617.49 426.15, 615.12 426.07 C 612.76 425.99, 611.36 426.18, 608.64 426.91 C 605.91 427.64, 604.44 428.23, 601.50 429.74 C 598.56 431.24, 596.99 432.36, 593.95 434.45 C 590.90 436.53, 589.18 437.79, 586.28 440.18 C 583.38 442.57, 581.77 443.87, 579.44 446.41 C 577.11 448.96, 575.90 450.28, 574.62 452.89 C 573.35 455.50, 573.03 456.99, 573.06 459.46 C 573.10 461.94, 573.50 463.30, 574.79 465.26 C 576.09 467.22, 577.21 468.18, 579.54 469.27 C 581.86 470.35, 583.44 470.73, 586.40 470.68 C 589.36 470.63, 591.07 470.12, 594.33 469.02 C 597.59 467.92, 599.33 466.96, 602.70 465.17 C 606.07 463.37, 607.87 462.26, 611.18 460.03 C 614.50 457.80, 616.21 456.48, 619.29 454.03 C 622.36 451.58, 623.95 450.20, 626.56 447.78 C 629.17 445.36, 630.65 444.23, 632.36 441.95 C 634.07 439.67, 634.80 438.35, 635.13 436.38 C 635.46 434.41, 635.11 433.17, 634.01 432.09 C 632.91 431.01, 631.55 430.58, 629.63 430.97 C 627.71 431.36, 626.24 432.10, 624.39 434.04 C 622.54 435.98, 621.89 437.84, 620.37 440.68 C 618.86 443.51, 618.08 445.29, 616.80 448.21 C 615.53 451.13, 614.75 452.61, 613.99 455.26 C 613.23 457.92, 613.00 459.22, 613.01 461.50 C 613.02 463.79, 613.25 464.99, 614.05 466.69 C 614.85 468.39, 615.81 469.16, 617.02 470.01 C 618.23 470.85, 619.06 471.01, 620.10 470.92 C 621.15 470.84, 621.83 470.45, 622.22 469.57 C 622.62 468.70, 622.30 467.38, 622.07 466.53 C 621.84 465.69, 621.40 465.67, 621.09 465.34 C 620.78 465.02, 620.83 465.11, 620.52 464.91 C 620.20 464.71, 619.67 464.87, 619.51 464.34 C 619.36 463.81, 619.32 463.53, 619.74 462.27 C 620.16 461.02, 620.64 460.10, 621.60 458.07 C 622.57 456.04, 623.14 454.60, 624.58 452.14 C 626.02 449.68, 627.17 448.18, 628.82 445.76 C 630.47 443.33, 631.80 442.12, 632.82 440.01 C 633.83 437.89, 634.00 436.67, 633.91 435.20 C 633.83 433.73, 633.23 433.02, 632.38 432.65 C 631.53 432.29, 630.89 432.51, 629.66 433.40 C 628.43 434.29, 627.82 435.20, 626.23 437.11 C 624.64 439.01, 623.91 440.54, 621.71 442.93 C 619.52 445.32, 618.06 446.73, 615.25 449.06 C 612.44 451.39, 610.77 452.63, 607.65 454.58 C 604.53 456.52, 602.76 457.46, 599.64 458.77 C 596.52 460.08, 594.79 460.49, 592.05 461.11 C 589.31 461.74, 588.02 461.69, 585.95 461.90 C 583.89 462.11, 583.03 462.19, 581.74 462.15 C 580.44 462.12, 579.99 462.17, 579.49 461.73 C 578.98 461.29, 578.89 461.01, 579.21 459.96 C 579.53 458.92, 579.94 458.22, 581.09 456.51 C 582.23 454.79, 582.99 453.56, 584.93 451.39 C 586.87 449.22, 588.19 447.80, 590.79 445.67 C 593.39 443.55, 595.09 442.40, 597.94 440.75 C 600.79 439.11, 602.44 438.49, 605.04 437.46 C 607.64 436.43, 608.95 436.13, 610.94 435.62 C 612.92 435.11, 613.64 434.92, 614.95 434.92 C 616.27 434.91, 616.58 435.38, 617.52 435.59 C 618.46 435.80, 618.76 435.97, 619.66 435.95 C 620.56 435.93, 621.08 436.11, 622.02 435.50 C 622.96 434.88, 624.00 434.03, 624.34 432.89" style="stroke: black; fill: black;"/><path d="M 660.87,430.06 C 659.77 429.98, 659.39 430.24, 658.15 431.05 C 656.92 431.86, 656.10 432.38, 654.68 434.12 C 653.27 435.86, 652.49 437.27, 651.06 439.74 C 649.63 442.20, 649.04 443.90, 647.55 446.46 C 646.06 449.01, 644.94 450.26, 643.62 452.53 C 642.30 454.80, 641.42 455.92, 640.94 457.80 C 640.46 459.68, 640.53 460.69, 641.22 461.92 C 641.91 463.15, 642.88 463.79, 644.40 463.94 C 645.93 464.09, 647.12 463.93, 648.85 462.67 C 650.57 461.42, 651.25 460.14, 653.04 457.68 C 654.82 455.23, 655.49 453.26, 657.78 450.41 C 660.07 447.56, 661.61 446.00, 664.47 443.43 C 667.33 440.87, 669.05 439.56, 672.08 437.60 C 675.11 435.64, 676.93 434.86, 679.62 433.62 C 682.32 432.39, 683.68 432.03, 685.57 431.42 C 687.47 430.81, 688.13 430.57, 689.08 430.58 C 690.04 430.60, 690.16 430.75, 690.34 431.49 C 690.52 432.22, 690.30 432.75, 689.99 434.25 C 689.68 435.76, 689.40 436.81, 688.81 439.01 C 688.22 441.20, 687.90 442.66, 687.05 445.24 C 686.19 447.81, 685.49 449.29, 684.54 451.89 C 683.59 454.48, 682.97 455.89, 682.29 458.22 C 681.60 460.55, 681.23 461.70, 681.11 463.54 C 680.99 465.38, 681.27 466.28, 681.69 467.41 C 682.12 468.54, 682.55 468.88, 683.24 469.20 C 683.93 469.51, 684.52 469.27, 685.15 468.99 C 685.77 468.70, 685.80 468.49, 686.36 467.76 C 686.92 467.02, 687.25 466.66, 687.96 465.33 C 688.66 464.00, 688.92 463.13, 689.89 461.12 C 690.87 459.11, 691.66 457.85, 692.82 455.27 C 693.98 452.69, 694.67 451.09, 695.69 448.22 C 696.72 445.34, 697.50 443.76, 697.96 440.88 C 698.41 438.00, 698.49 436.34, 697.96 433.80 C 697.42 431.25, 696.78 429.92, 695.27 428.15 C 693.75 426.38, 692.63 425.65, 690.37 424.93 C 688.11 424.22, 686.73 424.09, 683.97 424.57 C 681.22 425.04, 679.68 425.77, 676.59 427.32 C 673.51 428.86, 671.80 430.05, 668.54 432.29 C 665.27 434.53, 663.50 435.92, 660.29 438.52 C 657.08 441.13, 655.44 442.73, 652.49 445.32 C 649.55 447.90, 647.73 449.12, 645.54 451.44 C 643.35 453.76, 642.35 454.96, 641.55 456.93 C 640.74 458.90, 641.00 460.04, 641.52 461.28 C 642.03 462.53, 642.96 463.08, 644.14 463.16 C 645.32 463.24, 646.05 462.86, 647.41 461.70 C 648.76 460.54, 649.37 459.41, 650.91 457.34 C 652.45 455.26, 653.37 453.79, 655.11 451.33 C 656.86 448.86, 658.05 447.45, 659.64 445.03 C 661.22 442.62, 662.11 441.35, 663.05 439.25 C 663.98 437.16, 664.19 436.12, 664.30 434.56 C 664.42 432.99, 664.32 432.34, 663.63 431.44 C 662.95 430.54, 661.97 430.14, 660.87 430.06" style="stroke: black; fill: black;"/><path d="M 751.40,379.80 C 750.17 379.81, 749.51 380.28, 748.13 381.41 C 746.76 382.55, 745.93 383.47, 744.52 385.48 C 743.11 387.48, 742.35 388.92, 741.09 391.44 C 739.82 393.97, 739.06 395.59, 738.20 398.11 C 737.35 400.62, 737.02 401.96, 736.83 404.03 C 736.63 406.09, 736.62 407.35, 737.23 408.43 C 737.84 409.51, 738.73 409.77, 739.88 409.42 C 741.02 409.06, 741.66 408.10, 742.97 406.65 C 744.27 405.20, 744.98 404.25, 746.40 402.16 C 747.83 400.08, 748.75 398.61, 750.10 396.22 C 751.44 393.83, 752.20 392.44, 753.12 390.21 C 754.04 387.98, 754.48 386.83, 754.71 385.05 C 754.94 383.28, 754.95 382.39, 754.29 381.34 C 753.63 380.29, 752.63 379.79, 751.40 379.80" style="stroke: black; fill: black;"/><path d="M 801.46,419.38 C 801.10 418.28, 800.58 417.69, 799.13 417.02 C 797.68 416.35, 796.52 415.99, 794.20 416.04 C 791.89 416.08, 790.30 416.37, 787.55 417.24 C 784.79 418.12, 783.26 419.04, 780.44 420.41 C 777.62 421.77, 775.98 422.43, 773.47 424.06 C 770.95 425.70, 769.60 426.62, 767.87 428.58 C 766.14 430.55, 765.44 431.72, 764.83 433.90 C 764.21 436.08, 764.20 437.35, 764.78 439.50 C 765.37 441.65, 766.11 442.85, 767.75 444.65 C 769.38 446.44, 770.68 447.17, 772.96 448.49 C 775.23 449.81, 776.69 450.23, 779.12 451.24 C 781.54 452.25, 782.95 452.72, 785.09 453.55 C 787.23 454.38, 788.33 454.83, 789.82 455.40 C 791.31 455.98, 791.91 456.18, 792.54 456.42 C 793.16 456.65, 793.23 456.52, 792.96 456.59 C 792.68 456.66, 792.29 456.52, 791.16 456.79 C 790.03 457.05, 789.20 457.30, 787.31 457.91 C 785.43 458.51, 784.18 458.99, 781.73 459.79 C 779.28 460.59, 777.82 461.22, 775.07 461.89 C 772.32 462.57, 770.69 462.70, 767.99 463.16 C 765.28 463.61, 763.84 463.82, 761.54 464.17 C 759.24 464.53, 758.17 464.67, 756.49 464.94 C 754.80 465.21, 754.13 465.15, 753.12 465.53 C 752.11 465.91, 751.87 466.38, 751.43 466.86 C 750.99 467.33, 751.06 467.50, 750.92 467.91 C 750.77 468.32, 750.67 468.47, 750.72 468.91 C 750.77 469.36, 750.70 469.61, 751.16 470.16 C 751.61 470.71, 751.87 471.25, 753.00 471.67 C 754.14 472.09, 754.94 472.16, 756.81 472.27 C 758.68 472.38, 759.86 472.35, 762.34 472.24 C 764.83 472.12, 766.33 472.05, 769.23 471.68 C 772.14 471.32, 773.81 470.95, 776.85 470.41 C 779.89 469.88, 781.59 469.77, 784.44 469.00 C 787.29 468.24, 788.81 467.83, 791.11 466.60 C 793.41 465.37, 794.54 464.59, 795.94 462.87 C 797.34 461.15, 797.82 459.96, 798.10 457.99 C 798.38 456.02, 798.16 454.84, 797.34 453.02 C 796.51 451.21, 795.68 450.40, 793.99 448.93 C 792.30 447.46, 791.09 446.91, 788.89 445.65 C 786.69 444.40, 785.30 443.79, 782.99 442.66 C 780.68 441.53, 779.37 440.90, 777.32 440.00 C 775.27 439.09, 774.17 438.71, 772.75 438.15 C 771.32 437.60, 770.69 437.59, 770.20 437.21 C 769.71 436.82, 769.76 436.78, 770.30 436.21 C 770.85 435.64, 771.41 435.24, 772.93 434.36 C 774.46 433.48, 775.67 432.90, 777.91 431.80 C 780.16 430.70, 781.66 429.84, 784.17 428.84 C 786.69 427.85, 788.21 427.49, 790.50 426.82 C 792.78 426.14, 793.90 426.00, 795.58 425.46 C 797.26 424.92, 797.84 424.71, 798.91 424.12 C 799.98 423.53, 800.41 423.45, 800.92 422.50 C 801.43 421.56, 801.82 420.48, 801.46 419.38" style="stroke: black; fill: black;"/><path d="M 965.60,388.50 C 964.47 388.93, 964.09 389.63, 963.11 391.27 C 962.14 392.90, 961.55 393.89, 960.72 396.69 C 959.89 399.50, 959.95 401.62, 958.97 405.28 C 957.99 408.94, 957.35 410.97, 955.83 414.99 C 954.31 419.01, 953.28 421.21, 951.36 425.38 C 949.44 429.55, 948.31 431.76, 946.23 435.84 C 944.15 439.92, 943.03 442.03, 940.97 445.77 C 938.90 449.51, 937.84 451.39, 935.91 454.53 C 933.98 457.67, 932.72 459.00, 931.33 461.47 C 929.94 463.93, 929.51 465.24, 928.96 466.85 C 928.41 468.45, 928.46 468.69, 928.57 469.49 C 928.67 470.28, 929.14 470.57, 929.50 470.82 C 929.85 471.07, 930.50 470.74, 930.36 470.74 C 930.22 470.73, 928.92 470.61, 928.79 470.81 C 928.65 471.01, 929.11 471.55, 929.69 471.75 C 930.28 471.95, 930.77 472.14, 931.70 471.81 C 932.64 471.49, 933.14 471.47, 934.38 470.13 C 935.61 468.78, 936.51 467.62, 937.88 465.07 C 939.25 462.53, 939.65 460.76, 941.23 457.40 C 942.81 454.05, 943.84 452.14, 945.77 448.30 C 947.70 444.46, 948.80 442.33, 950.88 438.20 C 952.97 434.08, 954.10 431.86, 956.18 427.69 C 958.25 423.51, 959.36 421.31, 961.27 417.31 C 963.17 413.31, 964.10 411.28, 965.70 407.67 C 967.31 404.05, 968.42 402.17, 969.29 399.22 C 970.16 396.27, 970.14 394.94, 970.04 392.91 C 969.94 390.88, 969.66 389.96, 968.77 389.08 C 967.88 388.20, 966.73 388.06, 965.60 388.50" style="stroke: black; fill: black;"/><path d="M 954.05,381.95 C 955.18 382.15, 955.62 381.64, 957.02 381.06 C 958.42 380.48, 959.13 380.17, 961.05 379.05 C 962.97 377.92, 963.89 376.73, 966.63 375.44 C 969.37 374.14, 971.16 373.42, 974.74 372.58 C 978.31 371.74, 980.58 371.43, 984.51 371.26 C 988.45 371.09, 990.64 371.17, 994.40 371.73 C 998.15 372.29, 1000.15 372.83, 1003.29 374.04 C 1006.42 375.25, 1007.93 376.21, 1010.07 377.79 C 1012.22 379.37, 1013.00 380.25, 1014.02 381.96 C 1015.04 383.66, 1015.25 384.39, 1015.17 386.33 C 1015.09 388.26, 1014.83 389.20, 1013.63 391.62 C 1012.43 394.03, 1011.58 395.59, 1009.17 398.41 C 1006.76 401.23, 1005.07 402.88, 1001.57 405.72 C 998.06 408.56, 995.82 410.05, 991.66 412.61 C 987.49 415.16, 985.05 416.46, 980.76 418.50 C 976.47 420.54, 974.09 421.47, 970.22 422.81 C 966.34 424.15, 964.29 424.29, 961.40 425.21 C 958.51 426.14, 957.45 426.59, 955.76 427.43 C 954.07 428.27, 953.45 428.60, 952.96 429.41 C 952.47 430.22, 952.52 430.89, 953.31 431.49 C 954.09 432.09, 954.86 432.40, 956.87 432.42 C 958.88 432.44, 960.28 432.49, 963.35 431.59 C 966.42 430.69, 968.30 429.64, 972.22 427.93 C 976.15 426.22, 978.55 425.23, 982.96 423.03 C 987.37 420.83, 989.87 419.54, 994.27 416.95 C 998.66 414.36, 1001.02 412.94, 1004.92 410.08 C 1008.82 407.22, 1010.77 405.70, 1013.77 402.64 C 1016.77 399.59, 1018.25 398.05, 1019.92 394.81 C 1021.59 391.57, 1022.11 389.71, 1022.12 386.44 C 1022.13 383.18, 1021.59 381.33, 1019.97 378.50 C 1018.35 375.67, 1016.94 374.35, 1014.03 372.29 C 1011.11 370.24, 1009.15 369.51, 1005.40 368.22 C 1001.64 366.94, 999.46 366.47, 995.25 365.87 C 991.05 365.26, 988.71 365.17, 984.37 365.20 C 980.03 365.22, 977.68 365.45, 973.56 365.98 C 969.45 366.52, 967.29 366.81, 963.79 367.86 C 960.28 368.90, 958.40 369.60, 956.03 371.23 C 953.65 372.86, 952.86 374.25, 951.93 376.01 C 951.01 377.77, 950.96 378.85, 951.39 380.04 C 951.81 381.23, 952.93 381.74, 954.05 381.95" style="stroke: black; fill: black;"/><path d="M 1025.01,441.61 C 1023.95 441.72, 1023.69 442.00, 1022.70 442.85 C 1021.70 443.71, 1021.11 444.26, 1020.02 445.89 C 1018.93 447.52, 1018.45 448.75, 1017.25 450.99 C 1016.05 453.24, 1015.48 454.71, 1014.01 457.13 C 1012.54 459.55, 1011.39 460.86, 1009.91 463.09 C 1008.43 465.32, 1007.48 466.48, 1006.61 468.28 C 1005.75 470.09, 1005.44 470.95, 1005.59 472.11 C 1005.75 473.27, 1006.36 473.88, 1007.40 474.08 C 1008.44 474.27, 1009.44 474.14, 1010.80 473.09 C 1012.15 472.04, 1012.92 471.06, 1014.18 468.82 C 1015.44 466.57, 1015.52 464.66, 1017.10 461.86 C 1018.68 459.07, 1019.79 457.49, 1022.07 454.84 C 1024.34 452.19, 1025.80 450.84, 1028.47 448.62 C 1031.14 446.40, 1032.64 445.35, 1035.41 443.76 C 1038.18 442.17, 1039.64 441.60, 1042.30 440.67 C 1044.96 439.74, 1046.38 439.50, 1048.71 439.10 C 1051.04 438.71, 1051.98 438.77, 1053.96 438.71 C 1055.94 438.65, 1056.98 438.96, 1058.61 438.81 C 1060.24 438.66, 1061.25 438.69, 1062.11 437.97 C 1062.97 437.26, 1063.35 436.34, 1062.91 435.25 C 1062.46 434.16, 1061.64 433.36, 1059.90 432.52 C 1058.15 431.68, 1056.69 431.25, 1054.18 431.06 C 1051.66 430.88, 1050.21 431.02, 1047.32 431.60 C 1044.42 432.18, 1042.77 432.67, 1039.70 433.95 C 1036.63 435.23, 1035.05 436.10, 1031.97 438.01 C 1028.88 439.92, 1027.29 441.10, 1024.29 443.51 C 1021.30 445.93, 1019.76 447.36, 1016.99 450.07 C 1014.23 452.78, 1012.88 454.34, 1010.47 457.06 C 1008.06 459.77, 1006.37 461.07, 1004.93 463.64 C 1003.49 466.21, 1003.26 467.81, 1003.28 469.93 C 1003.30 472.04, 1003.93 473.12, 1005.03 474.23 C 1006.13 475.35, 1007.20 475.71, 1008.79 475.52 C 1010.38 475.34, 1011.30 474.74, 1012.99 473.31 C 1014.68 471.88, 1015.51 470.59, 1017.24 468.36 C 1018.96 466.13, 1019.86 464.63, 1021.62 462.16 C 1023.39 459.68, 1024.61 458.42, 1026.06 455.98 C 1027.51 453.55, 1028.22 452.16, 1028.88 449.99 C 1029.55 447.82, 1029.57 446.69, 1029.39 445.14 C 1029.22 443.60, 1028.87 442.98, 1028.00 442.27 C 1027.12 441.56, 1026.07 441.49, 1025.01 441.61" style="stroke: black; fill: black;"/><path d="M 1105.11,445.16 C 1105.25 443.99, 1104.97 443.27, 1104.01 442.21 C 1103.05 441.16, 1102.21 440.49, 1100.30 439.89 C 1098.40 439.28, 1097.02 439.08, 1094.50 439.18 C 1091.98 439.28, 1090.51 439.53, 1087.70 440.40 C 1084.90 441.27, 1083.36 441.99, 1080.48 443.53 C 1077.60 445.08, 1076.04 446.11, 1073.30 448.13 C 1070.55 450.16, 1068.91 451.25, 1066.76 453.65 C 1064.61 456.04, 1063.64 457.47, 1062.54 460.12 C 1061.45 462.76, 1061.10 464.29, 1061.28 466.88 C 1061.47 469.47, 1061.93 470.93, 1063.47 473.05 C 1065.01 475.18, 1066.30 476.29, 1068.98 477.49 C 1071.66 478.68, 1073.50 479.02, 1076.88 479.03 C 1080.26 479.05, 1082.19 478.46, 1085.86 477.57 C 1089.53 476.68, 1091.53 476.05, 1095.21 474.59 C 1098.89 473.13, 1100.89 472.19, 1104.27 470.27 C 1107.65 468.35, 1109.37 467.23, 1112.13 464.99 C 1114.89 462.74, 1116.28 461.56, 1118.07 459.06 C 1119.85 456.56, 1120.42 455.03, 1121.05 452.49 C 1121.69 449.95, 1121.59 448.57, 1121.22 446.37 C 1120.85 444.16, 1120.29 443.01, 1119.20 441.47 C 1118.11 439.94, 1117.12 439.20, 1115.77 438.69 C 1114.41 438.19, 1113.37 438.32, 1112.41 438.93 C 1111.46 439.54, 1111.08 440.72, 1111.00 441.76 C 1110.92 442.81, 1111.48 443.39, 1111.99 444.17 C 1112.51 444.95, 1113.03 445.02, 1113.58 445.68 C 1114.13 446.34, 1114.59 446.50, 1114.76 447.47 C 1114.92 448.43, 1114.97 449.07, 1114.42 450.51 C 1113.86 451.94, 1113.34 452.80, 1111.98 454.63 C 1110.62 456.46, 1109.81 457.69, 1107.61 459.67 C 1105.40 461.65, 1103.93 462.81, 1100.97 464.53 C 1098.02 466.25, 1096.15 467.11, 1092.84 468.27 C 1089.53 469.43, 1087.60 469.87, 1084.44 470.32 C 1081.28 470.77, 1079.58 470.60, 1077.02 470.51 C 1074.46 470.43, 1073.35 470.25, 1071.64 469.90 C 1069.93 469.56, 1069.26 469.42, 1068.47 468.80 C 1067.69 468.19, 1067.56 467.87, 1067.70 466.82 C 1067.85 465.76, 1068.20 465.02, 1069.22 463.53 C 1070.24 462.04, 1071.03 461.11, 1072.80 459.36 C 1074.57 457.60, 1075.76 456.38, 1078.07 454.77 C 1080.38 453.15, 1081.91 452.40, 1084.36 451.28 C 1086.80 450.16, 1088.17 449.74, 1090.29 449.17 C 1092.40 448.59, 1093.33 448.47, 1094.93 448.38 C 1096.54 448.29, 1097.12 448.61, 1098.31 448.70 C 1099.50 448.79, 1099.87 448.97, 1100.88 448.84 C 1101.89 448.72, 1102.50 448.80, 1103.34 448.07 C 1104.19 447.33, 1104.98 446.33, 1105.11 445.16" style="stroke: black; fill: black;"/><path d="M 1162.52,442.31 C 1161.46 442.34, 1161.06 442.57, 1159.91 443.61 C 1158.77 444.66, 1157.86 445.23, 1156.79 447.54 C 1155.73 449.85, 1155.67 451.70, 1154.59 455.17 C 1153.50 458.64, 1152.86 460.82, 1151.37 464.89 C 1149.89 468.96, 1148.93 471.28, 1147.16 475.51 C 1145.38 479.75, 1144.37 482.02, 1142.49 486.07 C 1140.61 490.13, 1139.63 492.21, 1137.75 495.78 C 1135.87 499.35, 1134.95 501.07, 1133.11 503.94 C 1131.26 506.80, 1130.15 507.96, 1128.55 510.09 C 1126.95 512.23, 1126.34 513.19, 1125.11 514.61 C 1123.88 516.03, 1123.29 516.49, 1122.41 517.18 C 1121.52 517.86, 1121.21 517.96, 1120.69 518.05 C 1120.18 518.13, 1120.16 517.74, 1119.83 517.62 C 1119.51 517.49, 1119.52 517.41, 1119.06 517.41 C 1118.60 517.42, 1118.29 517.23, 1117.51 517.65 C 1116.74 518.06, 1115.62 518.66, 1115.18 519.50 C 1114.74 520.34, 1114.82 521.03, 1115.31 521.84 C 1115.80 522.65, 1116.39 523.11, 1117.62 523.56 C 1118.84 524.01, 1119.79 524.27, 1121.43 524.10 C 1123.07 523.93, 1124.07 523.62, 1125.81 522.69 C 1127.55 521.76, 1128.38 521.11, 1130.13 519.44 C 1131.87 517.77, 1132.85 516.81, 1134.53 514.33 C 1136.20 511.84, 1136.85 510.24, 1138.49 507.03 C 1140.14 503.81, 1140.97 502.01, 1142.74 498.27 C 1144.51 494.53, 1145.45 492.42, 1147.34 488.32 C 1149.23 484.21, 1150.24 481.94, 1152.19 477.74 C 1154.15 473.55, 1155.18 471.25, 1157.11 467.34 C 1159.03 463.43, 1160.12 461.42, 1161.82 458.18 C 1163.53 454.94, 1164.77 453.55, 1165.63 451.15 C 1166.49 448.74, 1166.20 447.70, 1166.12 446.16 C 1166.03 444.62, 1165.93 444.21, 1165.21 443.44 C 1164.49 442.67, 1163.58 442.27, 1162.52 442.31" style="stroke: black; fill: black;"/><path d="M 1167.32,409.16 C 1167.46 410.38, 1167.60 411.26, 1167.91 411.33 C 1168.23 411.40, 1168.57 410.76, 1168.89 409.52 C 1169.22 408.28, 1169.62 406.43, 1169.54 405.12 C 1169.45 403.82, 1168.93 402.99, 1168.47 403.01 C 1168.01 403.03, 1167.46 404.00, 1167.23 405.23 C 1167.00 406.46, 1167.18 407.93, 1167.32 409.16" style="stroke: black; fill: black;"/><path d="M 1196.18,451.73 C 1196.94 452.66, 1197.67 452.95, 1199.39 453.24 C 1201.10 453.52, 1202.30 453.59, 1204.76 453.16 C 1207.21 452.74, 1208.85 452.16, 1211.66 451.13 C 1214.48 450.09, 1216.04 449.21, 1218.83 447.99 C 1221.62 446.78, 1223.13 446.30, 1225.61 445.05 C 1228.10 443.80, 1229.40 443.19, 1231.23 441.76 C 1233.07 440.33, 1233.96 439.61, 1234.80 437.90 C 1235.63 436.19, 1235.85 435.00, 1235.40 433.21 C 1234.95 431.42, 1234.34 430.19, 1232.55 428.95 C 1230.76 427.70, 1229.31 427.00, 1226.44 426.98 C 1223.56 426.95, 1221.72 427.65, 1218.15 428.80 C 1214.58 429.95, 1212.50 430.92, 1208.59 432.71 C 1204.68 434.51, 1202.40 435.61, 1198.60 437.77 C 1194.81 439.92, 1192.81 441.15, 1189.60 443.49 C 1186.39 445.82, 1184.67 446.92, 1182.55 449.45 C 1180.44 451.99, 1179.70 453.47, 1179.04 456.15 C 1178.38 458.84, 1178.43 460.36, 1179.25 462.88 C 1180.07 465.39, 1180.93 466.83, 1183.13 468.72 C 1185.34 470.61, 1186.93 471.41, 1190.28 472.34 C 1193.62 473.26, 1195.71 473.18, 1199.86 473.35 C 1204.01 473.51, 1206.40 473.42, 1211.03 473.16 C 1215.66 472.91, 1218.61 472.59, 1223.03 472.08 C 1227.44 471.58, 1229.80 471.45, 1233.10 470.64 C 1236.40 469.83, 1238.34 469.12, 1239.52 468.03 C 1240.71 466.94, 1240.49 465.82, 1239.03 465.19 C 1237.57 464.56, 1235.56 464.68, 1232.22 464.88 C 1228.89 465.07, 1226.65 465.71, 1222.36 466.18 C 1218.08 466.64, 1215.18 467.11, 1210.79 467.22 C 1206.40 467.33, 1204.08 467.24, 1200.43 466.74 C 1196.77 466.24, 1195.10 465.53, 1192.51 464.72 C 1189.93 463.90, 1189.03 463.48, 1187.51 462.67 C 1185.98 461.87, 1185.41 461.63, 1184.90 460.70 C 1184.38 459.76, 1184.34 459.35, 1184.95 458.02 C 1185.56 456.70, 1186.24 455.97, 1187.94 454.07 C 1189.63 452.16, 1190.69 450.69, 1193.42 448.49 C 1196.15 446.30, 1198.05 445.04, 1201.58 443.11 C 1205.11 441.18, 1207.38 440.14, 1211.08 438.85 C 1214.78 437.55, 1216.92 437.13, 1220.07 436.63 C 1223.22 436.14, 1224.73 436.61, 1226.83 436.37 C 1228.93 436.14, 1229.63 435.86, 1230.57 435.45 C 1231.52 435.03, 1231.58 434.58, 1231.55 434.29 C 1231.52 434.01, 1231.29 433.84, 1230.44 434.02 C 1229.59 434.20, 1228.97 434.53, 1227.30 435.19 C 1225.64 435.86, 1224.45 436.41, 1222.13 437.33 C 1219.80 438.26, 1218.37 438.92, 1215.67 439.83 C 1212.97 440.73, 1211.35 441.10, 1208.64 441.86 C 1205.94 442.63, 1204.32 442.79, 1202.14 443.65 C 1199.95 444.51, 1199.03 445.15, 1197.73 446.14 C 1196.42 447.13, 1195.92 447.49, 1195.61 448.61 C 1195.30 449.73, 1195.43 450.81, 1196.18 451.73" style="stroke: black; fill: black;"/><path d="M 1305.45,435.13 C 1305.61 433.96, 1305.35 433.06, 1304.24 431.94 C 1303.13 430.82, 1302.11 430.10, 1299.92 429.53 C 1297.73 428.96, 1296.14 428.69, 1293.27 429.09 C 1290.40 429.50, 1288.80 430.23, 1285.57 431.56 C 1282.35 432.89, 1280.57 433.86, 1277.14 435.76 C 1273.72 437.66, 1271.76 438.81, 1268.44 441.06 C 1265.11 443.31, 1263.32 444.58, 1260.53 447.03 C 1257.75 449.47, 1256.18 450.63, 1254.51 453.28 C 1252.83 455.93, 1252.32 457.54, 1252.17 460.26 C 1252.02 462.98, 1252.32 464.55, 1253.74 466.88 C 1255.15 469.21, 1256.42 470.60, 1259.25 471.91 C 1262.08 473.22, 1264.04 473.24, 1267.88 473.44 C 1271.71 473.65, 1273.92 473.43, 1278.43 472.93 C 1282.93 472.42, 1285.55 471.97, 1290.39 470.92 C 1295.23 469.87, 1297.90 469.06, 1302.62 467.69 C 1307.33 466.31, 1309.75 465.55, 1313.96 464.04 C 1318.17 462.53, 1320.42 461.68, 1323.66 460.13 C 1326.90 458.59, 1328.32 457.81, 1330.16 456.30 C 1331.99 454.78, 1332.55 453.69, 1332.83 452.56 C 1333.10 451.42, 1332.63 450.83, 1331.53 450.61 C 1330.43 450.39, 1329.46 450.66, 1327.34 451.44 C 1325.21 452.21, 1323.98 452.98, 1320.91 454.50 C 1317.85 456.02, 1315.96 457.38, 1312.02 459.03 C 1308.07 460.69, 1305.71 461.45, 1301.18 462.78 C 1296.65 464.10, 1293.99 464.84, 1289.35 465.66 C 1284.72 466.49, 1282.16 466.77, 1278.00 466.88 C 1273.84 466.99, 1271.73 466.67, 1268.57 466.20 C 1265.40 465.74, 1264.14 465.15, 1262.16 464.56 C 1260.18 463.97, 1259.47 463.96, 1258.67 463.26 C 1257.88 462.57, 1257.78 462.25, 1258.17 461.10 C 1258.55 459.94, 1259.20 459.29, 1260.60 457.49 C 1262.00 455.70, 1262.85 454.30, 1265.16 452.12 C 1267.47 449.94, 1269.11 448.60, 1272.15 446.59 C 1275.18 444.58, 1277.10 443.53, 1280.33 442.08 C 1283.55 440.63, 1285.44 440.09, 1288.25 439.34 C 1291.07 438.59, 1292.35 438.53, 1294.40 438.33 C 1296.45 438.14, 1297.15 438.37, 1298.50 438.37 C 1299.86 438.37, 1300.19 438.45, 1301.18 438.33 C 1302.17 438.21, 1302.59 438.42, 1303.44 437.78 C 1304.30 437.14, 1305.29 436.30, 1305.45 435.13" style="stroke: black; fill: black;"/><path d="M 1369.51,391.44 C 1368.45 391.46, 1368.14 391.67, 1366.94 392.66 C 1365.73 393.65, 1364.75 394.14, 1363.46 396.38 C 1362.17 398.63, 1361.96 400.50, 1360.48 403.88 C 1358.99 407.26, 1358.04 409.40, 1356.05 413.30 C 1354.06 417.21, 1352.76 419.39, 1350.51 423.41 C 1348.26 427.43, 1346.97 429.56, 1344.80 433.40 C 1342.64 437.25, 1341.55 439.21, 1339.68 442.65 C 1337.82 446.09, 1336.84 447.69, 1335.47 450.60 C 1334.10 453.51, 1333.52 454.84, 1332.83 457.19 C 1332.14 459.53, 1332.13 460.70, 1332.02 462.32 C 1331.91 463.94, 1331.98 464.41, 1332.29 465.28 C 1332.61 466.15, 1333.13 466.34, 1333.58 466.65 C 1334.03 466.96, 1334.26 466.82, 1334.54 466.83 C 1334.83 466.84, 1334.73 466.74, 1335.00 466.69 C 1335.27 466.64, 1335.44 466.75, 1335.88 466.58 C 1336.31 466.40, 1336.70 466.41, 1337.17 465.81 C 1337.64 465.21, 1337.75 464.88, 1338.23 463.58 C 1338.71 462.28, 1338.89 461.37, 1339.58 459.31 C 1340.28 457.25, 1340.65 456.07, 1341.71 453.26 C 1342.78 450.46, 1343.35 448.71, 1344.92 445.26 C 1346.49 441.82, 1347.50 439.86, 1349.57 436.04 C 1351.64 432.22, 1352.92 430.12, 1355.29 426.18 C 1357.65 422.25, 1359.02 420.09, 1361.39 416.37 C 1363.77 412.65, 1365.08 410.69, 1367.19 407.59 C 1369.29 404.49, 1370.72 403.27, 1371.90 400.87 C 1373.08 398.47, 1373.00 397.26, 1373.06 395.59 C 1373.13 393.93, 1372.93 393.37, 1372.22 392.54 C 1371.51 391.70, 1370.56 391.41, 1369.51 391.44" style="stroke: black; fill: black;"/><path d="M 1328.61,435.01 C 1329.30 435.86, 1329.77 435.95, 1331.27 436.32 C 1332.76 436.68, 1333.67 436.98, 1336.07 436.82 C 1338.46 436.66, 1339.99 436.00, 1343.24 435.52 C 1346.50 435.04, 1348.52 434.74, 1352.34 434.42 C 1356.15 434.11, 1358.65 434.16, 1362.32 433.94 C 1365.99 433.72, 1367.96 433.91, 1370.69 433.33 C 1373.43 432.75, 1374.96 432.04, 1375.99 431.02 C 1377.02 430.00, 1376.98 429.12, 1375.84 428.22 C 1374.70 427.31, 1373.08 426.76, 1370.30 426.49 C 1367.52 426.22, 1365.62 426.71, 1361.96 426.87 C 1358.29 427.03, 1355.86 427.22, 1351.99 427.27 C 1348.13 427.32, 1346.06 427.13, 1342.64 427.14 C 1339.21 427.14, 1337.42 426.83, 1334.87 427.30 C 1332.31 427.76, 1331.28 428.51, 1329.87 429.46 C 1328.46 430.42, 1328.05 430.96, 1327.80 432.07 C 1327.55 433.17, 1327.91 434.16, 1328.61 435.01" style="stroke: black; fill: black;"/><path d="M 1431.72,426.37 C 1431.37 425.20, 1430.76 424.53, 1429.17 423.70 C 1427.58 422.86, 1426.34 422.34, 1423.77 422.20 C 1421.20 422.06, 1419.43 422.29, 1416.31 422.99 C 1413.18 423.69, 1411.40 424.55, 1408.13 425.70 C 1404.86 426.85, 1402.94 427.38, 1399.96 428.75 C 1396.98 430.13, 1395.37 430.79, 1393.21 432.58 C 1391.06 434.37, 1390.12 435.52, 1389.19 437.71 C 1388.25 439.89, 1388.11 441.23, 1388.52 443.50 C 1388.94 445.77, 1389.60 447.08, 1391.25 449.07 C 1392.89 451.06, 1394.23 451.99, 1396.75 453.45 C 1399.28 454.90, 1401.02 455.22, 1403.85 456.34 C 1406.69 457.45, 1408.29 458.07, 1410.92 459.01 C 1413.54 459.94, 1414.98 460.36, 1416.98 461.02 C 1418.98 461.67, 1419.82 461.99, 1420.92 462.27 C 1422.02 462.54, 1422.34 462.49, 1422.48 462.40 C 1422.62 462.32, 1422.46 461.93, 1421.62 461.85 C 1420.78 461.76, 1420.09 461.65, 1418.30 461.98 C 1416.50 462.31, 1415.27 462.70, 1412.66 463.50 C 1410.04 464.29, 1408.40 465.10, 1405.21 465.97 C 1402.02 466.83, 1400.07 467.20, 1396.71 467.81 C 1393.34 468.42, 1391.50 468.63, 1388.40 469.01 C 1385.29 469.40, 1383.70 469.38, 1381.19 469.76 C 1378.68 470.13, 1377.50 470.33, 1375.85 470.87 C 1374.20 471.41, 1373.78 471.89, 1372.95 472.48 C 1372.13 473.07, 1371.95 473.22, 1371.73 473.83 C 1371.51 474.44, 1371.53 474.95, 1371.85 475.52 C 1372.18 476.09, 1372.41 476.25, 1373.35 476.67 C 1374.29 477.10, 1374.80 477.45, 1376.56 477.64 C 1378.31 477.83, 1379.55 477.86, 1382.13 477.62 C 1384.71 477.38, 1386.32 476.97, 1389.47 476.45 C 1392.63 475.93, 1394.46 475.57, 1397.92 475.04 C 1401.38 474.51, 1403.33 474.23, 1406.76 473.78 C 1410.20 473.33, 1412.11 473.46, 1415.10 472.78 C 1418.09 472.10, 1419.58 471.65, 1421.71 470.39 C 1423.84 469.12, 1424.74 468.20, 1425.76 466.45 C 1426.78 464.70, 1426.99 463.47, 1426.81 461.62 C 1426.63 459.77, 1426.14 458.79, 1424.86 457.22 C 1423.58 455.64, 1422.54 455.03, 1420.41 453.73 C 1418.29 452.44, 1416.83 451.89, 1414.21 450.74 C 1411.60 449.58, 1409.94 449.12, 1407.33 447.97 C 1404.72 446.82, 1403.34 445.98, 1401.16 444.99 C 1398.97 443.99, 1397.85 443.63, 1396.40 442.99 C 1394.95 442.36, 1394.36 442.27, 1393.92 441.82 C 1393.48 441.37, 1393.50 441.32, 1394.22 440.74 C 1394.95 440.17, 1395.74 439.84, 1397.55 438.94 C 1399.35 438.03, 1400.63 437.30, 1403.24 436.22 C 1405.85 435.14, 1407.63 434.34, 1410.59 433.54 C 1413.55 432.74, 1415.34 432.60, 1418.03 432.21 C 1420.72 431.82, 1422.02 431.87, 1424.05 431.59 C 1426.07 431.32, 1426.78 431.24, 1428.15 430.83 C 1429.51 430.42, 1430.16 430.44, 1430.88 429.55 C 1431.59 428.66, 1432.06 427.54, 1431.72 426.37" style="stroke: black; fill: black;"/></svg>