<svg xmlns="http://www.w3.org/2000/svg" id="canvas" viewBox="305.486 359.167 1094.105 165.309"><path d="M 346.45,386.50 C 345.27 386.91, 344.71 387.58, 343.64 389.33 C 342.56 391.09, 342.06 392.27, 341.06 395.27 C 340.06 398.26, 339.84 400.37, 338.64 404.29 C 337.44 408.21, 336.65 410.50, 335.06 414.86 C 333.47 419.23, 332.48 421.62, 330.69 426.11 C 328.91 430.60, 327.91 433.00, 326.14 437.31 C 324.37 441.63, 323.45 443.80, 321.84 447.69 C 320.24 451.57, 319.46 453.46, 318.11 456.72 C 316.77 459.98, 315.96 461.42, 315.10 463.99 C 314.24 466.56, 314.13 467.76, 313.82 469.57 C 313.51 471.38, 313.39 471.99, 313.55 473.04 C 313.72 474.09, 314.23 474.39, 314.64 474.82 C 315.06 475.24, 315.38 475.07, 315.65 475.17 C 315.91 475.26, 315.69 475.23, 315.97 475.27 C 316.25 475.31, 316.50 475.55, 317.06 475.36 C 317.61 475.17, 318.14 475.11, 318.76 474.31 C 319.37 473.51, 319.48 472.97, 320.14 471.35 C 320.80 469.73, 321.28 468.72, 322.04 466.21 C 322.80 463.69, 322.98 462.10, 323.96 458.79 C 324.93 455.47, 325.54 453.54, 326.92 449.63 C 328.30 445.72, 329.16 443.53, 330.87 439.22 C 332.57 434.90, 333.57 432.50, 335.44 428.05 C 337.31 423.60, 338.35 421.23, 340.24 416.95 C 342.13 412.67, 343.15 410.45, 344.89 406.67 C 346.63 402.89, 347.80 401.08, 348.93 398.04 C 350.05 394.99, 350.39 393.60, 350.52 391.46 C 350.64 389.32, 350.37 388.32, 349.55 387.33 C 348.74 386.34, 347.63 386.10, 346.45 386.50" style="stroke: black; fill: black;"/><path d="M 309.29,378.39 C 309.89 379.20, 310.22 379.37, 311.50 379.67 C 312.78 379.98, 313.52 380.29, 315.68 379.93 C 317.83 379.57, 319.07 378.83, 322.28 377.88 C 325.49 376.94, 327.55 376.22, 331.74 375.21 C 335.93 374.20, 338.43 373.69, 343.23 372.84 C 348.03 371.99, 350.74 371.57, 355.72 370.96 C 360.70 370.36, 363.38 370.10, 368.14 369.82 C 372.90 369.54, 375.36 369.47, 379.51 369.57 C 383.66 369.67, 385.66 369.90, 388.90 370.33 C 392.14 370.75, 393.51 371.36, 395.69 371.71 C 397.87 372.06, 398.52 372.01, 399.82 372.08 C 401.11 372.15, 401.47 372.38, 402.16 372.05 C 402.85 371.71, 403.33 371.25, 403.26 370.40 C 403.18 369.56, 402.98 368.91, 401.78 367.82 C 400.59 366.74, 399.75 365.74, 397.28 364.99 C 394.81 364.24, 392.99 364.23, 389.43 364.08 C 385.87 363.94, 383.79 364.08, 379.47 364.25 C 375.15 364.41, 372.67 364.54, 367.81 364.91 C 362.95 365.28, 360.24 365.55, 355.16 366.09 C 350.09 366.63, 347.35 367.01, 342.46 367.59 C 337.56 368.18, 335.05 368.57, 330.69 369.01 C 326.33 369.44, 324.13 369.38, 320.67 369.76 C 317.22 370.14, 315.61 370.16, 313.42 370.89 C 311.23 371.61, 310.69 372.44, 309.70 373.39 C 308.72 374.35, 308.59 374.65, 308.50 375.65 C 308.42 376.65, 308.69 377.59, 309.29 378.39" style="stroke: black; fill: black;"/><path d="M 396.48,428.43 C 394.99 428.23, 393.35 428.46, 391.13 430.03 C 388.91 431.60, 387.75 433.33, 385.38 436.27 C 383.01 439.20, 381.60 441.34, 379.30 444.71 C 377.00 448.08, 375.91 450.01, 373.88 453.12 C 371.85 456.23, 370.65 457.67, 369.13 460.27 C 367.62 462.86, 366.99 464.11, 366.32 466.10 C 365.65 468.10, 365.74 468.98, 365.78 470.24 C 365.82 471.50, 366.05 471.88, 366.53 472.40 C 367.02 472.93, 367.53 472.97, 368.19 472.87 C 368.85 472.77, 368.98 472.62, 369.83 471.89 C 370.69 471.16, 371.29 470.81, 372.45 469.23 C 373.60 467.65, 374.19 466.49, 375.61 463.99 C 377.03 461.49, 377.68 459.76, 379.55 456.71 C 381.42 453.67, 382.62 451.87, 384.96 448.76 C 387.29 445.64, 388.95 443.80, 391.24 441.14 C 393.53 438.48, 394.95 437.47, 396.41 435.45 C 397.88 433.43, 398.55 432.44, 398.56 431.04 C 398.58 429.63, 397.96 428.63, 396.48 428.43" style="stroke: black; fill: black;"/><path d="M 418.00,383.45 C 416.91 382.74, 416.05 382.61, 415.35 382.92 C 414.66 383.24, 414.40 384.20, 414.54 385.03 C 414.69 385.87, 415.08 386.52, 416.07 387.08 C 417.07 387.64, 418.43 387.63, 419.50 387.85 C 420.57 388.07, 420.95 388.06, 421.42 388.19 C 421.89 388.32, 421.95 388.85, 421.83 388.51 C 421.71 388.17, 421.57 387.49, 420.81 386.48 C 420.04 385.46, 419.09 384.16, 418.00 383.45" style="stroke: black; fill: black;"/><path d="M 460.12,382.60 C 458.96 382.61, 458.31 382.90, 456.91 384.22 C 455.50 385.54, 454.69 386.40, 453.07 389.18 C 451.46 391.97, 450.87 394.18, 448.83 398.15 C 446.80 402.11, 445.50 404.48, 442.90 409.01 C 440.29 413.54, 438.66 416.08, 435.81 420.78 C 432.97 425.48, 431.37 428.04, 428.67 432.52 C 425.97 437.00, 424.61 439.22, 422.33 443.18 C 420.04 447.13, 418.88 448.98, 417.26 452.30 C 415.63 455.62, 414.79 457.12, 414.20 459.77 C 413.62 462.42, 413.86 463.75, 414.33 465.55 C 414.80 467.36, 415.64 468.05, 416.55 468.80 C 417.45 469.54, 418.19 469.54, 418.86 469.28 C 419.54 469.01, 419.75 468.03, 419.91 467.47 C 420.06 466.91, 419.66 466.95, 419.64 466.46 C 419.61 465.98, 419.58 466.07, 419.79 465.05 C 420.00 464.03, 420.11 463.44, 420.69 461.37 C 421.27 459.29, 421.47 457.84, 422.68 454.67 C 423.89 451.51, 424.73 449.51, 426.72 445.55 C 428.71 441.59, 430.02 439.33, 432.63 434.87 C 435.23 430.40, 436.82 427.85, 439.75 423.21 C 442.68 418.58, 444.36 416.07, 447.26 411.71 C 450.16 407.36, 451.67 405.09, 454.25 401.43 C 456.84 397.78, 458.48 396.19, 460.18 393.46 C 461.89 390.72, 462.26 389.62, 462.76 387.76 C 463.27 385.91, 463.25 385.21, 462.72 384.18 C 462.19 383.15, 461.28 382.59, 460.12 382.60" style="stroke: black; fill: black;"/><path d="M 477.18,431.33 C 475.99 431.38, 475.49 431.88, 474.18 432.96 C 472.87 434.05, 472.05 434.76, 470.63 436.74 C 469.21 438.72, 468.59 440.31, 467.09 442.87 C 465.60 445.42, 464.74 447.00, 463.15 449.53 C 461.57 452.05, 460.44 453.31, 459.17 455.49 C 457.89 457.66, 457.13 458.72, 456.79 460.40 C 456.45 462.08, 456.67 462.98, 457.44 463.89 C 458.22 464.81, 459.20 465.21, 460.65 464.97 C 462.10 464.74, 463.16 464.37, 464.69 462.73 C 466.21 461.09, 466.57 459.48, 468.27 456.77 C 469.98 454.07, 470.84 452.17, 473.19 449.19 C 475.54 446.22, 477.12 444.60, 480.02 441.91 C 482.91 439.21, 484.66 437.82, 487.69 435.73 C 490.71 433.64, 492.51 432.82, 495.14 431.48 C 497.78 430.13, 499.08 429.69, 500.85 428.99 C 502.63 428.28, 503.22 428.02, 504.01 427.95 C 504.80 427.88, 504.82 428.01, 504.81 428.64 C 504.80 429.27, 504.47 429.72, 503.95 431.11 C 503.43 432.50, 503.05 433.52, 502.21 435.57 C 501.37 437.62, 500.84 439.00, 499.75 441.36 C 498.67 443.72, 497.89 445.13, 496.79 447.36 C 495.69 449.60, 494.73 450.64, 494.24 452.53 C 493.75 454.42, 493.71 455.47, 494.34 456.80 C 494.97 458.13, 495.86 458.87, 497.39 459.19 C 498.92 459.50, 500.09 459.52, 501.99 458.37 C 503.88 457.23, 504.66 455.84, 506.86 453.45 C 509.07 451.07, 510.17 449.14, 513.01 446.44 C 515.86 443.75, 517.74 442.29, 521.07 439.99 C 524.41 437.68, 526.41 436.52, 529.69 434.94 C 532.97 433.35, 534.78 432.88, 537.48 432.05 C 540.17 431.22, 541.41 431.02, 543.16 430.78 C 544.92 430.54, 545.47 430.51, 546.24 430.85 C 547.00 431.19, 547.02 431.48, 546.99 432.48 C 546.96 433.48, 546.68 434.12, 546.09 435.84 C 545.50 437.57, 544.99 438.74, 544.05 441.09 C 543.10 443.45, 542.61 445.03, 541.38 447.61 C 540.16 450.18, 539.09 451.53, 537.93 453.97 C 536.77 456.41, 536.11 457.72, 535.58 459.79 C 535.06 461.86, 535.15 462.92, 535.30 464.32 C 535.45 465.72, 535.73 466.22, 536.34 466.79 C 536.94 467.36, 537.58 467.38, 538.34 467.17 C 539.09 466.97, 539.28 466.62, 540.11 465.77 C 540.94 464.92, 541.39 464.44, 542.49 462.90 C 543.59 461.36, 544.24 460.35, 545.60 458.09 C 546.96 455.83, 547.83 454.34, 549.29 451.60 C 550.75 448.87, 551.88 447.33, 552.91 444.41 C 553.94 441.49, 554.40 439.79, 554.44 437.01 C 554.48 434.22, 554.18 432.70, 553.11 430.49 C 552.04 428.27, 551.10 427.21, 549.07 425.93 C 547.04 424.66, 545.70 424.22, 542.96 424.12 C 540.22 424.01, 538.58 424.37, 535.36 425.43 C 532.15 426.48, 530.41 427.51, 526.87 429.39 C 523.33 431.27, 521.31 432.51, 517.66 434.84 C 514.01 437.17, 512.05 438.66, 508.63 441.05 C 505.21 443.43, 503.20 444.60, 500.56 446.78 C 497.93 448.96, 496.56 450.04, 495.45 451.97 C 494.33 453.89, 494.56 455.14, 494.99 456.41 C 495.41 457.68, 496.34 458.26, 497.57 458.32 C 498.80 458.37, 499.72 457.97, 501.14 456.68 C 502.56 455.39, 503.21 454.11, 504.67 451.87 C 506.12 449.64, 507.10 448.18, 508.42 445.50 C 509.75 442.82, 510.58 441.26, 511.29 438.48 C 512.00 435.69, 512.28 434.09, 511.98 431.57 C 511.68 429.04, 511.16 427.67, 509.79 425.87 C 508.43 424.07, 507.33 423.28, 505.16 422.58 C 503.00 421.87, 501.63 421.80, 498.97 422.35 C 496.31 422.90, 494.84 423.67, 491.86 425.33 C 488.87 426.99, 487.23 428.25, 484.03 430.64 C 480.83 433.03, 479.05 434.50, 475.86 437.28 C 472.67 440.05, 471.02 441.70, 468.07 444.51 C 465.13 447.33, 463.44 448.77, 461.13 451.35 C 458.82 453.94, 457.51 455.20, 456.52 457.43 C 455.54 459.66, 455.73 460.97, 456.19 462.50 C 456.66 464.04, 457.60 464.74, 458.85 465.10 C 460.10 465.46, 460.98 465.24, 462.45 464.29 C 463.91 463.34, 464.61 462.31, 466.20 460.33 C 467.79 458.35, 468.62 456.86, 470.40 454.38 C 472.17 451.89, 473.33 450.44, 475.05 447.91 C 476.78 445.37, 477.91 444.01, 479.02 441.71 C 480.14 439.40, 480.42 438.19, 480.64 436.38 C 480.86 434.58, 480.81 433.72, 480.12 432.70 C 479.43 431.69, 478.37 431.28, 477.18 431.33" style="stroke: black; fill: black;"/><path d="M 611.68,433.27 C 611.98 432.12, 611.78 431.31, 610.97 430.19 C 610.15 429.06, 609.37 428.35, 607.60 427.63 C 605.82 426.91, 604.48 426.62, 602.10 426.59 C 599.71 426.57, 598.38 426.76, 595.67 427.51 C 592.97 428.25, 591.46 428.79, 588.55 430.30 C 585.65 431.81, 584.08 432.94, 581.16 435.03 C 578.24 437.13, 576.65 438.37, 573.94 440.76 C 571.22 443.16, 569.68 444.44, 567.61 446.99 C 565.54 449.55, 564.57 450.96, 563.58 453.53 C 562.58 456.11, 562.38 457.51, 562.63 459.88 C 562.88 462.24, 563.38 463.54, 564.82 465.36 C 566.27 467.18, 567.45 468.07, 569.85 468.98 C 572.25 469.89, 573.87 470.15, 576.83 469.93 C 579.80 469.71, 581.47 469.08, 584.67 467.88 C 587.86 466.67, 589.52 465.73, 592.82 463.90 C 596.11 462.07, 597.91 460.96, 601.14 458.73 C 604.38 456.50, 606.06 455.15, 608.99 452.75 C 611.93 450.35, 613.46 449.05, 615.81 446.72 C 618.16 444.39, 619.54 443.28, 620.74 441.11 C 621.93 438.94, 622.21 437.46, 621.79 435.86 C 621.37 434.25, 620.30 433.37, 618.64 433.07 C 616.97 432.77, 615.47 433.07, 613.46 434.36 C 611.44 435.65, 610.27 437.01, 608.57 439.52 C 606.88 442.03, 606.30 444.02, 604.99 446.92 C 603.69 449.81, 602.88 451.31, 602.04 453.98 C 601.21 456.64, 600.93 457.96, 600.80 460.23 C 600.68 462.51, 600.89 463.64, 601.43 465.35 C 601.98 467.06, 602.56 467.83, 603.52 468.79 C 604.47 469.75, 605.28 470.03, 606.21 470.13 C 607.15 470.23, 607.71 469.97, 608.18 469.29 C 608.64 468.61, 608.53 467.46, 608.53 466.72 C 608.54 465.97, 608.30 465.91, 608.18 465.56 C 608.07 465.21, 608.13 465.30, 607.98 464.97 C 607.83 464.63, 607.48 464.60, 607.43 463.88 C 607.38 463.16, 607.25 462.70, 607.71 461.36 C 608.18 460.02, 608.68 459.15, 609.76 457.17 C 610.84 455.19, 611.53 453.76, 613.13 451.45 C 614.72 449.14, 616.23 447.90, 617.73 445.62 C 619.23 443.34, 620.06 442.01, 620.63 440.03 C 621.20 438.05, 621.09 436.88, 620.59 435.72 C 620.09 434.56, 619.33 434.07, 618.13 434.23 C 616.93 434.39, 616.10 435.03, 614.57 436.51 C 613.04 438.00, 612.46 439.42, 610.48 441.65 C 608.50 443.89, 607.28 445.36, 604.68 447.67 C 602.07 449.99, 600.45 451.25, 597.44 453.22 C 594.43 455.19, 592.67 456.15, 589.61 457.52 C 586.55 458.88, 584.88 459.34, 582.14 460.04 C 579.41 460.74, 578.05 460.75, 575.94 461.04 C 573.83 461.33, 572.94 461.46, 571.60 461.50 C 570.26 461.54, 569.82 461.58, 569.23 461.23 C 568.64 460.89, 568.48 460.66, 568.66 459.75 C 568.84 458.84, 569.13 458.24, 570.13 456.68 C 571.12 455.12, 571.88 454.03, 573.63 451.95 C 575.37 449.87, 576.48 448.40, 578.84 446.30 C 581.20 444.19, 582.74 443.07, 585.42 441.43 C 588.10 439.79, 589.72 439.16, 592.24 438.10 C 594.76 437.05, 596.05 436.68, 598.01 436.15 C 599.98 435.63, 600.71 435.51, 602.07 435.50 C 603.43 435.48, 603.83 435.90, 604.82 436.09 C 605.81 436.28, 606.09 436.47, 607.02 436.44 C 607.95 436.42, 608.54 436.59, 609.47 435.96 C 610.40 435.32, 611.38 434.43, 611.68 433.27" style="stroke: black; fill: black;"/><path d="M 645.70,432.45 C 644.59 432.37, 644.13 432.65, 642.87 433.50 C 641.62 434.35, 640.84 434.96, 639.42 436.69 C 638.00 438.42, 637.22 439.80, 635.79 442.16 C 634.35 444.53, 633.60 446.08, 632.23 448.51 C 630.86 450.94, 629.94 452.20, 628.93 454.32 C 627.92 456.44, 627.27 457.46, 627.17 459.11 C 627.06 460.77, 627.43 461.67, 628.42 462.59 C 629.41 463.50, 630.51 463.93, 632.13 463.69 C 633.75 463.45, 634.84 463.01, 636.52 461.37 C 638.21 459.74, 638.68 458.12, 640.56 455.53 C 642.44 452.94, 643.43 451.15, 645.91 448.42 C 648.39 445.68, 649.99 444.18, 652.94 441.84 C 655.90 439.49, 657.70 438.33, 660.67 436.70 C 663.64 435.07, 665.35 434.63, 667.78 433.68 C 670.22 432.74, 671.28 432.35, 672.84 431.96 C 674.40 431.57, 674.93 431.52, 675.59 431.75 C 676.24 431.98, 676.20 432.20, 676.13 433.11 C 676.07 434.03, 675.78 434.65, 675.27 436.35 C 674.76 438.04, 674.34 439.21, 673.57 441.60 C 672.81 443.98, 672.42 445.58, 671.45 448.26 C 670.49 450.94, 669.67 452.40, 668.73 455.00 C 667.80 457.59, 667.17 458.99, 666.78 461.23 C 666.40 463.48, 666.54 464.67, 666.80 466.23 C 667.07 467.80, 667.39 468.44, 668.11 469.04 C 668.83 469.65, 669.57 469.64, 670.39 469.28 C 671.21 468.92, 671.44 468.36, 672.20 467.24 C 672.96 466.11, 673.29 465.44, 674.21 463.66 C 675.14 461.87, 675.72 460.74, 676.84 458.31 C 677.96 455.88, 678.62 454.33, 679.80 451.53 C 680.98 448.73, 681.97 447.18, 682.75 444.30 C 683.54 441.41, 683.84 439.78, 683.72 437.12 C 683.61 434.45, 683.30 433.05, 682.18 430.98 C 681.06 428.91, 680.13 427.90, 678.14 426.78 C 676.15 425.65, 674.84 425.35, 672.24 425.34 C 669.63 425.34, 668.10 425.62, 665.12 426.75 C 662.14 427.88, 660.56 429.00, 657.33 431.00 C 654.11 432.99, 652.26 434.27, 648.99 436.74 C 645.73 439.20, 644.04 440.76, 641.00 443.34 C 637.97 445.92, 636.30 447.28, 633.84 449.65 C 631.37 452.02, 629.93 453.14, 628.70 455.20 C 627.47 457.26, 627.51 458.49, 627.68 459.97 C 627.86 461.44, 628.59 462.12, 629.59 462.60 C 630.58 463.08, 631.37 463.08, 632.67 462.36 C 633.97 461.64, 634.57 460.72, 636.08 459.00 C 637.58 457.27, 638.50 455.98, 640.19 453.72 C 641.89 451.46, 643.02 450.07, 644.57 447.68 C 646.11 445.30, 647.01 443.93, 647.92 441.80 C 648.83 439.66, 649.00 438.57, 649.11 436.99 C 649.22 435.41, 649.13 434.78, 648.45 433.88 C 647.77 432.97, 646.82 432.52, 645.70 432.45" style="stroke: black; fill: black;"/><path d="M 734.94,381.68 C 733.74 381.68, 733.12 382.10, 731.80 383.14 C 730.48 384.18, 729.64 385.02, 728.33 386.88 C 727.02 388.75, 726.28 390.17, 725.25 392.47 C 724.23 394.76, 723.83 396.20, 723.21 398.34 C 722.60 400.48, 722.30 401.50, 722.16 403.17 C 722.03 404.84, 722.18 405.61, 722.53 406.68 C 722.88 407.76, 723.22 408.17, 723.91 408.52 C 724.59 408.88, 725.29 408.67, 725.95 408.44 C 726.61 408.21, 726.62 407.98, 727.22 407.37 C 727.81 406.77, 728.14 406.52, 728.93 405.42 C 729.71 404.32, 730.06 403.54, 731.14 401.89 C 732.22 400.24, 733.08 399.20, 734.31 397.17 C 735.53 395.14, 736.42 393.83, 737.27 391.73 C 738.11 389.62, 738.41 388.36, 738.52 386.64 C 738.64 384.91, 738.56 384.10, 737.85 383.11 C 737.13 382.12, 736.15 381.67, 734.94 381.68" style="stroke: black; fill: black;"/><path d="M 783.53,417.20 C 783.07 416.13, 782.48 415.61, 780.94 415.00 C 779.40 414.40, 778.23 414.08, 775.82 414.19 C 773.41 414.29, 771.72 414.59, 768.89 415.54 C 766.06 416.49, 764.53 417.54, 761.66 418.93 C 758.79 420.31, 757.09 420.86, 754.56 422.46 C 752.03 424.05, 750.70 425.00, 749.00 426.92 C 747.30 428.85, 746.62 429.96, 746.05 432.10 C 745.47 434.23, 745.49 435.48, 746.12 437.60 C 746.76 439.71, 747.50 440.90, 749.23 442.68 C 750.97 444.45, 752.33 445.19, 754.81 446.46 C 757.29 447.74, 758.92 448.09, 761.62 449.05 C 764.33 450.01, 765.88 450.45, 768.33 451.27 C 770.77 452.08, 772.06 452.52, 773.85 453.12 C 775.65 453.72, 776.40 453.99, 777.28 454.27 C 778.16 454.55, 778.32 454.47, 778.26 454.52 C 778.20 454.57, 777.93 454.36, 776.98 454.52 C 776.04 454.68, 775.31 454.79, 773.53 455.31 C 771.75 455.83, 770.54 456.26, 768.09 457.13 C 765.64 458.01, 764.17 458.82, 761.29 459.67 C 758.42 460.53, 756.68 460.88, 753.73 461.40 C 750.77 461.92, 749.15 461.93, 746.53 462.29 C 743.91 462.66, 742.60 462.89, 740.62 463.23 C 738.65 463.57, 737.86 463.57, 736.66 463.99 C 735.46 464.41, 735.16 464.84, 734.61 465.32 C 734.06 465.80, 734.08 465.92, 733.91 466.38 C 733.73 466.85, 733.63 467.14, 733.75 467.64 C 733.86 468.14, 733.88 468.36, 734.48 468.88 C 735.08 469.40, 735.42 469.86, 736.75 470.25 C 738.07 470.63, 738.96 470.72, 741.11 470.79 C 743.27 470.86, 744.74 470.89, 747.54 470.60 C 750.34 470.31, 751.97 469.87, 755.11 469.33 C 758.25 468.79, 760.04 468.47, 763.24 467.89 C 766.44 467.30, 768.24 467.26, 771.10 466.41 C 773.96 465.55, 775.42 464.99, 777.55 463.62 C 779.68 462.25, 780.65 461.36, 781.77 459.56 C 782.89 457.75, 783.18 456.53, 783.15 454.59 C 783.11 452.65, 782.73 451.57, 781.61 449.88 C 780.48 448.18, 779.51 447.47, 777.52 446.10 C 775.52 444.73, 774.14 444.19, 771.64 443.01 C 769.15 441.84, 767.58 441.29, 765.02 440.23 C 762.45 439.16, 761.01 438.53, 758.81 437.68 C 756.61 436.83, 755.51 436.48, 754.03 435.95 C 752.54 435.43, 751.94 435.40, 751.39 435.06 C 750.85 434.73, 750.81 434.75, 751.31 434.26 C 751.81 433.78, 752.39 433.47, 753.90 432.65 C 755.42 431.82, 756.62 431.24, 758.88 430.14 C 761.15 429.04, 762.64 428.14, 765.24 427.14 C 767.84 426.14, 769.47 425.83, 771.90 425.13 C 774.33 424.43, 775.56 424.23, 777.39 423.63 C 779.22 423.03, 779.89 422.79, 781.06 422.14 C 782.22 421.49, 782.73 421.38, 783.23 420.39 C 783.72 419.40, 783.99 418.28, 783.53 417.20" style="stroke: black; fill: black;"/><path d="M 938.78,388.90 C 937.66 389.38, 937.32 390.08, 936.39 391.73 C 935.46 393.38, 934.91 394.39, 934.13 397.15 C 933.34 399.91, 933.43 401.93, 932.49 405.54 C 931.54 409.15, 930.90 411.24, 929.39 415.21 C 927.87 419.19, 926.82 421.33, 924.91 425.39 C 922.99 429.46, 921.86 431.63, 919.82 435.55 C 917.77 439.48, 916.66 441.50, 914.68 445.00 C 912.70 448.50, 911.62 450.19, 909.91 453.06 C 908.21 455.93, 907.20 457.16, 906.15 459.37 C 905.09 461.59, 904.95 462.60, 904.64 464.15 C 904.34 465.71, 904.25 466.33, 904.61 467.15 C 904.98 467.96, 905.59 468.32, 906.48 468.23 C 907.37 468.14, 907.88 467.76, 909.08 466.68 C 910.28 465.61, 911.14 464.94, 912.46 462.84 C 913.78 460.73, 914.22 459.17, 915.68 456.14 C 917.13 453.11, 917.94 451.30, 919.73 447.67 C 921.52 444.05, 922.60 442.00, 924.61 438.02 C 926.63 434.04, 927.76 431.87, 929.81 427.78 C 931.87 423.69, 933.00 421.55, 934.89 417.58 C 936.79 413.61, 937.71 411.52, 939.29 407.92 C 940.86 404.32, 941.95 402.53, 942.78 399.58 C 943.60 396.64, 943.57 395.24, 943.41 393.20 C 943.25 391.15, 942.90 390.22, 941.98 389.36 C 941.05 388.50, 939.90 388.43, 938.78 388.90" style="stroke: black; fill: black;"/><path d="M 928.39,381.03 C 929.57 381.09, 930.02 380.42, 931.42 379.64 C 932.83 378.86, 933.50 378.47, 935.42 377.13 C 937.34 375.79, 938.25 374.42, 941.02 372.95 C 943.79 371.48, 945.67 370.72, 949.27 369.77 C 952.86 368.82, 955.08 368.45, 959.01 368.20 C 962.94 367.94, 965.17 367.98, 968.93 368.50 C 972.68 369.02, 974.70 369.56, 977.78 370.80 C 980.87 372.03, 982.30 373.02, 984.35 374.68 C 986.40 376.34, 987.14 377.28, 988.05 379.11 C 988.96 380.94, 989.07 381.71, 988.89 383.84 C 988.71 385.97, 988.47 387.15, 987.16 389.74 C 985.86 392.34, 984.87 393.93, 982.39 396.81 C 979.90 399.68, 978.21 401.32, 974.73 404.12 C 971.26 406.93, 969.07 408.38, 965.01 410.83 C 960.94 413.28, 958.54 414.47, 954.40 416.37 C 950.25 418.28, 948.00 419.14, 944.28 420.36 C 940.57 421.58, 938.56 421.58, 935.82 422.46 C 933.07 423.34, 932.10 423.91, 930.56 424.77 C 929.01 425.62, 928.50 425.93, 928.07 426.72 C 927.65 427.51, 927.72 428.11, 928.43 428.70 C 929.14 429.28, 929.76 429.54, 931.63 429.63 C 933.50 429.73, 934.85 429.97, 937.79 429.18 C 940.72 428.39, 942.55 427.33, 946.31 425.70 C 950.08 424.07, 952.36 423.14, 956.62 421.05 C 960.88 418.96, 963.34 417.76, 967.63 415.25 C 971.92 412.73, 974.23 411.31, 978.08 408.46 C 981.93 405.60, 983.86 404.06, 986.89 400.96 C 989.91 397.86, 991.38 396.27, 993.21 392.94 C 995.04 389.62, 995.84 387.72, 996.04 384.34 C 996.25 380.95, 995.74 378.99, 994.23 376.01 C 992.72 373.02, 991.35 371.61, 988.49 369.41 C 985.64 367.22, 983.72 366.38, 979.96 365.03 C 976.21 363.68, 973.96 363.23, 969.71 362.67 C 965.46 362.12, 963.09 362.10, 958.73 362.24 C 954.36 362.38, 952.06 362.67, 947.90 363.38 C 943.74 364.08, 941.54 364.51, 937.95 365.77 C 934.35 367.03, 932.33 367.82, 929.93 369.67 C 927.52 371.51, 926.80 373.07, 925.92 375.00 C 925.04 376.92, 925.04 378.10, 925.53 379.31 C 926.03 380.51, 927.21 380.96, 928.39 381.03" style="stroke: black; fill: black;"/><path d="M 996.85,439.61 C 995.78 439.79, 995.56 440.14, 994.58 441.05 C 993.61 441.97, 993.06 442.53, 991.99 444.19 C 990.91 445.86, 990.39 447.13, 989.20 449.38 C 988.01 451.63, 987.34 453.07, 986.02 455.44 C 984.71 457.81, 983.80 459.12, 982.61 461.22 C 981.42 463.32, 980.54 464.31, 980.07 465.95 C 979.61 467.59, 979.69 468.47, 980.30 469.41 C 980.90 470.36, 981.82 470.78, 983.09 470.67 C 984.36 470.57, 985.28 470.23, 986.64 468.88 C 988.01 467.54, 988.58 466.36, 989.91 463.96 C 991.24 461.55, 991.53 459.64, 993.28 456.87 C 995.03 454.10, 996.29 452.62, 998.67 450.12 C 1001.06 447.62, 1002.54 446.36, 1005.20 444.36 C 1007.86 442.36, 1009.35 441.46, 1011.96 440.11 C 1014.56 438.75, 1015.92 438.34, 1018.21 437.57 C 1020.49 436.80, 1021.50 436.51, 1023.38 436.25 C 1025.27 436.00, 1026.11 436.24, 1027.64 436.30 C 1029.17 436.36, 1029.78 436.61, 1031.01 436.55 C 1032.25 436.49, 1033.04 436.61, 1033.82 435.99 C 1034.61 435.38, 1035.12 434.52, 1034.94 433.48 C 1034.76 432.43, 1034.21 431.68, 1032.92 430.78 C 1031.63 429.88, 1030.58 429.36, 1028.50 429.00 C 1026.42 428.63, 1025.06 428.67, 1022.51 428.95 C 1019.95 429.23, 1018.53 429.40, 1015.73 430.38 C 1012.92 431.37, 1011.42 432.16, 1008.49 433.87 C 1005.56 435.59, 1004.03 436.71, 1001.09 438.97 C 998.15 441.22, 996.60 442.56, 993.80 445.17 C 991.00 447.77, 989.62 449.32, 987.09 451.98 C 984.56 454.64, 982.90 455.93, 981.14 458.47 C 979.38 461.00, 978.69 462.46, 978.27 464.65 C 977.85 466.84, 978.22 468.02, 979.03 469.41 C 979.83 470.79, 980.87 471.39, 982.29 471.58 C 983.71 471.77, 984.63 471.44, 986.14 470.36 C 987.66 469.28, 988.28 468.15, 989.87 466.18 C 991.46 464.21, 992.43 462.89, 994.10 460.51 C 995.76 458.12, 996.83 456.72, 998.19 454.25 C 999.56 451.78, 1000.29 450.36, 1000.92 448.14 C 1001.56 445.92, 1001.58 444.74, 1001.38 443.15 C 1001.19 441.56, 1000.83 440.88, 999.93 440.17 C 999.02 439.46, 997.92 439.43, 996.85 439.61" style="stroke: black; fill: black;"/><path d="M 1076.14,442.35 C 1076.11 441.17, 1075.71 440.49, 1074.58 439.52 C 1073.44 438.56, 1072.53 437.97, 1070.46 437.54 C 1068.38 437.11, 1066.86 437.00, 1064.19 437.37 C 1061.51 437.75, 1059.94 438.19, 1057.07 439.42 C 1054.20 440.64, 1052.70 441.66, 1049.84 443.49 C 1046.98 445.32, 1045.34 446.37, 1042.76 448.57 C 1040.17 450.77, 1038.65 451.98, 1036.90 454.50 C 1035.15 457.02, 1034.50 458.56, 1034.01 461.17 C 1033.53 463.79, 1033.59 465.26, 1034.46 467.59 C 1035.34 469.93, 1036.24 471.21, 1038.38 472.85 C 1040.52 474.48, 1042.11 475.27, 1045.18 475.78 C 1048.24 476.28, 1050.16 475.91, 1053.72 475.37 C 1057.28 474.82, 1059.27 474.21, 1062.98 473.04 C 1066.68 471.87, 1068.69 471.11, 1072.23 469.50 C 1075.76 467.89, 1077.59 466.96, 1080.65 465.00 C 1083.70 463.04, 1085.32 462.02, 1087.51 459.70 C 1089.69 457.37, 1090.48 455.90, 1091.55 453.38 C 1092.62 450.86, 1092.86 449.47, 1092.86 447.10 C 1092.85 444.72, 1092.43 443.45, 1091.52 441.51 C 1090.62 439.56, 1089.75 438.62, 1088.33 437.38 C 1086.90 436.13, 1085.85 435.63, 1084.39 435.27 C 1082.93 434.92, 1082.07 435.19, 1081.03 435.59 C 1079.99 435.98, 1079.55 436.44, 1079.20 437.26 C 1078.85 438.08, 1079.07 438.89, 1079.29 439.69 C 1079.51 440.49, 1079.83 440.67, 1080.29 441.26 C 1080.76 441.85, 1080.92 442.20, 1081.60 442.65 C 1082.28 443.10, 1082.93 443.10, 1083.71 443.51 C 1084.49 443.93, 1085.00 444.02, 1085.50 444.72 C 1085.99 445.41, 1086.26 445.85, 1086.19 446.97 C 1086.12 448.10, 1086.01 448.82, 1085.15 450.32 C 1084.30 451.82, 1083.60 452.68, 1081.93 454.47 C 1080.25 456.26, 1079.27 457.49, 1076.78 459.27 C 1074.29 461.05, 1072.62 461.98, 1069.47 463.37 C 1066.33 464.76, 1064.38 465.43, 1061.05 466.24 C 1057.73 467.06, 1055.79 467.27, 1052.84 467.45 C 1049.88 467.63, 1048.45 467.29, 1046.28 467.12 C 1044.11 466.96, 1043.25 466.98, 1042.00 466.64 C 1040.75 466.30, 1040.35 466.13, 1040.04 465.43 C 1039.74 464.73, 1039.83 464.31, 1040.49 463.12 C 1041.14 461.93, 1041.84 461.15, 1043.33 459.49 C 1044.83 457.82, 1045.82 456.56, 1047.97 454.79 C 1050.12 453.02, 1051.57 451.99, 1054.07 450.64 C 1056.57 449.30, 1058.16 448.88, 1060.46 448.08 C 1062.77 447.27, 1063.82 446.92, 1065.61 446.61 C 1067.41 446.29, 1068.11 446.54, 1069.44 446.50 C 1070.76 446.45, 1071.17 446.60, 1072.23 446.39 C 1073.28 446.17, 1073.91 446.24, 1074.70 445.44 C 1075.48 444.63, 1076.16 443.53, 1076.14 442.35" style="stroke: black; fill: black;"/><path d="M 1134.58,440.11 C 1133.53 440.08, 1133.11 440.22, 1131.93 441.20 C 1130.76 442.17, 1129.80 442.74, 1128.70 444.97 C 1127.60 447.20, 1127.48 448.95, 1126.44 452.33 C 1125.41 455.70, 1124.88 457.88, 1123.52 461.84 C 1122.17 465.80, 1121.29 468.03, 1119.67 472.14 C 1118.04 476.26, 1117.12 478.46, 1115.40 482.42 C 1113.67 486.38, 1112.79 488.41, 1111.05 491.95 C 1109.30 495.49, 1108.38 497.20, 1106.66 500.13 C 1104.94 503.07, 1103.94 504.36, 1102.46 506.63 C 1100.97 508.91, 1100.39 509.92, 1099.24 511.50 C 1098.08 513.08, 1097.47 513.66, 1096.68 514.53 C 1095.90 515.40, 1095.68 515.62, 1095.33 515.85 C 1094.98 516.09, 1095.03 515.75, 1094.93 515.71 C 1094.82 515.67, 1095.08 515.65, 1094.82 515.66 C 1094.55 515.67, 1094.37 515.42, 1093.60 515.77 C 1092.82 516.11, 1091.48 516.63, 1090.96 517.37 C 1090.43 518.12, 1090.50 518.75, 1090.96 519.48 C 1091.41 520.22, 1092.04 520.69, 1093.23 521.06 C 1094.42 521.43, 1095.38 521.63, 1096.90 521.33 C 1098.42 521.03, 1099.25 520.63, 1100.82 519.56 C 1102.40 518.49, 1103.20 517.79, 1104.78 515.98 C 1106.37 514.16, 1107.25 513.08, 1108.75 510.49 C 1110.25 507.91, 1110.77 506.28, 1112.26 503.06 C 1113.76 499.83, 1114.59 498.07, 1116.23 494.38 C 1117.87 490.69, 1118.71 488.62, 1120.45 484.61 C 1122.19 480.61, 1123.12 478.42, 1124.93 474.35 C 1126.74 470.29, 1127.70 468.08, 1129.51 464.28 C 1131.33 460.49, 1132.39 458.50, 1133.99 455.38 C 1135.58 452.26, 1136.67 450.97, 1137.48 448.70 C 1138.29 446.42, 1138.11 445.46, 1138.05 443.99 C 1137.99 442.52, 1137.88 442.13, 1137.18 441.36 C 1136.49 440.58, 1135.63 440.14, 1134.58 440.11" style="stroke: black; fill: black;"/><path d="M 1138.86,407.24 C 1139.38 408.32, 1139.89 408.47, 1140.10 408.83 C 1140.30 409.20, 1139.85 409.38, 1139.89 409.05 C 1139.92 408.73, 1140.06 408.48, 1140.27 407.22 C 1140.48 405.95, 1141.08 404.06, 1140.92 402.75 C 1140.77 401.44, 1140.13 400.94, 1139.49 400.65 C 1138.85 400.36, 1138.13 400.74, 1137.73 401.29 C 1137.33 401.84, 1137.27 402.22, 1137.50 403.41 C 1137.72 404.60, 1138.34 406.15, 1138.86 407.24" style="stroke: black; fill: black;"/><path d="M 1164.77,451.41 C 1165.44 452.40, 1166.16 452.81, 1167.88 453.21 C 1169.59 453.61, 1170.84 453.77, 1173.36 453.42 C 1175.87 453.06, 1177.53 452.48, 1180.45 451.43 C 1183.36 450.39, 1184.96 449.43, 1187.95 448.18 C 1190.93 446.93, 1192.64 446.45, 1195.39 445.20 C 1198.14 443.95, 1199.56 443.33, 1201.69 441.92 C 1203.82 440.51, 1204.84 439.84, 1206.03 438.17 C 1207.23 436.50, 1207.70 435.44, 1207.67 433.57 C 1207.64 431.70, 1207.31 430.38, 1205.89 428.81 C 1204.47 427.25, 1203.24 426.27, 1200.58 425.75 C 1197.93 425.22, 1196.10 425.47, 1192.63 426.18 C 1189.16 426.89, 1187.16 427.80, 1183.24 429.32 C 1179.31 430.84, 1177.01 431.80, 1172.99 433.77 C 1168.96 435.74, 1166.71 436.92, 1163.10 439.18 C 1159.48 441.43, 1157.61 442.57, 1154.91 445.03 C 1152.21 447.49, 1150.92 448.78, 1149.60 451.47 C 1148.29 454.16, 1148.07 455.77, 1148.33 458.47 C 1148.59 461.16, 1149.17 462.68, 1150.90 464.96 C 1152.63 467.23, 1153.95 468.45, 1156.97 469.84 C 1159.99 471.23, 1162.03 471.32, 1166.00 471.91 C 1169.97 472.50, 1172.67 472.63, 1176.82 472.80 C 1180.97 472.97, 1183.36 473.17, 1186.74 472.76 C 1190.12 472.36, 1192.37 471.81, 1193.73 470.78 C 1195.10 469.75, 1195.00 468.52, 1193.59 467.62 C 1192.18 466.72, 1189.95 466.63, 1186.68 466.29 C 1183.41 465.95, 1181.11 466.22, 1177.23 465.92 C 1173.34 465.62, 1170.66 465.49, 1167.26 464.78 C 1163.86 464.07, 1162.48 463.26, 1160.21 462.36 C 1157.95 461.46, 1157.15 461.17, 1155.96 460.28 C 1154.76 459.39, 1154.33 459.03, 1154.23 457.90 C 1154.12 456.78, 1154.39 456.26, 1155.42 454.65 C 1156.45 453.03, 1157.20 451.92, 1159.38 449.84 C 1161.56 447.76, 1163.10 446.37, 1166.33 444.25 C 1169.57 442.14, 1171.76 440.96, 1175.56 439.27 C 1179.35 437.57, 1181.66 436.72, 1185.32 435.80 C 1188.99 434.87, 1191.00 434.87, 1193.90 434.63 C 1196.79 434.38, 1198.03 434.73, 1199.82 434.59 C 1201.61 434.44, 1202.13 434.21, 1202.84 433.92 C 1203.56 433.62, 1203.61 433.23, 1203.40 433.13 C 1203.19 433.03, 1202.89 433.02, 1201.79 433.40 C 1200.69 433.78, 1199.85 434.19, 1197.90 435.02 C 1195.95 435.84, 1194.63 436.47, 1192.05 437.54 C 1189.46 438.62, 1187.87 439.42, 1184.99 440.39 C 1182.12 441.37, 1180.44 441.71, 1177.67 442.41 C 1174.90 443.12, 1173.34 443.18, 1171.16 443.91 C 1168.99 444.64, 1168.11 445.18, 1166.79 446.05 C 1165.46 446.91, 1164.94 447.17, 1164.54 448.24 C 1164.14 449.31, 1164.10 450.41, 1164.77 451.41" style="stroke: black; fill: black;"/><path d="M 1270.43,434.11 C 1270.31 432.92, 1269.81 432.17, 1268.46 431.22 C 1267.11 430.27, 1266.03 429.70, 1263.66 429.38 C 1261.30 429.07, 1259.60 428.93, 1256.64 429.63 C 1253.68 430.34, 1252.11 431.33, 1248.87 432.89 C 1245.63 434.46, 1243.82 435.44, 1240.46 437.46 C 1237.11 439.48, 1235.23 440.70, 1232.10 443.00 C 1228.97 445.31, 1227.23 446.48, 1224.83 448.97 C 1222.43 451.46, 1221.24 452.80, 1220.10 455.44 C 1218.96 458.09, 1218.75 459.64, 1219.13 462.19 C 1219.50 464.74, 1220.13 466.18, 1221.99 468.19 C 1223.85 470.20, 1225.31 471.37, 1228.44 472.24 C 1231.57 473.12, 1233.62 472.77, 1237.65 472.58 C 1241.67 472.39, 1243.95 472.04, 1248.58 471.27 C 1253.21 470.50, 1255.89 469.93, 1260.79 468.73 C 1265.70 467.54, 1268.42 466.79, 1273.11 465.28 C 1277.80 463.77, 1280.15 462.86, 1284.25 461.18 C 1288.36 459.50, 1290.30 458.63, 1293.63 456.87 C 1296.96 455.11, 1298.79 454.16, 1300.89 452.37 C 1302.98 450.58, 1303.30 449.43, 1304.10 447.92 C 1304.90 446.40, 1305.04 445.68, 1304.87 444.79 C 1304.70 443.90, 1304.11 443.53, 1303.26 443.47 C 1302.42 443.41, 1302.01 443.83, 1300.65 444.48 C 1299.29 445.13, 1298.49 445.28, 1296.46 446.71 C 1294.43 448.15, 1293.38 449.73, 1290.52 451.65 C 1287.66 453.58, 1285.94 454.59, 1282.14 456.35 C 1278.35 458.12, 1276.06 459.02, 1271.56 460.48 C 1267.06 461.94, 1264.38 462.66, 1259.63 463.67 C 1254.89 464.68, 1252.22 465.13, 1247.84 465.53 C 1243.46 465.92, 1241.20 465.92, 1237.74 465.63 C 1234.27 465.34, 1232.81 464.57, 1230.50 464.07 C 1228.19 463.58, 1227.34 463.66, 1226.20 463.16 C 1225.07 462.66, 1224.81 462.47, 1224.81 461.57 C 1224.81 460.67, 1225.17 460.17, 1226.22 458.67 C 1227.27 457.16, 1228.05 456.07, 1230.04 454.03 C 1232.03 451.99, 1233.40 450.56, 1236.17 448.47 C 1238.94 446.37, 1240.77 445.20, 1243.91 443.55 C 1247.04 441.91, 1248.93 441.16, 1251.85 440.22 C 1254.78 439.28, 1256.24 439.22, 1258.52 438.85 C 1260.81 438.49, 1261.67 438.54, 1263.27 438.39 C 1264.87 438.25, 1265.35 438.36, 1266.52 438.12 C 1267.68 437.89, 1268.31 438.00, 1269.09 437.20 C 1269.88 436.40, 1270.56 435.31, 1270.43 434.11" style="stroke: black; fill: black;"/><path d="M 1337.02,389.24 C 1335.98 389.21, 1335.65 389.33, 1334.40 390.27 C 1333.15 391.22, 1332.09 391.72, 1330.77 393.96 C 1329.44 396.19, 1329.21 398.06, 1327.75 401.43 C 1326.30 404.81, 1325.41 406.94, 1323.47 410.84 C 1321.53 414.73, 1320.25 416.89, 1318.04 420.90 C 1315.84 424.91, 1314.60 427.06, 1312.44 430.89 C 1310.29 434.72, 1309.17 436.65, 1307.26 440.05 C 1305.34 443.46, 1304.33 445.03, 1302.85 447.92 C 1301.37 450.81, 1300.67 452.17, 1299.86 454.51 C 1299.04 456.85, 1298.96 458.01, 1298.78 459.63 C 1298.59 461.24, 1298.64 461.70, 1298.92 462.57 C 1299.19 463.44, 1299.71 463.66, 1300.16 463.98 C 1300.61 464.30, 1300.94 464.17, 1301.16 464.17 C 1301.38 464.17, 1301.07 463.99, 1301.27 463.97 C 1301.47 463.96, 1301.68 464.20, 1302.15 464.10 C 1302.63 464.00, 1303.09 464.03, 1303.64 463.47 C 1304.19 462.90, 1304.30 462.56, 1304.89 461.26 C 1305.48 459.97, 1305.78 459.09, 1306.60 456.98 C 1307.41 454.88, 1307.80 453.59, 1308.97 450.74 C 1310.13 447.90, 1310.78 446.19, 1312.43 442.75 C 1314.08 439.31, 1315.13 437.36, 1317.22 433.54 C 1319.31 429.72, 1320.54 427.59, 1322.87 423.65 C 1325.20 419.72, 1326.53 417.58, 1328.87 413.88 C 1331.21 410.18, 1332.48 408.21, 1334.55 405.15 C 1336.61 402.09, 1338.02 400.92, 1339.20 398.57 C 1340.38 396.22, 1340.34 395.05, 1340.43 393.42 C 1340.52 391.79, 1340.32 391.26, 1339.64 390.43 C 1338.96 389.59, 1338.07 389.27, 1337.02 389.24" style="stroke: black; fill: black;"/><path d="M 1296.34,434.92 C 1297.12 435.81, 1297.81 435.95, 1299.54 436.28 C 1301.28 436.62, 1302.40 436.83, 1305.00 436.60 C 1307.60 436.37, 1309.23 435.61, 1312.54 435.13 C 1315.84 434.65, 1317.85 434.43, 1321.51 434.19 C 1325.16 433.94, 1327.44 434.08, 1330.81 433.91 C 1334.18 433.73, 1335.90 433.82, 1338.36 433.31 C 1340.82 432.80, 1342.14 432.30, 1343.09 431.37 C 1344.03 430.44, 1344.05 429.60, 1343.08 428.67 C 1342.12 427.74, 1340.76 427.16, 1338.26 426.73 C 1335.76 426.30, 1333.99 426.47, 1330.57 426.51 C 1327.16 426.55, 1324.91 426.86, 1321.19 426.95 C 1317.46 427.03, 1315.42 426.92, 1311.94 426.93 C 1308.46 426.94, 1306.52 426.54, 1303.77 426.99 C 1301.03 427.44, 1299.83 428.22, 1298.20 429.19 C 1296.58 430.16, 1296.02 430.70, 1295.65 431.84 C 1295.28 432.99, 1295.56 434.03, 1296.34 434.92" style="stroke: black; fill: black;"/><path d="M 1396.44,426.58 C 1396.04 425.41, 1395.38 424.72, 1393.68 423.89 C 1391.98 423.06, 1390.66 422.53, 1387.95 422.44 C 1385.24 422.36, 1383.38 422.72, 1380.13 423.48 C 1376.88 424.24, 1375.04 425.10, 1371.72 426.26 C 1368.40 427.42, 1366.49 427.89, 1363.54 429.28 C 1360.59 430.67, 1359.03 431.40, 1356.97 433.21 C 1354.92 435.01, 1354.09 436.15, 1353.28 438.31 C 1352.47 440.46, 1352.39 441.80, 1352.91 444.00 C 1353.43 446.19, 1354.18 447.41, 1355.88 449.29 C 1357.58 451.17, 1358.88 452.01, 1361.41 453.38 C 1363.94 454.75, 1365.69 455.06, 1368.54 456.12 C 1371.38 457.18, 1373.02 457.79, 1375.63 458.69 C 1378.25 459.60, 1379.62 460.03, 1381.62 460.67 C 1383.61 461.30, 1384.51 461.63, 1385.60 461.87 C 1386.70 462.11, 1387.00 462.00, 1387.11 461.88 C 1387.21 461.76, 1387.01 461.38, 1386.13 461.28 C 1385.25 461.18, 1384.54 461.06, 1382.70 461.39 C 1380.87 461.72, 1379.61 462.14, 1376.95 462.93 C 1374.29 463.71, 1372.66 464.51, 1369.41 465.32 C 1366.16 466.14, 1364.17 466.48, 1360.69 467.01 C 1357.22 467.54, 1355.27 467.63, 1352.02 467.97 C 1348.77 468.32, 1347.08 468.14, 1344.43 468.74 C 1341.79 469.35, 1339.89 469.91, 1338.80 471.00 C 1337.70 472.08, 1337.74 473.23, 1338.97 474.19 C 1340.21 475.15, 1342.20 475.60, 1344.96 475.80 C 1347.72 476.00, 1349.44 475.53, 1352.78 475.18 C 1356.12 474.84, 1358.06 474.51, 1361.66 474.07 C 1365.26 473.64, 1367.27 473.39, 1370.78 472.99 C 1374.29 472.60, 1376.17 472.71, 1379.20 472.10 C 1382.23 471.49, 1383.75 471.13, 1385.94 469.94 C 1388.13 468.74, 1389.07 467.86, 1390.16 466.12 C 1391.25 464.39, 1391.52 463.14, 1391.38 461.28 C 1391.24 459.42, 1390.74 458.41, 1389.47 456.83 C 1388.20 455.26, 1387.14 454.69, 1385.02 453.40 C 1382.91 452.11, 1381.52 451.53, 1378.89 450.38 C 1376.27 449.24, 1374.55 448.79, 1371.90 447.67 C 1369.24 446.55, 1367.83 445.73, 1365.61 444.78 C 1363.39 443.82, 1362.29 443.46, 1360.80 442.89 C 1359.31 442.31, 1358.65 442.28, 1358.15 441.90 C 1357.64 441.53, 1357.63 441.52, 1358.27 441.01 C 1358.90 440.49, 1359.60 440.20, 1361.32 439.33 C 1363.04 438.46, 1364.29 437.75, 1366.86 436.66 C 1369.43 435.57, 1371.18 434.75, 1374.17 433.89 C 1377.16 433.03, 1378.98 432.73, 1381.80 432.35 C 1384.63 431.96, 1386.08 432.23, 1388.29 431.98 C 1390.49 431.72, 1391.34 431.52, 1392.82 431.08 C 1394.30 430.63, 1394.95 430.64, 1395.67 429.74 C 1396.40 428.85, 1396.84 427.75, 1396.44 426.58" style="stroke: black; fill: black;"/></svg>