<svg xmlns="http://www.w3.org/2000/svg" id="canvas" viewBox="305.150 338.400 1150.538 177.366"><path d="M 361.58,393.98 C 360.24 394.40, 359.14 395.17, 357.77 397.46 C 356.40 399.74, 356.25 401.53, 354.74 405.40 C 353.23 409.28, 352.24 412.12, 350.23 416.83 C 348.21 421.54, 347.21 423.93, 344.66 428.97 C 342.12 434.00, 340.40 436.89, 337.52 442.00 C 334.65 447.10, 333.13 449.77, 330.29 454.50 C 327.46 459.22, 325.95 461.62, 323.35 465.61 C 320.74 469.60, 319.52 471.44, 317.28 474.46 C 315.04 477.47, 313.74 478.62, 312.14 480.67 C 310.55 482.73, 310.02 483.55, 309.32 484.75 C 308.61 485.94, 308.82 486.12, 308.62 486.66 C 308.41 487.20, 308.36 487.03, 308.30 487.44 C 308.24 487.85, 308.00 488.30, 308.29 488.72 C 308.59 489.13, 308.81 489.46, 309.79 489.51 C 310.78 489.56, 311.62 489.88, 313.21 488.96 C 314.79 488.05, 315.98 487.23, 317.72 484.93 C 319.45 482.63, 319.97 480.83, 321.89 477.46 C 323.81 474.08, 324.89 472.21, 327.31 468.06 C 329.73 463.90, 331.22 461.47, 334.00 456.68 C 336.77 451.88, 338.24 449.19, 341.17 444.07 C 344.10 438.95, 345.87 436.07, 348.64 431.08 C 351.42 426.09, 352.61 423.73, 355.03 419.12 C 357.46 414.52, 358.90 411.81, 360.75 408.05 C 362.61 404.29, 363.56 402.87, 364.31 400.33 C 365.06 397.79, 365.04 396.63, 364.49 395.36 C 363.95 394.09, 362.93 393.56, 361.58 393.98" style="stroke: black; fill: black;"/><path d="M 322.50,375.05 C 323.43 375.39, 323.58 375.26, 324.64 375.08 C 325.70 374.90, 326.18 374.78, 327.80 374.12 C 329.43 373.46, 330.14 372.86, 332.77 371.77 C 335.41 370.69, 337.18 369.76, 340.98 368.68 C 344.77 367.60, 347.20 367.22, 351.73 366.38 C 356.26 365.54, 358.58 365.13, 363.61 364.49 C 368.65 363.85, 371.68 363.50, 376.91 363.18 C 382.13 362.87, 384.95 362.90, 389.74 362.92 C 394.53 362.94, 396.62 362.89, 400.87 363.28 C 405.12 363.66, 407.48 363.98, 410.97 364.82 C 414.47 365.67, 416.03 366.76, 418.34 367.50 C 420.65 368.25, 421.36 368.14, 422.54 368.54 C 423.73 368.94, 423.71 369.42, 424.26 369.52 C 424.82 369.63, 425.09 369.25, 425.32 369.06 C 425.55 368.88, 425.26 368.28, 425.41 368.59 C 425.56 368.89, 425.59 370.40, 426.07 370.60 C 426.55 370.80, 427.46 370.37, 427.81 369.58 C 428.16 368.79, 428.32 367.80, 427.84 366.63 C 427.37 365.46, 426.88 364.90, 425.44 363.72 C 423.99 362.55, 423.31 361.71, 420.64 360.76 C 417.96 359.80, 415.94 359.46, 412.05 358.95 C 408.16 358.44, 405.65 358.37, 401.18 358.21 C 396.71 358.06, 394.63 358.12, 389.72 358.17 C 384.81 358.23, 381.97 358.19, 376.64 358.49 C 371.31 358.78, 368.21 359.15, 363.08 359.64 C 357.94 360.13, 355.62 360.45, 350.94 360.94 C 346.26 361.44, 343.85 361.61, 339.68 362.11 C 335.50 362.61, 333.30 362.61, 330.06 363.43 C 326.82 364.25, 325.48 364.89, 323.48 366.22 C 321.47 367.54, 320.73 368.62, 320.03 370.05 C 319.33 371.48, 319.49 372.37, 319.98 373.37 C 320.48 374.36, 321.57 374.70, 322.50 375.05" style="stroke: black; fill: black;"/><path d="M 416.24,423.03 C 414.53 423.13, 412.75 424.14, 409.77 426.30 C 406.79 428.45, 404.83 430.37, 401.34 433.80 C 397.85 437.23, 395.62 439.82, 392.34 443.45 C 389.05 447.07, 387.66 449.06, 384.92 451.92 C 382.17 454.79, 380.76 455.61, 378.62 457.78 C 376.47 459.95, 375.54 460.93, 374.18 462.77 C 372.83 464.61, 372.20 465.63, 371.83 466.97 C 371.47 468.32, 372.10 468.85, 372.35 469.50 C 372.61 470.14, 372.91 469.98, 373.13 470.18 C 373.34 470.38, 373.15 470.37, 373.43 470.50 C 373.72 470.64, 373.86 470.91, 374.55 470.86 C 375.24 470.81, 375.87 471.02, 376.88 470.24 C 377.89 469.46, 378.28 468.57, 379.59 466.97 C 380.91 465.36, 381.53 464.46, 383.44 462.22 C 385.35 459.98, 386.51 458.76, 389.13 455.77 C 391.74 452.77, 393.25 450.80, 396.50 447.24 C 399.75 443.68, 401.96 441.24, 405.38 437.98 C 408.81 434.72, 411.02 433.39, 413.61 430.94 C 416.19 428.50, 417.78 427.35, 418.31 425.77 C 418.84 424.18, 417.95 422.92, 416.24 423.03" style="stroke: black; fill: black;"/><path d="M 435.36,373.48 C 434.11 373.27, 433.27 373.41, 432.36 373.94 C 431.45 374.46, 430.87 375.02, 430.82 376.10 C 430.77 377.18, 431.15 378.34, 432.11 379.34 C 433.07 380.35, 434.27 380.89, 435.62 381.13 C 436.97 381.36, 437.99 381.13, 438.87 380.51 C 439.76 379.88, 440.09 379.11, 440.04 378.00 C 439.99 376.90, 439.57 375.90, 438.63 375.00 C 437.70 374.09, 436.62 373.69, 435.36 373.48" style="stroke: black; fill: black;"/><path d="M 473.64,383.51 C 472.36 383.43, 471.25 383.97, 469.72 385.33 C 468.19 386.69, 467.52 387.60, 465.99 390.32 C 464.47 393.03, 464.03 395.06, 462.09 398.91 C 460.15 402.76, 458.71 405.17, 456.29 409.57 C 453.86 413.97, 452.49 416.47, 449.96 420.93 C 447.42 425.40, 446.02 427.71, 443.61 431.88 C 441.20 436.06, 439.99 438.12, 437.90 441.80 C 435.81 445.47, 434.93 447.13, 433.16 450.27 C 431.40 453.42, 430.26 454.84, 429.07 457.53 C 427.88 460.22, 427.59 461.63, 427.21 463.70 C 426.84 465.78, 426.84 466.48, 427.20 467.89 C 427.56 469.29, 428.07 469.93, 429.01 470.73 C 429.95 471.52, 431.06 471.95, 431.90 471.87 C 432.73 471.78, 433.33 471.20, 433.17 470.30 C 433.02 469.41, 431.62 468.03, 431.12 467.38 C 430.62 466.73, 430.66 466.91, 430.65 467.04 C 430.64 467.17, 430.83 467.78, 431.07 468.04 C 431.31 468.30, 431.31 468.79, 431.85 468.34 C 432.39 467.90, 432.96 467.44, 433.78 465.83 C 434.59 464.23, 434.98 462.91, 435.94 460.32 C 436.90 457.73, 437.24 456.10, 438.56 452.89 C 439.87 449.68, 440.67 447.99, 442.53 444.27 C 444.39 440.55, 445.53 438.47, 447.86 434.30 C 450.19 430.12, 451.58 427.79, 454.19 423.40 C 456.81 419.00, 458.23 416.56, 460.93 412.33 C 463.63 408.09, 465.25 405.80, 467.70 402.23 C 470.15 398.66, 471.64 397.07, 473.19 394.47 C 474.73 391.86, 474.81 390.96, 475.41 389.21 C 476.00 387.46, 476.51 386.86, 476.16 385.72 C 475.80 384.58, 474.93 383.59, 473.64 383.51" style="stroke: black; fill: black;"/><path d="M 497.44,423.04 C 496.22 423.08, 495.64 423.66, 494.30 424.77 C 492.95 425.89, 492.16 426.61, 490.70 428.60 C 489.25 430.59, 488.63 432.15, 487.01 434.73 C 485.38 437.31, 484.57 438.88, 482.58 441.50 C 480.59 444.12, 479.03 445.35, 477.07 447.84 C 475.11 450.33, 474.19 451.78, 472.78 453.94 C 471.37 456.11, 470.59 457.03, 470.02 458.65 C 469.45 460.28, 469.37 461.02, 469.92 462.08 C 470.46 463.13, 471.32 463.95, 472.76 463.95 C 474.19 463.95, 475.51 463.72, 477.10 462.09 C 478.68 460.45, 478.92 458.68, 480.67 455.76 C 482.42 452.85, 483.28 450.69, 485.83 447.52 C 488.38 444.35, 490.13 442.89, 493.41 439.92 C 496.70 436.95, 498.79 435.25, 502.26 432.66 C 505.73 430.08, 507.90 428.74, 510.77 427.01 C 513.64 425.28, 515.01 424.97, 516.59 424.01 C 518.18 423.05, 518.46 422.58, 518.69 422.23 C 518.92 421.87, 518.55 421.69, 517.73 422.25 C 516.92 422.81, 515.86 423.32, 514.61 425.03 C 513.36 426.74, 512.71 428.23, 511.47 430.79 C 510.23 433.36, 509.83 435.11, 508.41 437.83 C 507.00 440.56, 505.70 441.95, 504.39 444.42 C 503.08 446.90, 502.29 448.12, 501.88 450.20 C 501.46 452.29, 501.55 453.36, 502.33 454.84 C 503.12 456.31, 503.94 457.25, 505.79 457.58 C 507.65 457.90, 509.22 457.89, 511.60 456.46 C 513.98 455.03, 514.82 453.10, 517.70 450.42 C 520.57 447.75, 522.38 446.05, 525.98 443.09 C 529.57 440.12, 531.84 438.38, 535.65 435.59 C 539.47 432.80, 541.53 431.24, 545.06 429.12 C 548.59 427.01, 550.47 426.47, 553.30 425.02 C 556.14 423.58, 557.40 422.87, 559.24 421.89 C 561.09 420.92, 561.72 420.64, 562.52 420.14 C 563.31 419.63, 563.37 419.34, 563.21 419.37 C 563.05 419.40, 562.31 419.42, 561.70 420.30 C 561.09 421.17, 560.73 422.06, 560.15 423.76 C 559.58 425.46, 559.54 426.58, 558.83 428.80 C 558.12 431.03, 557.61 432.36, 556.61 434.88 C 555.62 437.41, 555.09 438.94, 553.87 441.43 C 552.64 443.93, 551.72 445.07, 550.49 447.35 C 549.26 449.64, 548.28 450.76, 547.72 452.87 C 547.16 454.98, 547.31 456.34, 547.71 457.91 C 548.12 459.47, 548.93 460.06, 549.76 460.68 C 550.59 461.30, 551.30 461.41, 551.88 461.00 C 552.45 460.59, 552.57 459.21, 552.64 458.64 C 552.72 458.07, 552.18 458.27, 552.25 458.15 C 552.33 458.02, 552.57 458.45, 553.01 458.01 C 553.46 457.56, 553.51 457.18, 554.48 455.93 C 555.44 454.69, 556.41 453.90, 557.84 451.79 C 559.26 449.68, 560.20 448.04, 561.60 445.38 C 563.01 442.72, 563.59 441.16, 564.87 438.48 C 566.15 435.80, 567.01 434.59, 567.99 431.98 C 568.96 429.37, 569.59 427.86, 569.73 425.43 C 569.88 422.99, 569.50 421.65, 568.70 419.83 C 567.91 418.00, 567.17 417.32, 565.77 416.32 C 564.37 415.31, 563.58 414.91, 561.72 414.81 C 559.85 414.70, 558.75 414.87, 556.45 415.79 C 554.14 416.71, 553.07 417.69, 550.19 419.41 C 547.32 421.13, 545.61 422.04, 542.07 424.39 C 538.53 426.75, 536.41 428.39, 532.48 431.18 C 528.54 433.97, 526.30 435.69, 522.41 438.33 C 518.52 440.98, 516.36 442.29, 513.04 444.40 C 509.72 446.52, 507.66 447.11, 505.81 448.92 C 503.97 450.73, 503.86 452.21, 503.81 453.46 C 503.75 454.70, 504.62 455.12, 505.55 455.14 C 506.47 455.17, 507.11 454.84, 508.42 453.60 C 509.73 452.36, 510.59 451.26, 512.10 448.94 C 513.60 446.62, 514.34 444.73, 515.94 441.99 C 517.55 439.26, 518.64 437.91, 520.10 435.26 C 521.56 432.61, 522.65 431.30, 523.24 428.74 C 523.82 426.17, 523.76 424.44, 523.03 422.43 C 522.31 420.42, 521.33 419.56, 519.60 418.70 C 517.87 417.84, 516.85 417.58, 514.39 418.14 C 511.94 418.70, 510.45 419.48, 507.32 421.49 C 504.20 423.49, 502.31 425.33, 498.78 428.17 C 495.26 431.00, 493.24 432.68, 489.70 435.66 C 486.16 438.65, 484.32 440.10, 481.10 443.08 C 477.88 446.07, 476.02 447.83, 473.61 450.61 C 471.20 453.39, 469.95 454.74, 469.07 456.98 C 468.18 459.22, 468.59 460.40, 469.18 461.81 C 469.77 463.23, 470.70 463.82, 472.03 464.06 C 473.35 464.30, 474.29 464.11, 475.78 463.00 C 477.27 461.89, 477.99 460.60, 479.48 458.52 C 480.97 456.44, 481.39 455.02, 483.23 452.61 C 485.06 450.19, 486.48 448.98, 488.67 446.43 C 490.87 443.87, 492.19 442.38, 494.20 439.85 C 496.21 437.31, 497.44 436.05, 498.73 433.76 C 500.02 431.47, 500.33 430.24, 500.67 428.40 C 501.00 426.56, 501.04 425.63, 500.39 424.56 C 499.75 423.48, 498.66 422.99, 497.44 423.04" style="stroke: black; fill: black;"/><path d="M 633.21,423.69 C 633.18 422.48, 632.66 421.81, 631.50 420.83 C 630.35 419.86, 629.63 419.38, 627.45 418.83 C 625.28 418.28, 623.60 417.58, 620.63 418.09 C 617.66 418.60, 615.82 419.66, 612.60 421.36 C 609.38 423.06, 607.74 424.41, 604.54 426.60 C 601.34 428.78, 599.58 429.96, 596.60 432.30 C 593.62 434.63, 591.93 435.76, 589.66 438.27 C 587.39 440.77, 586.23 442.27, 585.24 444.83 C 584.24 447.38, 584.32 448.87, 584.69 451.04 C 585.07 453.21, 585.60 454.15, 587.11 455.68 C 588.62 457.21, 589.79 458.16, 592.23 458.69 C 594.67 459.23, 596.48 459.25, 599.32 458.35 C 602.16 457.46, 603.50 456.14, 606.43 454.21 C 609.35 452.28, 610.92 451.07, 613.94 448.71 C 616.96 446.35, 618.53 444.94, 621.53 442.42 C 624.53 439.90, 626.08 438.30, 628.93 436.13 C 631.77 433.95, 633.59 433.13, 635.75 431.56 C 637.91 429.99, 638.73 429.26, 639.72 428.26 C 640.71 427.27, 640.97 426.81, 640.70 426.58 C 640.42 426.35, 639.61 426.17, 638.35 427.12 C 637.10 428.08, 636.13 429.12, 634.42 431.34 C 632.71 433.56, 631.85 435.47, 629.81 438.22 C 627.77 440.97, 626.09 442.42, 624.21 445.08 C 622.34 447.75, 621.17 449.29, 620.43 451.55 C 619.70 453.80, 620.08 455.22, 620.55 456.35 C 621.02 457.48, 621.76 457.52, 622.78 457.22 C 623.81 456.92, 624.13 456.25, 625.69 454.86 C 627.26 453.47, 628.46 452.55, 630.60 450.28 C 632.74 448.01, 634.06 446.23, 636.40 443.52 C 638.75 440.81, 640.64 439.49, 642.33 436.73 C 644.01 433.98, 644.70 432.21, 644.83 429.74 C 644.95 427.28, 644.36 425.84, 642.96 424.43 C 641.55 423.01, 640.11 422.52, 637.80 422.66 C 635.49 422.80, 634.02 423.45, 631.40 425.11 C 628.77 426.77, 627.47 428.48, 624.67 430.94 C 621.87 433.40, 620.35 435.01, 617.39 437.42 C 614.43 439.84, 612.89 441.07, 609.88 443.03 C 606.86 444.98, 605.04 445.82, 602.32 447.18 C 599.61 448.55, 598.22 449.06, 596.31 449.84 C 594.40 450.63, 593.90 450.82, 592.75 451.11 C 591.61 451.40, 591.11 451.35, 590.57 451.28 C 590.03 451.20, 589.85 451.39, 590.06 450.73 C 590.27 450.08, 590.61 449.51, 591.63 448.01 C 592.65 446.52, 593.32 445.31, 595.18 443.25 C 597.03 441.20, 598.25 439.84, 600.90 437.72 C 603.54 435.61, 605.37 434.46, 608.41 432.67 C 611.45 430.88, 613.36 429.89, 616.11 428.78 C 618.85 427.66, 620.16 427.39, 622.12 427.09 C 624.08 426.78, 624.56 427.14, 625.91 427.24 C 627.26 427.33, 627.72 427.64, 628.87 427.57 C 630.03 427.50, 630.81 427.65, 631.68 426.88 C 632.55 426.10, 633.25 424.90, 633.21 423.69" style="stroke: black; fill: black;"/><path d="M 662.79,423.89 C 661.70 423.80, 661.48 424.18, 660.40 424.83 C 659.32 425.48, 658.68 425.77, 657.41 427.14 C 656.13 428.51, 655.41 429.66, 654.03 431.68 C 652.65 433.71, 651.84 435.12, 650.49 437.27 C 649.14 439.41, 648.38 440.55, 647.28 442.40 C 646.18 444.26, 645.30 445.11, 645.00 446.55 C 644.70 447.99, 645.02 448.95, 645.80 449.61 C 646.58 450.28, 647.44 450.50, 648.88 449.88 C 650.32 449.25, 651.41 448.52, 653.00 446.49 C 654.60 444.45, 654.76 442.45, 656.86 439.71 C 658.97 436.98, 660.54 435.27, 663.53 432.81 C 666.52 430.35, 668.53 429.08, 671.81 427.42 C 675.10 425.76, 676.96 425.17, 679.97 424.50 C 682.98 423.83, 684.68 424.09, 686.87 424.07 C 689.06 424.05, 689.94 423.86, 690.93 424.38 C 691.92 424.91, 691.98 425.32, 691.82 426.68 C 691.67 428.03, 691.01 429.00, 690.14 431.14 C 689.26 433.29, 688.66 434.99, 687.46 437.41 C 686.27 439.83, 685.25 440.94, 684.16 443.25 C 683.06 445.55, 682.47 447.03, 681.97 448.94 C 681.46 450.86, 681.51 451.54, 681.63 452.84 C 681.75 454.14, 681.92 454.88, 682.55 455.45 C 683.19 456.02, 684.09 455.94, 684.82 455.69 C 685.54 455.44, 685.46 454.91, 686.18 454.20 C 686.89 453.50, 687.29 453.48, 688.41 452.16 C 689.52 450.83, 690.31 449.72, 691.75 447.58 C 693.19 445.44, 694.19 444.28, 695.60 441.46 C 697.01 438.63, 698.27 436.65, 698.82 433.46 C 699.37 430.27, 699.25 428.28, 698.35 425.50 C 697.45 422.72, 696.53 421.28, 694.31 419.55 C 692.08 417.83, 690.41 417.16, 687.22 416.87 C 684.03 416.59, 682.01 417.13, 678.37 418.13 C 674.73 419.13, 672.77 419.99, 669.02 421.88 C 665.26 423.78, 663.18 425.12, 659.61 427.60 C 656.04 430.09, 654.14 431.70, 651.17 434.31 C 648.20 436.91, 646.42 438.11, 644.78 440.63 C 643.13 443.16, 642.83 444.86, 642.93 446.94 C 643.04 449.01, 643.94 450.14, 645.30 451.01 C 646.66 451.89, 647.93 451.92, 649.71 451.30 C 651.49 450.69, 652.45 449.62, 654.18 447.95 C 655.92 446.28, 656.68 445.06, 658.39 442.95 C 660.10 440.85, 661.34 439.60, 662.73 437.43 C 664.12 435.27, 664.61 433.94, 665.34 432.12 C 666.07 430.30, 666.28 429.69, 666.38 428.32 C 666.48 426.96, 666.55 426.18, 665.83 425.30 C 665.11 424.41, 663.88 423.98, 662.79 423.89" style="stroke: black; fill: black;"/><path d="M 746.98,375.06 C 745.58 375.20, 744.35 375.98, 743.07 377.51 C 741.78 379.05, 740.80 380.46, 740.55 382.72 C 740.31 384.99, 740.63 387.42, 741.82 388.85 C 743.02 390.28, 744.86 390.63, 746.53 389.88 C 748.20 389.13, 749.40 387.01, 750.18 385.12 C 750.97 383.23, 750.48 382.08, 750.46 380.42 C 750.43 378.76, 750.74 377.90, 750.04 376.83 C 749.35 375.76, 748.37 374.92, 746.98 375.06" style="stroke: black; fill: black;"/><path d="M 786.00,406.33 C 785.48 405.30, 784.76 404.92, 783.12 404.38 C 781.49 403.83, 780.35 403.33, 777.82 403.60 C 775.30 403.87, 773.16 404.56, 770.52 405.74 C 767.87 406.92, 766.72 407.77, 764.60 409.49 C 762.48 411.21, 761.08 412.16, 759.94 414.33 C 758.79 416.49, 758.64 418.08, 758.87 420.33 C 759.10 422.58, 759.76 423.68, 761.09 425.55 C 762.42 427.43, 763.48 428.29, 765.54 429.71 C 767.61 431.13, 769.02 431.56, 771.42 432.65 C 773.82 433.75, 775.30 434.22, 777.56 435.20 C 779.82 436.19, 781.01 436.88, 782.72 437.57 C 784.43 438.27, 785.37 438.46, 786.11 438.66 C 786.84 438.86, 786.98 438.57, 786.40 438.57 C 785.82 438.57, 785.04 438.35, 783.23 438.66 C 781.41 438.97, 779.99 439.28, 777.32 440.10 C 774.65 440.91, 772.80 441.69, 769.87 442.73 C 766.94 443.77, 765.42 444.52, 762.69 445.31 C 759.96 446.11, 758.71 446.06, 756.24 446.72 C 753.76 447.38, 752.26 447.70, 750.31 448.60 C 748.35 449.50, 747.13 450.09, 746.46 451.22 C 745.80 452.34, 745.94 453.39, 746.98 454.22 C 748.01 455.05, 749.44 455.29, 751.64 455.38 C 753.83 455.46, 755.32 455.10, 757.96 454.65 C 760.60 454.19, 761.96 453.86, 764.84 453.12 C 767.71 452.38, 769.24 451.68, 772.31 450.94 C 775.39 450.20, 777.29 450.33, 780.22 449.40 C 783.14 448.48, 784.82 447.91, 786.94 446.31 C 789.05 444.71, 789.99 443.52, 790.78 441.41 C 791.57 439.31, 791.56 437.91, 790.90 435.79 C 790.24 433.66, 789.32 432.58, 787.49 430.79 C 785.67 428.99, 784.22 428.20, 781.77 426.82 C 779.32 425.43, 777.62 424.85, 775.23 423.87 C 772.84 422.89, 771.61 422.61, 769.83 421.91 C 768.05 421.22, 767.36 420.93, 766.34 420.40 C 765.31 419.87, 764.95 419.71, 764.70 419.28 C 764.45 418.84, 764.25 418.65, 765.07 418.23 C 765.89 417.80, 766.96 417.62, 768.81 417.16 C 770.66 416.70, 771.95 416.62, 774.32 415.92 C 776.69 415.23, 778.77 414.66, 780.68 413.69 C 782.58 412.71, 782.84 411.86, 783.84 411.03 C 784.85 410.20, 785.26 410.47, 785.69 409.53 C 786.12 408.59, 786.51 407.36, 786.00 406.33" style="stroke: black; fill: black;"/><path d="M 954.69,375.26 C 953.54 375.42, 953.04 375.94, 951.95 377.18 C 950.86 378.41, 950.23 379.10, 949.23 381.42 C 948.24 383.75, 948.01 385.42, 946.98 388.80 C 945.95 392.19, 945.60 394.53, 944.07 398.35 C 942.54 402.16, 941.30 403.89, 939.35 407.89 C 937.40 411.89, 936.41 414.23, 934.31 418.36 C 932.22 422.49, 931.15 424.58, 928.89 428.52 C 926.63 432.46, 925.16 434.44, 923.01 438.06 C 920.87 441.69, 919.73 443.39, 918.16 446.64 C 916.59 449.89, 915.97 451.70, 915.17 454.32 C 914.36 456.95, 914.17 457.96, 914.15 459.79 C 914.12 461.62, 914.61 462.42, 915.03 463.47 C 915.45 464.52, 915.59 464.73, 916.23 465.04 C 916.87 465.35, 917.59 465.34, 918.22 465.01 C 918.85 464.69, 918.98 464.24, 919.38 463.41 C 919.77 462.58, 919.64 462.24, 920.18 460.86 C 920.72 459.47, 921.32 458.84, 922.08 456.50 C 922.84 454.15, 922.82 452.26, 923.98 449.12 C 925.13 445.97, 925.95 444.37, 927.84 440.76 C 929.74 437.16, 931.24 435.10, 933.45 431.09 C 935.67 427.09, 936.77 424.86, 938.93 420.73 C 941.09 416.60, 942.08 414.38, 944.25 410.44 C 946.43 406.50, 947.80 404.78, 949.81 401.03 C 951.82 397.29, 952.71 394.97, 954.31 391.71 C 955.92 388.45, 957.01 387.16, 957.84 384.73 C 958.68 382.30, 958.52 381.23, 958.48 379.56 C 958.45 377.90, 958.44 377.27, 957.68 376.41 C 956.92 375.55, 955.83 375.11, 954.69 375.26" style="stroke: black; fill: black;"/><path d="M 943.38,359.95 C 944.60 360.21, 945.37 359.76, 947.19 358.92 C 949.01 358.07, 949.80 357.26, 952.48 355.72 C 955.16 354.19, 956.74 352.86, 960.59 351.25 C 964.44 349.64, 966.82 348.74, 971.72 347.67 C 976.62 346.59, 979.57 345.97, 985.10 345.86 C 990.63 345.75, 993.86 346.27, 999.38 347.11 C 1004.89 347.95, 1008.05 348.47, 1012.67 350.05 C 1017.29 351.62, 1019.47 352.82, 1022.49 355.00 C 1025.50 357.17, 1026.52 358.47, 1027.77 360.93 C 1029.01 363.39, 1029.15 364.57, 1028.72 367.31 C 1028.28 370.04, 1027.60 371.49, 1025.59 374.61 C 1023.58 377.72, 1022.12 379.58, 1018.65 382.87 C 1015.18 386.16, 1012.84 387.91, 1008.26 391.05 C 1003.67 394.19, 1000.87 395.71, 995.73 398.56 C 990.59 401.41, 987.78 402.99, 982.55 405.29 C 977.33 407.59, 974.49 408.61, 969.61 410.06 C 964.73 411.50, 961.90 411.76, 958.17 412.52 C 954.43 413.28, 952.99 413.29, 950.94 413.86 C 948.89 414.43, 948.72 414.94, 947.94 415.38 C 947.16 415.81, 947.31 415.72, 947.06 416.05 C 946.81 416.38, 946.54 416.56, 946.68 417.04 C 946.82 417.52, 946.73 417.92, 947.76 418.46 C 948.80 419.01, 949.52 419.88, 951.87 419.76 C 954.21 419.64, 955.64 418.96, 959.47 417.88 C 963.30 416.80, 966.06 416.13, 971.02 414.37 C 975.97 412.61, 978.90 411.50, 984.25 409.07 C 989.59 406.64, 992.43 405.07, 997.73 402.22 C 1003.03 399.36, 1005.88 397.91, 1010.74 394.79 C 1015.60 391.66, 1018.13 390.00, 1022.03 386.58 C 1025.93 383.16, 1027.75 381.37, 1030.23 377.67 C 1032.71 373.97, 1033.96 371.96, 1034.44 368.10 C 1034.92 364.25, 1034.46 361.83, 1032.64 358.39 C 1030.82 354.96, 1029.04 353.45, 1025.33 350.92 C 1021.62 348.39, 1019.15 347.37, 1014.09 345.75 C 1009.03 344.14, 1005.82 343.71, 1000.02 342.84 C 994.22 341.97, 990.91 341.42, 985.07 341.40 C 979.22 341.39, 976.11 341.94, 970.81 342.74 C 965.52 343.54, 963.00 344.20, 958.59 345.40 C 954.19 346.61, 951.95 347.19, 948.79 348.76 C 945.62 350.33, 944.31 351.48, 942.77 353.25 C 941.23 355.03, 940.97 356.30, 941.09 357.64 C 941.21 358.98, 942.16 359.70, 943.38 359.95" style="stroke: black; fill: black;"/><path d="M 1017.69,440.72 C 1016.73 440.90, 1017.12 441.12, 1016.43 441.44 C 1015.73 441.76, 1015.17 441.46, 1014.23 442.31 C 1013.28 443.17, 1012.72 444.22, 1011.68 445.72 C 1010.63 447.22, 1010.12 448.15, 1008.99 449.81 C 1007.86 451.47, 1006.98 452.46, 1006.05 454.02 C 1005.11 455.59, 1004.52 456.43, 1004.32 457.65 C 1004.12 458.87, 1004.38 459.52, 1005.06 460.14 C 1005.75 460.76, 1006.51 461.21, 1007.74 460.74 C 1008.97 460.27, 1009.89 459.45, 1011.20 457.78 C 1012.51 456.11, 1012.74 454.73, 1014.28 452.40 C 1015.82 450.07, 1016.59 448.53, 1018.90 446.14 C 1021.22 443.76, 1022.77 442.66, 1025.86 440.48 C 1028.96 438.29, 1030.72 436.97, 1034.37 435.21 C 1038.03 433.44, 1040.52 432.78, 1044.14 431.64 C 1047.76 430.50, 1049.85 430.46, 1052.49 429.51 C 1055.14 428.56, 1055.81 427.72, 1057.39 426.90 C 1058.97 426.08, 1059.80 426.19, 1060.38 425.42 C 1060.97 424.65, 1061.11 423.78, 1060.31 423.05 C 1059.51 422.32, 1058.38 421.90, 1056.38 421.79 C 1054.38 421.68, 1053.19 421.73, 1050.31 422.50 C 1047.44 423.27, 1045.73 424.17, 1042.01 425.63 C 1038.30 427.09, 1035.66 427.87, 1031.74 429.80 C 1027.82 431.72, 1025.91 433.07, 1022.41 435.26 C 1018.90 437.44, 1017.25 438.46, 1014.21 440.72 C 1011.16 442.98, 1009.52 444.17, 1007.18 446.55 C 1004.84 448.93, 1003.62 450.23, 1002.52 452.61 C 1001.42 454.99, 1001.35 456.53, 1001.67 458.44 C 1001.99 460.36, 1002.70 461.24, 1004.13 462.20 C 1005.57 463.15, 1006.98 463.67, 1008.84 463.23 C 1010.70 462.79, 1011.82 461.55, 1013.42 460.00 C 1015.01 458.45, 1015.50 457.20, 1016.83 455.46 C 1018.16 453.72, 1019.00 452.96, 1020.06 451.28 C 1021.12 449.61, 1021.60 448.67, 1022.12 447.09 C 1022.64 445.52, 1022.85 444.72, 1022.67 443.41 C 1022.49 442.10, 1022.21 441.08, 1021.22 440.54 C 1020.22 440.01, 1018.65 440.54, 1017.69 440.72" style="stroke: black; fill: black;"/><path d="M 1089.28,435.05 C 1088.85 433.92, 1088.37 433.65, 1087.44 433.15 C 1086.50 432.65, 1085.86 432.56, 1084.59 432.55 C 1083.32 432.55, 1082.40 432.63, 1081.09 433.14 C 1079.77 433.65, 1079.17 434.28, 1078.01 435.10 C 1076.85 435.92, 1076.39 436.18, 1075.29 437.25 C 1074.20 438.32, 1073.24 438.89, 1072.53 440.46 C 1071.81 442.03, 1071.61 443.23, 1071.71 445.11 C 1071.81 446.99, 1072.09 448.12, 1073.02 449.85 C 1073.95 451.59, 1074.81 452.53, 1076.36 453.80 C 1077.92 455.08, 1078.82 455.53, 1080.81 456.25 C 1082.80 456.97, 1084.02 457.28, 1086.32 457.42 C 1088.61 457.55, 1089.85 457.41, 1092.29 456.92 C 1094.73 456.44, 1096.09 456.03, 1098.51 454.98 C 1100.93 453.94, 1102.24 453.18, 1104.39 451.70 C 1106.54 450.22, 1107.40 449.33, 1109.26 447.57 C 1111.12 445.82, 1112.40 444.96, 1113.69 442.91 C 1114.97 440.86, 1115.19 439.37, 1115.68 437.33 C 1116.16 435.29, 1116.18 434.63, 1116.12 432.71 C 1116.06 430.79, 1116.18 429.57, 1115.37 427.72 C 1114.57 425.87, 1113.70 424.81, 1112.10 423.46 C 1110.50 422.11, 1109.47 421.59, 1107.37 420.99 C 1105.27 420.38, 1103.90 420.22, 1101.58 420.45 C 1099.26 420.67, 1097.97 421.04, 1095.77 422.10 C 1093.56 423.17, 1092.38 424.04, 1090.57 425.77 C 1088.75 427.49, 1087.72 428.50, 1086.69 430.72 C 1085.66 432.95, 1085.16 434.53, 1085.42 436.88 C 1085.67 439.24, 1086.19 440.72, 1087.97 442.48 C 1089.75 444.24, 1091.30 445.31, 1094.33 445.68 C 1097.36 446.05, 1099.91 445.39, 1103.13 444.33 C 1106.35 443.27, 1108.22 442.21, 1110.45 440.39 C 1112.67 438.58, 1113.80 436.86, 1114.24 435.26 C 1114.67 433.67, 1114.12 432.92, 1112.63 432.43 C 1111.13 431.93, 1109.28 432.31, 1106.77 432.78 C 1104.26 433.25, 1102.68 433.97, 1100.07 434.77 C 1097.46 435.58, 1095.52 436.11, 1093.73 436.81 C 1091.94 437.51, 1091.43 438.07, 1091.14 438.26 C 1090.84 438.46, 1091.59 438.45, 1092.25 437.80 C 1092.91 437.15, 1093.56 436.19, 1094.42 435.01 C 1095.28 433.83, 1095.50 432.94, 1096.53 431.91 C 1097.56 430.87, 1098.36 430.44, 1099.57 429.83 C 1100.78 429.21, 1101.42 429.01, 1102.58 428.82 C 1103.73 428.62, 1104.42 428.69, 1105.35 428.87 C 1106.28 429.04, 1106.57 429.27, 1107.24 429.69 C 1107.91 430.12, 1108.30 430.36, 1108.72 430.99 C 1109.13 431.62, 1109.31 431.98, 1109.30 432.84 C 1109.29 433.69, 1109.12 434.16, 1108.68 435.26 C 1108.24 436.36, 1108.09 437.10, 1107.10 438.32 C 1106.10 439.54, 1105.18 440.13, 1103.70 441.37 C 1102.21 442.61, 1101.41 443.44, 1099.67 444.51 C 1097.93 445.58, 1096.86 445.95, 1094.99 446.74 C 1093.12 447.52, 1091.98 447.97, 1090.33 448.43 C 1088.67 448.89, 1088.06 449.07, 1086.73 449.03 C 1085.39 448.99, 1084.72 448.58, 1083.65 448.22 C 1082.58 447.86, 1082.09 447.68, 1081.39 447.23 C 1080.69 446.78, 1080.43 446.47, 1080.15 445.98 C 1079.87 445.49, 1079.99 445.24, 1080.00 444.79 C 1080.01 444.34, 1080.04 444.20, 1080.19 443.73 C 1080.35 443.25, 1080.52 442.78, 1080.78 442.42 C 1081.03 442.06, 1080.90 441.97, 1081.47 441.91 C 1082.04 441.86, 1082.80 442.24, 1083.61 442.15 C 1084.42 442.07, 1084.74 441.70, 1085.54 441.48 C 1086.34 441.26, 1086.79 441.58, 1087.61 441.04 C 1088.43 440.51, 1089.29 439.99, 1089.63 438.79 C 1089.96 437.60, 1089.72 436.18, 1089.28 435.05" style="stroke: black; fill: black;"/><path d="M 1160.51,430.94 C 1159.42 431.00, 1158.82 431.24, 1157.73 432.41 C 1156.65 433.58, 1155.82 434.47, 1155.08 436.79 C 1154.35 439.10, 1154.35 440.83, 1154.04 443.97 C 1153.74 447.12, 1153.80 448.98, 1153.58 452.49 C 1153.36 456.01, 1153.18 458.02, 1152.94 461.54 C 1152.70 465.07, 1152.77 466.83, 1152.37 470.12 C 1151.98 473.40, 1151.69 474.87, 1150.97 477.96 C 1150.26 481.04, 1149.83 482.71, 1148.81 485.56 C 1147.79 488.40, 1147.19 489.75, 1145.86 492.18 C 1144.54 494.61, 1143.70 495.70, 1142.18 497.69 C 1140.66 499.69, 1139.75 500.73, 1138.28 502.17 C 1136.80 503.61, 1136.07 504.17, 1134.80 504.91 C 1133.53 505.65, 1132.90 505.81, 1131.92 505.88 C 1130.95 505.95, 1130.55 505.80, 1129.93 505.27 C 1129.31 504.75, 1129.42 503.98, 1128.82 503.25 C 1128.22 502.53, 1127.73 502.14, 1126.91 501.65 C 1126.08 501.16, 1125.66 500.80, 1124.71 500.80 C 1123.76 500.80, 1122.87 500.92, 1122.16 501.64 C 1121.45 502.36, 1121.11 503.12, 1121.15 504.42 C 1121.19 505.72, 1121.32 506.70, 1122.36 508.14 C 1123.40 509.59, 1124.39 510.72, 1126.35 511.65 C 1128.32 512.57, 1129.88 512.81, 1132.18 512.76 C 1134.49 512.71, 1135.64 512.33, 1137.89 511.38 C 1140.15 510.44, 1141.33 509.81, 1143.48 508.03 C 1145.63 506.25, 1146.84 504.98, 1148.66 502.49 C 1150.47 499.99, 1151.16 498.48, 1152.54 495.55 C 1153.92 492.62, 1154.53 491.06, 1155.56 487.83 C 1156.58 484.60, 1156.95 482.80, 1157.65 479.42 C 1158.36 476.04, 1158.63 474.39, 1159.07 470.95 C 1159.51 467.50, 1159.44 465.69, 1159.86 462.19 C 1160.28 458.70, 1160.49 456.81, 1161.16 453.48 C 1161.83 450.14, 1162.49 448.44, 1163.20 445.51 C 1163.92 442.57, 1164.53 441.03, 1164.74 438.82 C 1164.96 436.60, 1164.59 435.76, 1164.27 434.43 C 1163.96 433.09, 1163.93 432.84, 1163.18 432.14 C 1162.43 431.44, 1161.60 430.89, 1160.51 430.94" style="stroke: black; fill: black;"/><path d="M 1177.78,395.85 C 1177.57 397.09, 1177.80 398.34, 1178.27 398.57 C 1178.75 398.80, 1179.66 398.26, 1180.17 397.01 C 1180.69 395.76, 1180.77 393.63, 1180.84 392.32 C 1180.90 391.00, 1180.79 390.41, 1180.49 390.43 C 1180.19 390.45, 1179.87 391.32, 1179.33 392.41 C 1178.79 393.49, 1177.99 394.62, 1177.78 395.85" style="stroke: black; fill: black;"/><path d="M 1212.08,438.70 C 1213.13 439.15, 1213.68 438.79, 1214.86 438.62 C 1216.03 438.45, 1216.52 438.40, 1217.96 437.86 C 1219.39 437.32, 1220.49 436.84, 1222.03 435.93 C 1223.58 435.02, 1224.31 434.28, 1225.68 433.30 C 1227.05 432.33, 1227.74 431.94, 1228.89 431.06 C 1230.05 430.17, 1230.67 429.97, 1231.45 428.89 C 1232.23 427.81, 1232.76 427.08, 1232.80 425.64 C 1232.83 424.21, 1232.41 422.95, 1231.63 421.70 C 1230.85 420.46, 1230.26 420.19, 1228.88 419.43 C 1227.50 418.67, 1226.91 418.26, 1224.72 417.91 C 1222.53 417.57, 1220.92 417.42, 1217.91 417.72 C 1214.90 418.02, 1212.96 418.63, 1209.66 419.41 C 1206.36 420.20, 1204.74 420.75, 1201.43 421.65 C 1198.11 422.56, 1196.07 422.76, 1193.09 423.93 C 1190.11 425.10, 1188.54 425.86, 1186.53 427.50 C 1184.52 429.14, 1183.88 430.19, 1183.05 432.16 C 1182.22 434.12, 1182.01 435.26, 1182.39 437.33 C 1182.77 439.41, 1183.41 440.67, 1184.95 442.54 C 1186.48 444.41, 1187.42 445.40, 1190.07 446.69 C 1192.72 447.97, 1194.65 448.09, 1198.20 448.98 C 1201.76 449.87, 1203.78 450.36, 1207.83 451.14 C 1211.88 451.93, 1214.54 452.35, 1218.47 452.88 C 1222.39 453.42, 1224.50 453.86, 1227.46 453.80 C 1230.43 453.74, 1232.07 453.38, 1233.30 452.59 C 1234.54 451.80, 1234.66 450.91, 1233.65 449.84 C 1232.63 448.77, 1231.07 447.96, 1228.22 447.23 C 1225.37 446.50, 1223.19 446.74, 1219.40 446.20 C 1215.61 445.65, 1213.04 445.40, 1209.27 444.49 C 1205.49 443.59, 1203.56 442.84, 1200.50 441.66 C 1197.45 440.47, 1196.05 439.56, 1194.00 438.57 C 1191.95 437.58, 1191.49 437.36, 1190.25 436.71 C 1189.00 436.05, 1188.33 435.66, 1187.77 435.28 C 1187.22 434.90, 1186.94 435.11, 1187.47 434.81 C 1188.00 434.52, 1188.73 434.45, 1190.43 433.79 C 1192.13 433.14, 1193.38 432.49, 1195.97 431.55 C 1198.57 430.60, 1200.40 429.86, 1203.40 429.08 C 1206.41 428.31, 1207.98 427.90, 1210.99 427.67 C 1214.00 427.44, 1215.79 427.95, 1218.46 427.95 C 1221.14 427.94, 1222.54 427.83, 1224.36 427.63 C 1226.18 427.44, 1226.73 427.34, 1227.57 426.97 C 1228.41 426.60, 1228.42 426.32, 1228.55 425.77 C 1228.68 425.22, 1228.51 424.64, 1228.22 424.22 C 1227.94 423.80, 1227.77 423.59, 1227.14 423.67 C 1226.51 423.76, 1226.12 424.21, 1225.08 424.63 C 1224.04 425.06, 1223.41 425.34, 1221.93 425.78 C 1220.45 426.23, 1219.50 426.17, 1217.69 426.87 C 1215.87 427.57, 1214.39 428.05, 1212.86 429.28 C 1211.32 430.51, 1210.66 431.59, 1210.00 433.01 C 1209.35 434.42, 1209.16 435.22, 1209.57 436.36 C 1209.99 437.50, 1211.02 438.25, 1212.08 438.70" style="stroke: black; fill: black;"/><path d="M 1314.69,425.25 C 1314.38 424.04, 1313.78 423.54, 1312.33 422.62 C 1310.88 421.71, 1309.77 420.94, 1307.46 420.68 C 1305.15 420.42, 1303.52 420.84, 1300.78 421.33 C 1298.04 421.83, 1296.67 421.92, 1293.76 423.16 C 1290.85 424.39, 1289.14 425.79, 1286.23 427.51 C 1283.32 429.24, 1281.82 429.97, 1279.20 431.77 C 1276.57 433.56, 1275.22 434.43, 1273.10 436.51 C 1270.98 438.58, 1269.88 439.77, 1268.59 442.13 C 1267.30 444.49, 1266.68 445.79, 1266.66 448.30 C 1266.63 450.81, 1267.02 452.40, 1268.47 454.66 C 1269.93 456.92, 1271.05 458.25, 1273.94 459.60 C 1276.84 460.94, 1278.85 460.98, 1282.96 461.39 C 1287.06 461.80, 1289.66 461.80, 1294.49 461.64 C 1299.32 461.49, 1302.28 461.08, 1307.11 460.62 C 1311.94 460.15, 1314.87 459.90, 1318.65 459.31 C 1322.44 458.72, 1323.79 458.44, 1326.03 457.67 C 1328.27 456.90, 1329.16 456.33, 1329.86 455.45 C 1330.55 454.57, 1330.45 453.89, 1329.51 453.27 C 1328.57 452.65, 1327.50 452.38, 1325.15 452.37 C 1322.80 452.35, 1321.47 452.69, 1317.75 453.21 C 1314.02 453.73, 1311.19 454.47, 1306.53 454.97 C 1301.87 455.48, 1298.95 455.83, 1294.45 455.74 C 1289.94 455.66, 1287.44 455.28, 1283.99 454.55 C 1280.54 453.81, 1279.27 452.86, 1277.19 452.06 C 1275.12 451.26, 1274.49 451.22, 1273.62 450.55 C 1272.74 449.89, 1272.60 449.61, 1272.82 448.75 C 1273.04 447.89, 1273.59 447.52, 1274.73 446.24 C 1275.88 444.97, 1276.76 443.93, 1278.55 442.37 C 1280.34 440.81, 1281.35 439.97, 1283.68 438.42 C 1286.02 436.88, 1287.55 436.05, 1290.22 434.64 C 1292.90 433.23, 1294.64 432.28, 1297.05 431.38 C 1299.46 430.48, 1300.29 430.46, 1302.27 430.16 C 1304.26 429.85, 1305.30 429.90, 1306.96 429.86 C 1308.63 429.81, 1309.21 430.17, 1310.59 429.93 C 1311.98 429.69, 1313.06 429.59, 1313.88 428.66 C 1314.70 427.72, 1315.00 426.45, 1314.69 425.25" style="stroke: black; fill: black;"/><path d="M 1377.63,381.69 C 1376.54 381.58, 1376.13 381.73, 1374.61 382.73 C 1373.09 383.73, 1372.03 384.29, 1370.04 386.68 C 1368.05 389.07, 1366.99 391.17, 1364.66 394.67 C 1362.32 398.17, 1361.02 400.17, 1358.38 404.17 C 1355.74 408.17, 1354.19 410.53, 1351.43 414.67 C 1348.68 418.81, 1347.21 420.92, 1344.61 424.87 C 1342.02 428.81, 1340.60 430.74, 1338.46 434.40 C 1336.31 438.06, 1335.36 439.97, 1333.90 443.19 C 1332.44 446.41, 1331.83 447.83, 1331.17 450.51 C 1330.51 453.19, 1330.33 454.53, 1330.61 456.60 C 1330.89 458.67, 1331.60 459.65, 1332.57 460.86 C 1333.54 462.08, 1334.35 462.24, 1335.47 462.67 C 1336.58 463.10, 1337.30 463.30, 1338.13 463.03 C 1338.96 462.75, 1339.72 462.25, 1339.63 461.29 C 1339.54 460.32, 1338.23 458.88, 1337.69 458.20 C 1337.14 457.53, 1337.01 457.95, 1336.91 457.89 C 1336.81 457.84, 1337.25 457.92, 1337.19 457.93 C 1337.12 457.93, 1336.68 458.17, 1336.57 457.92 C 1336.46 457.66, 1336.33 457.77, 1336.63 456.65 C 1336.94 455.53, 1337.48 454.55, 1338.10 452.32 C 1338.73 450.09, 1338.73 448.56, 1339.75 445.50 C 1340.78 442.44, 1341.40 440.59, 1343.22 437.01 C 1345.04 433.43, 1346.38 431.52, 1348.87 427.62 C 1351.35 423.72, 1352.82 421.56, 1355.63 417.52 C 1358.44 413.48, 1360.03 411.14, 1362.91 407.41 C 1365.79 403.68, 1367.23 401.89, 1370.01 398.88 C 1372.80 395.87, 1374.83 394.76, 1376.84 392.37 C 1378.85 389.98, 1379.41 388.74, 1380.06 386.93 C 1380.71 385.12, 1380.57 384.35, 1380.09 383.30 C 1379.60 382.25, 1378.73 381.81, 1377.63 381.69" style="stroke: black; fill: black;"/><path d="M 1327.69,418.18 C 1328.44 419.26, 1329.35 419.74, 1331.38 420.33 C 1333.42 420.92, 1335.01 421.09, 1337.85 421.14 C 1340.69 421.19, 1342.34 420.52, 1345.57 420.59 C 1348.79 420.66, 1350.75 421.17, 1353.97 421.50 C 1357.20 421.82, 1359.11 422.38, 1361.70 422.20 C 1364.29 422.03, 1365.81 421.49, 1366.92 420.61 C 1368.02 419.73, 1368.06 418.88, 1367.20 417.80 C 1366.35 416.72, 1365.06 416.06, 1362.63 415.21 C 1360.21 414.37, 1358.37 414.15, 1355.06 413.58 C 1351.76 413.00, 1349.56 412.69, 1346.11 412.33 C 1342.66 411.96, 1340.77 411.68, 1337.81 411.76 C 1334.85 411.83, 1333.34 412.07, 1331.31 412.71 C 1329.28 413.34, 1328.39 413.82, 1327.67 414.92 C 1326.94 416.01, 1326.95 417.10, 1327.69 418.18" style="stroke: black; fill: black;"/><path d="M 1452.10,417.04 C 1451.19 415.92, 1450.01 414.97, 1447.36 414.64 C 1444.70 414.31, 1442.72 414.91, 1438.83 415.41 C 1434.93 415.91, 1432.32 416.28, 1427.88 417.14 C 1423.44 418.00, 1420.91 418.72, 1416.64 419.71 C 1412.37 420.70, 1409.98 421.11, 1406.53 422.07 C 1403.08 423.02, 1401.42 423.15, 1399.39 424.48 C 1397.36 425.82, 1396.74 426.97, 1396.38 428.74 C 1396.01 430.51, 1396.49 431.62, 1397.56 433.32 C 1398.63 435.01, 1399.52 435.99, 1401.71 437.22 C 1403.90 438.44, 1405.60 438.67, 1408.53 439.44 C 1411.45 440.21, 1413.35 440.31, 1416.34 441.09 C 1419.34 441.87, 1421.04 442.47, 1423.51 443.35 C 1425.99 444.22, 1427.08 444.64, 1428.70 445.46 C 1430.31 446.27, 1430.97 446.79, 1431.58 447.42 C 1432.20 448.06, 1432.33 448.15, 1431.77 448.65 C 1431.21 449.16, 1430.50 449.12, 1428.79 449.95 C 1427.09 450.77, 1426.04 451.54, 1423.23 452.78 C 1420.43 454.02, 1418.53 454.94, 1414.78 456.16 C 1411.02 457.39, 1408.57 458.00, 1404.44 458.89 C 1400.32 459.78, 1398.04 460.28, 1394.16 460.60 C 1390.27 460.92, 1388.32 460.63, 1385.02 460.48 C 1381.72 460.33, 1379.96 459.84, 1377.65 459.85 C 1375.33 459.85, 1374.65 460.17, 1373.44 460.51 C 1372.24 460.85, 1372.13 461.15, 1371.62 461.55 C 1371.12 461.95, 1370.99 462.16, 1370.92 462.51 C 1370.85 462.87, 1371.17 463.05, 1371.27 463.34 C 1371.37 463.62, 1371.12 463.47, 1371.43 463.94 C 1371.74 464.40, 1371.67 465.04, 1372.82 465.67 C 1373.97 466.29, 1374.77 466.77, 1377.20 467.06 C 1379.64 467.36, 1381.47 467.27, 1384.98 467.16 C 1388.48 467.05, 1390.62 467.00, 1394.74 466.53 C 1398.87 466.05, 1401.25 465.58, 1405.61 464.79 C 1409.96 464.01, 1412.42 463.52, 1416.53 462.60 C 1420.65 461.67, 1422.83 461.37, 1426.17 460.16 C 1429.52 458.96, 1431.06 458.37, 1433.26 456.56 C 1435.45 454.76, 1436.39 453.48, 1437.15 451.13 C 1437.90 448.77, 1437.86 447.15, 1437.04 444.80 C 1436.22 442.46, 1435.14 441.23, 1433.06 439.39 C 1430.98 437.56, 1429.49 436.89, 1426.65 435.61 C 1423.80 434.33, 1421.91 434.11, 1418.84 433.01 C 1415.77 431.92, 1414.11 431.07, 1411.31 430.13 C 1408.50 429.20, 1406.98 428.63, 1404.81 428.33 C 1402.64 428.03, 1401.61 428.32, 1400.46 428.64 C 1399.30 428.96, 1398.77 429.59, 1399.04 429.92 C 1399.31 430.26, 1399.96 430.59, 1401.82 430.30 C 1403.68 430.01, 1405.11 429.43, 1408.35 428.47 C 1411.59 427.52, 1413.92 426.56, 1418.03 425.54 C 1422.14 424.52, 1424.61 423.97, 1428.91 423.39 C 1433.22 422.81, 1435.81 422.89, 1439.55 422.62 C 1443.28 422.36, 1445.10 422.55, 1447.57 422.08 C 1450.04 421.60, 1450.99 421.25, 1451.90 420.25 C 1452.80 419.24, 1453.01 418.16, 1452.10 417.04" style="stroke: black; fill: black;"/></svg>